<?xml version="1.0" encoding="UTF-8"?>
<svg xmlns="http://www.w3.org/2000/svg" xmlns:xlink="http://www.w3.org/1999/xlink" viewBox="0 0 1224 792">
  <defs>
    <style>
      .cls-1, .cls-2, .cls-3, .cls-4 {
        fill: none;
      }

      .cls-5 {
        font-family: TTLivretSubhead-It, 'TT Livret Subhead';
        font-style: italic;
      }

      .cls-2 {
        stroke: #323a4d;
      }

      .cls-6 {
        fill: #f90;
      }

      .cls-7 {
        fill-rule: evenodd;
      }

      .cls-8 {
        font-size: 25px;
      }

      .cls-9 {
        fill: #fff;
      }

      .cls-10 {
        fill: #ee3224;
      }

      .cls-11 {
        letter-spacing: 0em;
      }

      .cls-3 {
        stroke: #000;
        stroke-miterlimit: 10;
      }

      .cls-12 {
        fill: url(#diagonal_lines_blue_grey);
      }

      .cls-12, .cls-4 {
        opacity: .3;
      }

      .cls-13 {
        font-family: MinionConceptRoman-Bold, 'Minion Variable Concept';
        font-variation-settings: 'wght' 700, 'opsz' 11;
        font-weight: 700;
      }

      .cls-14 {
        fill: url(#diagonal_lines);
      }

      .cls-15 {
        letter-spacing: -.02em;
      }

      .cls-16 {
        letter-spacing: 0em;
      }

      .cls-17 {
        letter-spacing: 0em;
      }

      .cls-18 {
        letter-spacing: 0em;
      }

      .cls-19 {
        letter-spacing: .06em;
      }

      .cls-20 {
        letter-spacing: .03em;
      }

      .cls-21 {
        letter-spacing: .02em;
      }

      .cls-22 {
        font-family: OpenSans, 'Open Sans';
        font-size: 8px;
      }

      .cls-23 {
        letter-spacing: 0em;
      }
    </style>
    <pattern id="diagonal_lines" data-name="diagonal lines" x="0" y="0" width="115.14" height="115.14" patternTransform="translate(504 -415.75)" patternUnits="userSpaceOnUse" viewBox="0 0 115.14 115.14">
      <g>
        <rect class="cls-1" y="0" width="115.14" height="115.14"/>
        <g>
          <line class="cls-2" x1="3.83" y1="111.46" x2="119.31" y2="226.94"/>
          <line class="cls-2" x1="6.45" y1="108.83" x2="121.93" y2="224.32"/>
          <line class="cls-2" x1="1.2" y1="114.08" x2="116.69" y2="229.57"/>
          <line class="cls-2" x1="35.32" y1="79.97" x2="150.8" y2="195.45"/>
          <line class="cls-2" x1="37.94" y1="77.34" x2="153.42" y2="192.83"/>
          <line class="cls-2" x1="30.07" y1="85.22" x2="145.55" y2="200.7"/>
          <line class="cls-2" x1="32.69" y1="82.59" x2="148.18" y2="198.08"/>
          <line class="cls-2" x1="24.82" y1="90.47" x2="140.3" y2="205.95"/>
          <line class="cls-2" x1="27.44" y1="87.84" x2="142.93" y2="203.32"/>
          <line class="cls-2" x1="19.57" y1="95.71" x2="135.06" y2="211.2"/>
          <line class="cls-2" x1="22.2" y1="93.09" x2="137.68" y2="208.57"/>
          <line class="cls-2" x1="14.32" y1="100.96" x2="129.81" y2="216.45"/>
          <line class="cls-2" x1="16.95" y1="98.34" x2="132.43" y2="213.82"/>
          <line class="cls-2" x1="9.08" y1="106.21" x2="124.56" y2="221.69"/>
          <line class="cls-2" x1="11.7" y1="103.59" x2="127.18" y2="219.07"/>
          <line class="cls-2" x1="56.31" y1="58.98" x2="171.79" y2="174.46"/>
          <line class="cls-2" x1="51.06" y1="64.22" x2="166.55" y2="179.71"/>
          <line class="cls-2" x1="53.69" y1="61.6" x2="169.17" y2="177.08"/>
          <line class="cls-2" x1="45.81" y1="69.47" x2="161.3" y2="184.95"/>
          <line class="cls-2" x1="48.44" y1="66.85" x2="163.92" y2="182.33"/>
          <line class="cls-2" x1="40.57" y1="74.72" x2="156.05" y2="190.2"/>
          <line class="cls-2" x1="43.19" y1="72.1" x2="158.67" y2="187.58"/>
        </g>
        <g>
          <line class="cls-2" x1="-111.32" y1="111.46" x2="4.17" y2="226.94"/>
          <line class="cls-2" x1="-108.69" y1="108.83" x2="6.79" y2="224.32"/>
          <line class="cls-2" x1="-113.94" y1="114.08" x2="1.54" y2="229.57"/>
          <line class="cls-2" x1="-79.83" y1="79.97" x2="35.66" y2="195.45"/>
          <line class="cls-2" x1="-77.2" y1="77.34" x2="38.28" y2="192.83"/>
          <line class="cls-2" x1="-85.07" y1="85.22" x2="30.41" y2="200.7"/>
          <line class="cls-2" x1="-82.45" y1="82.59" x2="33.03" y2="198.08"/>
          <line class="cls-2" x1="-90.32" y1="90.47" x2="25.16" y2="205.95"/>
          <line class="cls-2" x1="-87.7" y1="87.84" x2="27.78" y2="203.32"/>
          <line class="cls-2" x1="-95.57" y1="95.71" x2="19.91" y2="211.2"/>
          <line class="cls-2" x1="-92.95" y1="93.09" x2="22.54" y2="208.57"/>
          <line class="cls-2" x1="-100.82" y1="100.96" x2="14.66" y2="216.45"/>
          <line class="cls-2" x1="-98.2" y1="98.34" x2="17.29" y2="213.82"/>
          <line class="cls-2" x1="-106.07" y1="106.21" x2="9.42" y2="221.69"/>
          <line class="cls-2" x1="-103.44" y1="103.59" x2="12.04" y2="219.07"/>
          <line class="cls-2" x1="-58.83" y1="58.98" x2="56.65" y2="174.46"/>
          <line class="cls-2" x1="-64.08" y1="64.22" x2="51.4" y2="179.71"/>
          <line class="cls-2" x1="-61.46" y1="61.6" x2="54.03" y2="177.08"/>
          <line class="cls-2" x1="-69.33" y1="69.47" x2="46.15" y2="184.95"/>
          <line class="cls-2" x1="-66.7" y1="66.85" x2="48.78" y2="182.33"/>
          <line class="cls-2" x1="-74.58" y1="74.72" x2="40.91" y2="190.2"/>
          <line class="cls-2" x1="-71.95" y1="72.1" x2="43.53" y2="187.58"/>
        </g>
        <g>
          <line class="cls-2" x1="113.72" y1="1.56" x2="229.2" y2="117.05"/>
          <line class="cls-2" x1="108.47" y1="6.81" x2="223.96" y2="122.3"/>
          <line class="cls-2" x1="111.1" y1="4.19" x2="226.58" y2="119.67"/>
          <line class="cls-2" x1="103.22" y1="12.06" x2="218.71" y2="127.54"/>
          <line class="cls-2" x1="105.85" y1="9.44" x2="221.33" y2="124.92"/>
          <line class="cls-2" x1="97.98" y1="17.31" x2="213.46" y2="132.79"/>
          <line class="cls-2" x1="100.6" y1="14.68" x2="216.08" y2="130.17"/>
          <line class="cls-2" x1="92.73" y1="22.56" x2="208.21" y2="138.04"/>
          <line class="cls-2" x1="95.35" y1="19.93" x2="210.84" y2="135.42"/>
          <line class="cls-2" x1="87.48" y1="27.81" x2="202.96" y2="143.29"/>
          <line class="cls-2" x1="90.1" y1="25.18" x2="205.59" y2="140.66"/>
          <line class="cls-2" x1="82.23" y1="33.05" x2="197.71" y2="148.54"/>
          <line class="cls-2" x1="84.86" y1="30.43" x2="200.34" y2="145.91"/>
          <line class="cls-2" x1="76.98" y1="38.3" x2="192.47" y2="153.79"/>
          <line class="cls-2" x1="79.61" y1="35.68" x2="195.09" y2="151.16"/>
          <line class="cls-2" x1="71.73" y1="43.55" x2="187.22" y2="159.03"/>
          <line class="cls-2" x1="74.36" y1="40.93" x2="189.84" y2="156.41"/>
          <line class="cls-2" x1="66.49" y1="48.8" x2="181.97" y2="164.28"/>
          <line class="cls-2" x1="69.11" y1="46.17" x2="184.59" y2="161.66"/>
          <line class="cls-2" x1="61.24" y1="54.05" x2="176.72" y2="169.53"/>
          <line class="cls-2" x1="63.86" y1="51.42" x2="179.35" y2="166.91"/>
          <line class="cls-2" x1="58.61" y1="56.67" x2="174.1" y2="172.15"/>
        </g>
        <g>
          <line class="cls-2" x1="3.83" y1="-3.68" x2="119.31" y2="111.8"/>
          <line class="cls-2" x1="6.45" y1="-6.31" x2="121.93" y2="109.17"/>
          <line class="cls-2" x1="-1.42" y1="1.56" x2="114.06" y2="117.05"/>
          <line class="cls-2" x1="1.2" y1="-1.06" x2="116.69" y2="114.42"/>
          <line class="cls-2" x1="-6.67" y1="6.81" x2="108.81" y2="122.3"/>
          <line class="cls-2" x1="-4.05" y1="4.19" x2="111.44" y2="119.67"/>
          <line class="cls-2" x1="-11.92" y1="12.06" x2="103.57" y2="127.54"/>
          <line class="cls-2" x1="-9.29" y1="9.44" x2="106.19" y2="124.92"/>
          <line class="cls-2" x1="-17.17" y1="17.31" x2="98.32" y2="132.79"/>
          <line class="cls-2" x1="-14.54" y1="14.68" x2="100.94" y2="130.17"/>
          <line class="cls-2" x1="-22.41" y1="22.56" x2="93.07" y2="138.04"/>
          <line class="cls-2" x1="-19.79" y1="19.93" x2="95.69" y2="135.42"/>
          <line class="cls-2" x1="-27.66" y1="27.81" x2="87.82" y2="143.29"/>
          <line class="cls-2" x1="-25.04" y1="25.18" x2="90.44" y2="140.66"/>
          <line class="cls-2" x1="-32.91" y1="33.05" x2="82.57" y2="148.54"/>
          <line class="cls-2" x1="-30.29" y1="30.43" x2="85.2" y2="145.91"/>
          <line class="cls-2" x1="-38.16" y1="38.3" x2="77.32" y2="153.79"/>
          <line class="cls-2" x1="-35.54" y1="35.68" x2="79.95" y2="151.16"/>
          <line class="cls-2" x1="-43.41" y1="43.55" x2="72.08" y2="159.03"/>
          <line class="cls-2" x1="-40.78" y1="40.93" x2="74.7" y2="156.41"/>
          <line class="cls-2" x1="-48.66" y1="48.8" x2="66.83" y2="164.28"/>
          <line class="cls-2" x1="-46.03" y1="46.17" x2="69.45" y2="161.66"/>
          <line class="cls-2" x1="-53.9" y1="54.05" x2="61.58" y2="169.53"/>
          <line class="cls-2" x1="-51.28" y1="51.42" x2="64.2" y2="166.91"/>
          <line class="cls-2" x1="35.32" y1="-35.17" x2="150.8" y2="80.31"/>
          <line class="cls-2" x1="37.94" y1="-37.8" x2="153.42" y2="77.68"/>
          <line class="cls-2" x1="30.07" y1="-29.93" x2="145.55" y2="85.56"/>
          <line class="cls-2" x1="32.69" y1="-32.55" x2="148.18" y2="82.93"/>
          <line class="cls-2" x1="24.82" y1="-24.68" x2="140.3" y2="90.81"/>
          <line class="cls-2" x1="27.44" y1="-27.3" x2="142.93" y2="88.18"/>
          <line class="cls-2" x1="19.57" y1="-19.43" x2="135.06" y2="96.05"/>
          <line class="cls-2" x1="22.2" y1="-22.05" x2="137.68" y2="93.43"/>
          <line class="cls-2" x1="14.32" y1="-14.18" x2="129.81" y2="101.3"/>
          <line class="cls-2" x1="16.95" y1="-16.81" x2="132.43" y2="98.68"/>
          <line class="cls-2" x1="9.08" y1="-8.93" x2="124.56" y2="106.55"/>
          <line class="cls-2" x1="11.7" y1="-11.56" x2="127.18" y2="103.93"/>
          <line class="cls-2" x1="56.31" y1="-56.17" x2="171.79" y2="59.32"/>
          <line class="cls-2" x1="51.06" y1="-50.92" x2="166.55" y2="64.56"/>
          <line class="cls-2" x1="53.69" y1="-53.54" x2="169.17" y2="61.94"/>
          <line class="cls-2" x1="45.81" y1="-45.67" x2="161.3" y2="69.81"/>
          <line class="cls-2" x1="48.44" y1="-48.3" x2="163.92" y2="67.19"/>
          <line class="cls-2" x1="40.57" y1="-40.42" x2="156.05" y2="75.06"/>
          <line class="cls-2" x1="43.19" y1="-43.05" x2="158.67" y2="72.44"/>
          <line class="cls-2" x1="-56.53" y1="56.67" x2="58.95" y2="172.15"/>
        </g>
        <g>
          <line class="cls-2" x1="-111.32" y1="-3.68" x2="4.17" y2="111.8"/>
          <line class="cls-2" x1="-108.69" y1="-6.31" x2="6.79" y2="109.17"/>
          <line class="cls-2" x1="-113.94" y1="-1.06" x2="1.54" y2="114.42"/>
          <line class="cls-2" x1="-79.83" y1="-35.17" x2="35.66" y2="80.31"/>
          <line class="cls-2" x1="-77.2" y1="-37.8" x2="38.28" y2="77.68"/>
          <line class="cls-2" x1="-85.07" y1="-29.93" x2="30.41" y2="85.56"/>
          <line class="cls-2" x1="-82.45" y1="-32.55" x2="33.03" y2="82.93"/>
          <line class="cls-2" x1="-90.32" y1="-24.68" x2="25.16" y2="90.81"/>
          <line class="cls-2" x1="-87.7" y1="-27.3" x2="27.78" y2="88.18"/>
          <line class="cls-2" x1="-95.57" y1="-19.43" x2="19.91" y2="96.05"/>
          <line class="cls-2" x1="-92.95" y1="-22.05" x2="22.54" y2="93.43"/>
          <line class="cls-2" x1="-100.82" y1="-14.18" x2="14.66" y2="101.3"/>
          <line class="cls-2" x1="-98.2" y1="-16.81" x2="17.29" y2="98.68"/>
          <line class="cls-2" x1="-106.07" y1="-8.93" x2="9.42" y2="106.55"/>
          <line class="cls-2" x1="-103.44" y1="-11.56" x2="12.04" y2="103.93"/>
          <line class="cls-2" x1="-58.83" y1="-56.17" x2="56.65" y2="59.32"/>
          <line class="cls-2" x1="-64.08" y1="-50.92" x2="51.4" y2="64.56"/>
          <line class="cls-2" x1="-61.46" y1="-53.54" x2="54.03" y2="61.94"/>
          <line class="cls-2" x1="-69.33" y1="-45.67" x2="46.15" y2="69.81"/>
          <line class="cls-2" x1="-66.7" y1="-48.3" x2="48.78" y2="67.19"/>
          <line class="cls-2" x1="-74.58" y1="-40.42" x2="40.91" y2="75.06"/>
          <line class="cls-2" x1="-71.95" y1="-43.05" x2="43.53" y2="72.44"/>
        </g>
        <g>
          <line class="cls-2" x1="113.72" y1="-113.58" x2="229.2" y2="1.9"/>
          <line class="cls-2" x1="108.47" y1="-108.33" x2="223.96" y2="7.15"/>
          <line class="cls-2" x1="111.1" y1="-110.95" x2="226.58" y2="4.53"/>
          <line class="cls-2" x1="103.22" y1="-103.08" x2="218.71" y2="12.4"/>
          <line class="cls-2" x1="105.85" y1="-105.71" x2="221.33" y2="9.78"/>
          <line class="cls-2" x1="97.98" y1="-97.83" x2="213.46" y2="17.65"/>
          <line class="cls-2" x1="100.6" y1="-100.46" x2="216.08" y2="15.03"/>
          <line class="cls-2" x1="92.73" y1="-92.59" x2="208.21" y2="22.9"/>
          <line class="cls-2" x1="95.35" y1="-95.21" x2="210.84" y2="20.27"/>
          <line class="cls-2" x1="87.48" y1="-87.34" x2="202.96" y2="28.15"/>
          <line class="cls-2" x1="90.1" y1="-89.96" x2="205.59" y2="25.52"/>
          <line class="cls-2" x1="82.23" y1="-82.09" x2="197.71" y2="33.39"/>
          <line class="cls-2" x1="84.86" y1="-84.71" x2="200.34" y2="30.77"/>
          <line class="cls-2" x1="76.98" y1="-76.84" x2="192.47" y2="38.64"/>
          <line class="cls-2" x1="79.61" y1="-79.46" x2="195.09" y2="36.02"/>
          <line class="cls-2" x1="71.73" y1="-71.59" x2="187.22" y2="43.89"/>
          <line class="cls-2" x1="74.36" y1="-74.22" x2="189.84" y2="41.27"/>
          <line class="cls-2" x1="66.49" y1="-66.34" x2="181.97" y2="49.14"/>
          <line class="cls-2" x1="69.11" y1="-68.97" x2="184.59" y2="46.52"/>
          <line class="cls-2" x1="61.24" y1="-61.1" x2="176.72" y2="54.39"/>
          <line class="cls-2" x1="63.86" y1="-63.72" x2="179.35" y2="51.76"/>
          <line class="cls-2" x1="58.61" y1="-58.47" x2="174.1" y2="57.01"/>
        </g>
        <g>
          <line class="cls-2" x1="-1.42" y1="-113.58" x2="114.06" y2="1.9"/>
          <line class="cls-2" x1="-6.67" y1="-108.33" x2="108.81" y2="7.15"/>
          <line class="cls-2" x1="-4.05" y1="-110.95" x2="111.44" y2="4.53"/>
          <line class="cls-2" x1="-11.92" y1="-103.08" x2="103.57" y2="12.4"/>
          <line class="cls-2" x1="-9.29" y1="-105.71" x2="106.19" y2="9.78"/>
          <line class="cls-2" x1="-17.17" y1="-97.83" x2="98.32" y2="17.65"/>
          <line class="cls-2" x1="-14.54" y1="-100.46" x2="100.94" y2="15.03"/>
          <line class="cls-2" x1="-22.41" y1="-92.59" x2="93.07" y2="22.9"/>
          <line class="cls-2" x1="-19.79" y1="-95.21" x2="95.69" y2="20.27"/>
          <line class="cls-2" x1="-27.66" y1="-87.34" x2="87.82" y2="28.15"/>
          <line class="cls-2" x1="-25.04" y1="-89.96" x2="90.44" y2="25.52"/>
          <line class="cls-2" x1="-32.91" y1="-82.09" x2="82.57" y2="33.39"/>
          <line class="cls-2" x1="-30.29" y1="-84.71" x2="85.2" y2="30.77"/>
          <line class="cls-2" x1="-38.16" y1="-76.84" x2="77.32" y2="38.64"/>
          <line class="cls-2" x1="-35.54" y1="-79.46" x2="79.95" y2="36.02"/>
          <line class="cls-2" x1="-43.41" y1="-71.59" x2="72.08" y2="43.89"/>
          <line class="cls-2" x1="-40.78" y1="-74.22" x2="74.7" y2="41.27"/>
          <line class="cls-2" x1="-48.66" y1="-66.34" x2="66.83" y2="49.14"/>
          <line class="cls-2" x1="-46.03" y1="-68.97" x2="69.45" y2="46.52"/>
          <line class="cls-2" x1="-53.9" y1="-61.1" x2="61.58" y2="54.39"/>
          <line class="cls-2" x1="-51.28" y1="-63.72" x2="64.2" y2="51.76"/>
          <line class="cls-2" x1="-56.53" y1="-58.47" x2="58.95" y2="57.01"/>
        </g>
      </g>
    </pattern>
    <pattern id="diagonal_lines_blue_grey" data-name="diagonal lines blue grey" x="0" y="0" width="115.14" height="115.14" patternTransform="translate(469.85 -409.53)" patternUnits="userSpaceOnUse" viewBox="0 0 115.14 115.14">
      <g>
        <rect class="cls-1" y="0" width="115.14" height="115.14"/>
        <g>
          <line class="cls-2" x1="3.83" y1="111.46" x2="119.31" y2="226.94"/>
          <line class="cls-2" x1="6.45" y1="108.83" x2="121.93" y2="224.32"/>
          <line class="cls-2" x1="1.2" y1="114.08" x2="116.69" y2="229.57"/>
          <line class="cls-2" x1="35.32" y1="79.97" x2="150.8" y2="195.45"/>
          <line class="cls-2" x1="37.94" y1="77.34" x2="153.42" y2="192.83"/>
          <line class="cls-2" x1="30.07" y1="85.22" x2="145.55" y2="200.7"/>
          <line class="cls-2" x1="32.69" y1="82.59" x2="148.18" y2="198.08"/>
          <line class="cls-2" x1="24.82" y1="90.47" x2="140.3" y2="205.95"/>
          <line class="cls-2" x1="27.44" y1="87.84" x2="142.93" y2="203.32"/>
          <line class="cls-2" x1="19.57" y1="95.71" x2="135.06" y2="211.2"/>
          <line class="cls-2" x1="22.2" y1="93.09" x2="137.68" y2="208.57"/>
          <line class="cls-2" x1="14.32" y1="100.96" x2="129.81" y2="216.45"/>
          <line class="cls-2" x1="16.95" y1="98.34" x2="132.43" y2="213.82"/>
          <line class="cls-2" x1="9.08" y1="106.21" x2="124.56" y2="221.69"/>
          <line class="cls-2" x1="11.7" y1="103.59" x2="127.18" y2="219.07"/>
          <line class="cls-2" x1="56.31" y1="58.98" x2="171.79" y2="174.46"/>
          <line class="cls-2" x1="51.06" y1="64.22" x2="166.55" y2="179.71"/>
          <line class="cls-2" x1="53.69" y1="61.6" x2="169.17" y2="177.08"/>
          <line class="cls-2" x1="45.81" y1="69.47" x2="161.3" y2="184.95"/>
          <line class="cls-2" x1="48.44" y1="66.85" x2="163.92" y2="182.33"/>
          <line class="cls-2" x1="40.57" y1="74.72" x2="156.05" y2="190.2"/>
          <line class="cls-2" x1="43.19" y1="72.1" x2="158.67" y2="187.58"/>
        </g>
        <g>
          <line class="cls-2" x1="-111.32" y1="111.46" x2="4.17" y2="226.94"/>
          <line class="cls-2" x1="-108.69" y1="108.83" x2="6.79" y2="224.32"/>
          <line class="cls-2" x1="-113.94" y1="114.08" x2="1.54" y2="229.57"/>
          <line class="cls-2" x1="-79.83" y1="79.97" x2="35.66" y2="195.45"/>
          <line class="cls-2" x1="-77.2" y1="77.34" x2="38.28" y2="192.83"/>
          <line class="cls-2" x1="-85.07" y1="85.22" x2="30.41" y2="200.7"/>
          <line class="cls-2" x1="-82.45" y1="82.59" x2="33.03" y2="198.08"/>
          <line class="cls-2" x1="-90.32" y1="90.47" x2="25.16" y2="205.95"/>
          <line class="cls-2" x1="-87.7" y1="87.84" x2="27.78" y2="203.32"/>
          <line class="cls-2" x1="-95.57" y1="95.71" x2="19.91" y2="211.2"/>
          <line class="cls-2" x1="-92.95" y1="93.09" x2="22.54" y2="208.57"/>
          <line class="cls-2" x1="-100.82" y1="100.96" x2="14.66" y2="216.45"/>
          <line class="cls-2" x1="-98.2" y1="98.34" x2="17.29" y2="213.82"/>
          <line class="cls-2" x1="-106.07" y1="106.21" x2="9.42" y2="221.69"/>
          <line class="cls-2" x1="-103.44" y1="103.59" x2="12.04" y2="219.07"/>
          <line class="cls-2" x1="-58.83" y1="58.98" x2="56.65" y2="174.46"/>
          <line class="cls-2" x1="-64.08" y1="64.22" x2="51.4" y2="179.71"/>
          <line class="cls-2" x1="-61.46" y1="61.6" x2="54.03" y2="177.08"/>
          <line class="cls-2" x1="-69.33" y1="69.47" x2="46.15" y2="184.95"/>
          <line class="cls-2" x1="-66.7" y1="66.85" x2="48.78" y2="182.33"/>
          <line class="cls-2" x1="-74.58" y1="74.72" x2="40.91" y2="190.2"/>
          <line class="cls-2" x1="-71.95" y1="72.1" x2="43.53" y2="187.58"/>
        </g>
        <g>
          <line class="cls-2" x1="113.72" y1="1.56" x2="229.2" y2="117.05"/>
          <line class="cls-2" x1="108.47" y1="6.81" x2="223.96" y2="122.3"/>
          <line class="cls-2" x1="111.1" y1="4.19" x2="226.58" y2="119.67"/>
          <line class="cls-2" x1="103.22" y1="12.06" x2="218.71" y2="127.54"/>
          <line class="cls-2" x1="105.85" y1="9.44" x2="221.33" y2="124.92"/>
          <line class="cls-2" x1="97.98" y1="17.31" x2="213.46" y2="132.79"/>
          <line class="cls-2" x1="100.6" y1="14.68" x2="216.08" y2="130.17"/>
          <line class="cls-2" x1="92.73" y1="22.56" x2="208.21" y2="138.04"/>
          <line class="cls-2" x1="95.35" y1="19.93" x2="210.84" y2="135.42"/>
          <line class="cls-2" x1="87.48" y1="27.81" x2="202.96" y2="143.29"/>
          <line class="cls-2" x1="90.1" y1="25.18" x2="205.59" y2="140.66"/>
          <line class="cls-2" x1="82.23" y1="33.05" x2="197.71" y2="148.54"/>
          <line class="cls-2" x1="84.86" y1="30.43" x2="200.34" y2="145.91"/>
          <line class="cls-2" x1="76.98" y1="38.3" x2="192.47" y2="153.79"/>
          <line class="cls-2" x1="79.61" y1="35.68" x2="195.09" y2="151.16"/>
          <line class="cls-2" x1="71.73" y1="43.55" x2="187.22" y2="159.03"/>
          <line class="cls-2" x1="74.36" y1="40.93" x2="189.84" y2="156.41"/>
          <line class="cls-2" x1="66.49" y1="48.8" x2="181.97" y2="164.28"/>
          <line class="cls-2" x1="69.11" y1="46.17" x2="184.59" y2="161.66"/>
          <line class="cls-2" x1="61.24" y1="54.05" x2="176.72" y2="169.53"/>
          <line class="cls-2" x1="63.86" y1="51.42" x2="179.35" y2="166.91"/>
          <line class="cls-2" x1="58.61" y1="56.67" x2="174.1" y2="172.15"/>
        </g>
        <g>
          <line class="cls-2" x1="3.83" y1="-3.68" x2="119.31" y2="111.8"/>
          <line class="cls-2" x1="6.45" y1="-6.31" x2="121.93" y2="109.17"/>
          <line class="cls-2" x1="-1.42" y1="1.56" x2="114.06" y2="117.05"/>
          <line class="cls-2" x1="1.2" y1="-1.06" x2="116.69" y2="114.42"/>
          <line class="cls-2" x1="-6.67" y1="6.81" x2="108.81" y2="122.3"/>
          <line class="cls-2" x1="-4.05" y1="4.19" x2="111.44" y2="119.67"/>
          <line class="cls-2" x1="-11.92" y1="12.06" x2="103.57" y2="127.54"/>
          <line class="cls-2" x1="-9.29" y1="9.44" x2="106.19" y2="124.92"/>
          <line class="cls-2" x1="-17.17" y1="17.31" x2="98.32" y2="132.79"/>
          <line class="cls-2" x1="-14.54" y1="14.68" x2="100.94" y2="130.17"/>
          <line class="cls-2" x1="-22.41" y1="22.56" x2="93.07" y2="138.04"/>
          <line class="cls-2" x1="-19.79" y1="19.93" x2="95.69" y2="135.42"/>
          <line class="cls-2" x1="-27.66" y1="27.81" x2="87.82" y2="143.29"/>
          <line class="cls-2" x1="-25.04" y1="25.18" x2="90.44" y2="140.66"/>
          <line class="cls-2" x1="-32.91" y1="33.05" x2="82.57" y2="148.54"/>
          <line class="cls-2" x1="-30.29" y1="30.43" x2="85.2" y2="145.91"/>
          <line class="cls-2" x1="-38.16" y1="38.3" x2="77.32" y2="153.79"/>
          <line class="cls-2" x1="-35.54" y1="35.68" x2="79.95" y2="151.16"/>
          <line class="cls-2" x1="-43.41" y1="43.55" x2="72.08" y2="159.03"/>
          <line class="cls-2" x1="-40.78" y1="40.93" x2="74.7" y2="156.41"/>
          <line class="cls-2" x1="-48.66" y1="48.8" x2="66.83" y2="164.28"/>
          <line class="cls-2" x1="-46.03" y1="46.17" x2="69.45" y2="161.66"/>
          <line class="cls-2" x1="-53.9" y1="54.05" x2="61.58" y2="169.53"/>
          <line class="cls-2" x1="-51.28" y1="51.42" x2="64.2" y2="166.91"/>
          <line class="cls-2" x1="35.32" y1="-35.17" x2="150.8" y2="80.31"/>
          <line class="cls-2" x1="37.94" y1="-37.8" x2="153.42" y2="77.68"/>
          <line class="cls-2" x1="30.07" y1="-29.93" x2="145.55" y2="85.56"/>
          <line class="cls-2" x1="32.69" y1="-32.55" x2="148.18" y2="82.93"/>
          <line class="cls-2" x1="24.82" y1="-24.68" x2="140.3" y2="90.81"/>
          <line class="cls-2" x1="27.44" y1="-27.3" x2="142.93" y2="88.18"/>
          <line class="cls-2" x1="19.57" y1="-19.43" x2="135.06" y2="96.05"/>
          <line class="cls-2" x1="22.2" y1="-22.05" x2="137.68" y2="93.43"/>
          <line class="cls-2" x1="14.32" y1="-14.18" x2="129.81" y2="101.3"/>
          <line class="cls-2" x1="16.95" y1="-16.81" x2="132.43" y2="98.68"/>
          <line class="cls-2" x1="9.08" y1="-8.93" x2="124.56" y2="106.55"/>
          <line class="cls-2" x1="11.7" y1="-11.56" x2="127.18" y2="103.93"/>
          <line class="cls-2" x1="56.31" y1="-56.17" x2="171.79" y2="59.32"/>
          <line class="cls-2" x1="51.06" y1="-50.92" x2="166.55" y2="64.56"/>
          <line class="cls-2" x1="53.69" y1="-53.54" x2="169.17" y2="61.94"/>
          <line class="cls-2" x1="45.81" y1="-45.67" x2="161.3" y2="69.81"/>
          <line class="cls-2" x1="48.44" y1="-48.3" x2="163.92" y2="67.19"/>
          <line class="cls-2" x1="40.57" y1="-40.42" x2="156.05" y2="75.06"/>
          <line class="cls-2" x1="43.19" y1="-43.05" x2="158.67" y2="72.44"/>
          <line class="cls-2" x1="-56.53" y1="56.67" x2="58.95" y2="172.15"/>
        </g>
        <g>
          <line class="cls-2" x1="-111.32" y1="-3.68" x2="4.17" y2="111.8"/>
          <line class="cls-2" x1="-108.69" y1="-6.31" x2="6.79" y2="109.17"/>
          <line class="cls-2" x1="-113.94" y1="-1.06" x2="1.54" y2="114.42"/>
          <line class="cls-2" x1="-79.83" y1="-35.17" x2="35.66" y2="80.31"/>
          <line class="cls-2" x1="-77.2" y1="-37.8" x2="38.28" y2="77.68"/>
          <line class="cls-2" x1="-85.07" y1="-29.93" x2="30.41" y2="85.56"/>
          <line class="cls-2" x1="-82.45" y1="-32.55" x2="33.03" y2="82.93"/>
          <line class="cls-2" x1="-90.32" y1="-24.68" x2="25.16" y2="90.81"/>
          <line class="cls-2" x1="-87.7" y1="-27.3" x2="27.78" y2="88.18"/>
          <line class="cls-2" x1="-95.57" y1="-19.43" x2="19.91" y2="96.05"/>
          <line class="cls-2" x1="-92.95" y1="-22.05" x2="22.54" y2="93.43"/>
          <line class="cls-2" x1="-100.82" y1="-14.18" x2="14.66" y2="101.3"/>
          <line class="cls-2" x1="-98.2" y1="-16.81" x2="17.29" y2="98.68"/>
          <line class="cls-2" x1="-106.07" y1="-8.93" x2="9.42" y2="106.55"/>
          <line class="cls-2" x1="-103.44" y1="-11.56" x2="12.04" y2="103.93"/>
          <line class="cls-2" x1="-58.83" y1="-56.17" x2="56.65" y2="59.32"/>
          <line class="cls-2" x1="-64.08" y1="-50.92" x2="51.4" y2="64.56"/>
          <line class="cls-2" x1="-61.46" y1="-53.54" x2="54.03" y2="61.94"/>
          <line class="cls-2" x1="-69.33" y1="-45.67" x2="46.15" y2="69.81"/>
          <line class="cls-2" x1="-66.7" y1="-48.3" x2="48.78" y2="67.19"/>
          <line class="cls-2" x1="-74.58" y1="-40.42" x2="40.91" y2="75.06"/>
          <line class="cls-2" x1="-71.95" y1="-43.05" x2="43.53" y2="72.44"/>
        </g>
        <g>
          <line class="cls-2" x1="113.72" y1="-113.58" x2="229.2" y2="1.9"/>
          <line class="cls-2" x1="108.47" y1="-108.33" x2="223.96" y2="7.15"/>
          <line class="cls-2" x1="111.1" y1="-110.95" x2="226.58" y2="4.53"/>
          <line class="cls-2" x1="103.22" y1="-103.08" x2="218.71" y2="12.4"/>
          <line class="cls-2" x1="105.85" y1="-105.71" x2="221.33" y2="9.78"/>
          <line class="cls-2" x1="97.98" y1="-97.83" x2="213.46" y2="17.65"/>
          <line class="cls-2" x1="100.6" y1="-100.46" x2="216.08" y2="15.03"/>
          <line class="cls-2" x1="92.73" y1="-92.59" x2="208.21" y2="22.9"/>
          <line class="cls-2" x1="95.35" y1="-95.21" x2="210.84" y2="20.27"/>
          <line class="cls-2" x1="87.48" y1="-87.34" x2="202.96" y2="28.15"/>
          <line class="cls-2" x1="90.1" y1="-89.96" x2="205.59" y2="25.52"/>
          <line class="cls-2" x1="82.23" y1="-82.09" x2="197.71" y2="33.39"/>
          <line class="cls-2" x1="84.86" y1="-84.71" x2="200.34" y2="30.77"/>
          <line class="cls-2" x1="76.98" y1="-76.84" x2="192.47" y2="38.64"/>
          <line class="cls-2" x1="79.61" y1="-79.46" x2="195.09" y2="36.02"/>
          <line class="cls-2" x1="71.73" y1="-71.59" x2="187.22" y2="43.89"/>
          <line class="cls-2" x1="74.36" y1="-74.22" x2="189.84" y2="41.27"/>
          <line class="cls-2" x1="66.49" y1="-66.34" x2="181.97" y2="49.14"/>
          <line class="cls-2" x1="69.11" y1="-68.97" x2="184.59" y2="46.52"/>
          <line class="cls-2" x1="61.24" y1="-61.1" x2="176.72" y2="54.39"/>
          <line class="cls-2" x1="63.86" y1="-63.72" x2="179.35" y2="51.76"/>
          <line class="cls-2" x1="58.61" y1="-58.47" x2="174.1" y2="57.01"/>
        </g>
        <g>
          <line class="cls-2" x1="-1.42" y1="-113.58" x2="114.06" y2="1.9"/>
          <line class="cls-2" x1="-6.67" y1="-108.33" x2="108.81" y2="7.15"/>
          <line class="cls-2" x1="-4.05" y1="-110.95" x2="111.44" y2="4.53"/>
          <line class="cls-2" x1="-11.92" y1="-103.08" x2="103.57" y2="12.4"/>
          <line class="cls-2" x1="-9.29" y1="-105.71" x2="106.19" y2="9.78"/>
          <line class="cls-2" x1="-17.17" y1="-97.83" x2="98.32" y2="17.65"/>
          <line class="cls-2" x1="-14.54" y1="-100.46" x2="100.94" y2="15.03"/>
          <line class="cls-2" x1="-22.41" y1="-92.59" x2="93.07" y2="22.9"/>
          <line class="cls-2" x1="-19.79" y1="-95.21" x2="95.69" y2="20.27"/>
          <line class="cls-2" x1="-27.66" y1="-87.34" x2="87.82" y2="28.15"/>
          <line class="cls-2" x1="-25.04" y1="-89.96" x2="90.44" y2="25.52"/>
          <line class="cls-2" x1="-32.91" y1="-82.09" x2="82.57" y2="33.39"/>
          <line class="cls-2" x1="-30.29" y1="-84.71" x2="85.2" y2="30.77"/>
          <line class="cls-2" x1="-38.16" y1="-76.84" x2="77.32" y2="38.64"/>
          <line class="cls-2" x1="-35.54" y1="-79.46" x2="79.95" y2="36.02"/>
          <line class="cls-2" x1="-43.41" y1="-71.59" x2="72.08" y2="43.89"/>
          <line class="cls-2" x1="-40.78" y1="-74.22" x2="74.7" y2="41.27"/>
          <line class="cls-2" x1="-48.66" y1="-66.34" x2="66.83" y2="49.14"/>
          <line class="cls-2" x1="-46.03" y1="-68.97" x2="69.45" y2="46.52"/>
          <line class="cls-2" x1="-53.9" y1="-61.1" x2="61.58" y2="54.39"/>
          <line class="cls-2" x1="-51.28" y1="-63.72" x2="64.2" y2="51.76"/>
          <line class="cls-2" x1="-56.53" y1="-58.47" x2="58.95" y2="57.01"/>
        </g>
      </g>
    </pattern>
  </defs>
  <g id="First_Floor" data-name="First Floor">
    <rect class="cls-9" x="0" y="0" width="1224" height="792"/>
  </g>
  <g id="Second_Floor" data-name="Second Floor">
    <rect id="Floor2-249F" class="cls-1" x="316.26" y="477.77" width="25.72" height="14.55"/>
    <rect id="Floor2-249I" class="cls-1" x="341.88" y="477.77" width="25.72" height="14.55"/>
    <rect id="Floor2-249G" class="cls-1" x="316.26" y="492.27" width="25.72" height="14.55"/>
    <rect id="Floor2-249J" class="cls-1" x="341.88" y="492.27" width="25.72" height="14.55"/>
    <rect id="Floor2-249H" class="cls-1" x="316.26" y="507.13" width="25.72" height="14.55"/>
    <rect id="Floor2-249K" class="cls-1" x="382.48" y="478.24" width="25.72" height="14.55"/>
    <rect id="Floor2-249N" class="cls-1" x="408.1" y="478.24" width="25.72" height="14.55"/>
    <rect id="Floor2-249L" class="cls-1" x="382.48" y="492.74" width="25.72" height="14.55"/>
    <rect id="Floor2-249O" class="cls-1" x="408.1" y="492.74" width="25.72" height="14.55"/>
    <rect id="Floor2-249M" class="cls-1" x="382.48" y="507.6" width="25.72" height="14.55"/>
    <rect id="Floor2-268C" class="cls-1" x="315.58" y="182.37" width="25.72" height="14.55"/>
    <rect id="Floor2-268A" class="cls-1" x="289.97" y="196.87" width="25.72" height="14.55"/>
    <rect id="Floor2-268D" class="cls-1" x="315.58" y="196.87" width="25.72" height="14.55"/>
    <rect id="Floor2-268E" class="cls-1" x="315.58" y="211.73" width="25.72" height="14.55"/>
    <rect id="Floor2-268F" class="cls-1" x="359.47" y="181.44" width="25.72" height="14.55"/>
    <rect id="Floor2-216" class="cls-1" x="1036" y="242.67" width="57.33" height="57.37" transform="translate(60.89 -175.38) rotate(9.69)"/>
    <rect id="Floor2-235" class="cls-1" x="898.04" y="448.23" width="34.95" height="46.12" transform="translate(89.34 -143.29) rotate(9.41)"/>
    <rect id="Floor2-222L" class="cls-1" x="1018.86" y="495.92" width="25.72" height="14.55" transform="translate(109.15 -179.83) rotate(10.52)"/>
    <rect id="Floor2-236" class="cls-4" x="843.34" y="439.57" width="55.67" height="46.12" transform="translate(87.65 -136.59) rotate(9.44)"/>
    <rect id="Floor2-211" class="cls-1" x="818.18" y="299.4" width="38.82" height="45.69" transform="translate(68.69 -140.57) rotate(10)"/>
    <rect id="Floor2-214" class="cls-1" x="857.17" y="305.74" width="38.82" height="45.69" transform="translate(70.39 -147.24) rotate(10)"/>
    <rect id="Floor2-220" class="cls-1" x="949.54" y="362.63" width="47.09" height="38.08" transform="translate(81.64 -164.12) rotate(10.06)"/>
    <rect id="Floor2-226" class="cls-1" x="1071.4" y="437.6" width="48.91" height="38.08" transform="translate(104.59 -196.66) rotate(10.77)"/>
    <rect id="Floor2-230" class="cls-1" x="1056.46" y="514.47" width="50.08" height="47.52" transform="translate(121.45 -195) rotate(10.91)"/>
    <rect id="Floor2-224" class="cls-1" x="1077.49" y="398.99" width="50.08" height="38.49" transform="translate(99.11 -201.15) rotate(10.91)"/>
    <rect id="Floor2-219" class="cls-1" x="1084.21" y="360.74" width="50.08" height="38.49" transform="translate(91.99 -203.12) rotate(10.91)"/>
    <rect id="Floor2-232" class="cls-1" x="944.11" y="540.61" width="37.16" height="57.76" transform="translate(112.8 -157.68) rotate(9.94)"/>
    <rect id="Floor2-240" class="cls-1" x="676.14" y="496.44" width="76.08" height="57.76" transform="translate(101.44 -115.43) rotate(9.94)"/>
    <rect id="Floor2-235J" class="cls-1" x="848.49" y="539.5" width="25.72" height="14.55" transform="translate(114.25 -148.01) rotate(10.52)"/>
    <rect id="Floor2-235H" class="cls-1" x="820.6" y="549.44" width="25.72" height="14.55" transform="translate(115.59 -142.75) rotate(10.52)"/>
    <rect id="Floor2-235K" class="cls-1" x="845.78" y="554.11" width="25.72" height="14.55" transform="translate(116.87 -147.27) rotate(10.52)"/>
    <rect id="Floor2-276" class="cls-1" x="458.16" y="165.08" width="77.45" height="60.01"/>
    <rect id="Floor2-274" class="cls-1" x="419.46" y="164.78" width="38.41" height="60.01"/>
    <rect id="Floor2-265" class="cls-1" x="168.99" y="164.57" width="75.33" height="60.01"/>
    <rect id="Floor2-209" class="cls-1" x="729.36" y="189.54" width="76.62" height="58.14" transform="translate(49.35 -129.42) rotate(9.95)"/>
    <rect id="Floor2-215" class="cls-1" x="997.62" y="234.6" width="38.82" height="57.37" transform="translate(58.85 -167.47) rotate(9.69)"/>
    <rect id="Floor2-218" class="cls-1" x="956.48" y="324.48" width="47.09" height="38.08" transform="translate(75.08 -165.92) rotate(10.06)"/>
    <rect id="Floor2-210" class="cls-1" x="805.75" y="201.88" width="59.97" height="59.58" transform="translate(54.3 -144.47) rotate(10.21)"/>
    <rect id="Floor2-238" class="cls-1" x="808.91" y="431.66" width="34.95" height="46.12" transform="translate(85.43 -128.95) rotate(9.41)"/>
    <rect id="Floor2-231" class="cls-1" x="980.7" y="548.34" width="58.69" height="57.76" transform="translate(114.84 -165.74) rotate(9.94)"/>
    <rect id="Floor2-228" class="cls-1" x="1064.15" y="475.67" width="50.08" height="38.49" transform="translate(113.38 -197.24) rotate(10.91)"/>
    <rect id="Floor2-263" class="cls-1" x="108.14" y="268.72" width="50.69" height="40.13"/>
    <rect id="Floor2-266" class="cls-1" x="245.17" y="164.27" width="38.41" height="60.01"/>
    <rect id="Floor2-256" class="cls-1" x="108.05" y="391.55" width="50.37" height="41.36"/>
    <rect id="Floor2-255" class="cls-1" x="108.32" y="433.18" width="50.37" height="45.34"/>
    <rect id="Floor2-254" class="cls-1" x="166.64" y="477.19" width="40.3" height="59.12"/>
    <rect id="Floor2-253" class="cls-1" x="206.42" y="476.79" width="37.38" height="59.12"/>
    <rect id="Floor2-245" class="cls-1" x="438.52" y="477.85" width="40.3" height="59.12"/>
    <polygon id="Floor2-243" class="cls-1" points="536.42 536.71 477.56 536.97 477.56 477.85 535.5 477.84 536.42 536.71"/>
    <rect id="Floor2-252" class="cls-1" x="244.85" y="392.44" width="45.08" height="48.78"/>
    <rect id="Floor2-251" class="cls-1" x="289.07" y="392.83" width="41.55" height="48.78"/>
    <rect id="Floor2-250" class="cls-1" x="329.99" y="392.83" width="42.63" height="48.78"/>
    <rect id="Floor2-273" class="cls-1" x="394.74" y="260.96" width="36.42" height="47.2"/>
    <rect id="Floor2-275" class="cls-1" x="431.57" y="261.34" width="38.73" height="47.2"/>
    <rect id="Floor2-247" class="cls-1" x="394.45" y="395.39" width="37.46" height="46.44"/>
    <rect id="Floor2-244" class="cls-1" x="471.06" y="395.68" width="46.37" height="45.86"/>
    <rect id="Floor2-258A" class="cls-1" x="175.89" y="267.96" width="25.72" height="14.55"/>
    <rect id="Floor2-258D" class="cls-1" x="201.5" y="267.96" width="25.72" height="14.55"/>
    <rect id="Floor2-258B" class="cls-1" x="175.89" y="282.45" width="25.72" height="14.55"/>
    <rect id="Floor2-258E" class="cls-1" x="201.5" y="282.45" width="25.72" height="14.55"/>
    <rect id="Floor2-258C" class="cls-1" x="175.89" y="297.31" width="25.72" height="14.55"/>
    <rect id="Floor2-258F" class="cls-1" x="201.5" y="297.31" width="25.72" height="14.55"/>
    <rect id="Floor2-258G" class="cls-1" x="175.91" y="395.2" width="25.72" height="14.55"/>
    <rect id="Floor2-258J" class="cls-1" x="201.52" y="395.2" width="25.72" height="14.55"/>
    <rect id="Floor2-258H" class="cls-1" x="175.91" y="409.7" width="25.72" height="14.55"/>
    <rect id="Floor2-258K" class="cls-1" x="201.52" y="409.7" width="25.72" height="14.55"/>
    <rect id="Floor2-258I" class="cls-1" x="175.91" y="424.56" width="25.72" height="14.55"/>
    <rect id="Floor2-258L" class="cls-1" x="201.52" y="424.56" width="25.72" height="14.55"/>
    <rect id="Floor2-262" class="cls-1" x="244.6" y="260.93" width="45.08" height="47.2"/>
    <rect id="Floor2-267" class="cls-1" x="288.69" y="261.34" width="42.12" height="47.2"/>
    <rect id="Floor2-246" class="cls-1" x="432.29" y="395.58" width="38.58" height="46.05"/>
    <rect id="Floor2-249A" class="cls-1" x="250.52" y="477.3" width="25.72" height="14.55"/>
    <rect id="Floor2-249D" class="cls-1" x="276.13" y="477.3" width="25.72" height="14.55"/>
    <rect id="Floor2-249B" class="cls-1" x="250.52" y="491.8" width="25.72" height="14.55"/>
    <rect id="Floor2-249E" class="cls-1" x="276.13" y="491.8" width="25.72" height="14.55"/>
    <rect id="Floor2-249C" class="cls-1" x="250.52" y="506.66" width="25.72" height="14.55"/>
    <rect id="Floor2-268G" class="cls-1" x="359.47" y="195.93" width="25.72" height="14.55"/>
    <rect id="Floor2-268I" class="cls-1" x="385.08" y="195.93" width="25.72" height="14.55"/>
    <rect id="Floor2-268H" class="cls-1" x="359.47" y="210.79" width="25.72" height="14.55"/>
    <rect id="Floor2-268J" class="cls-1" x="385.08" y="210.79" width="25.72" height="14.55"/>
    <rect id="Floor2-222K" class="cls-1" x="1021.57" y="481.5" width="25.72" height="14.55" transform="translate(106.57 -180.57) rotate(10.52)"/>
    <rect id="Floor2-222I" class="cls-1" x="993.41" y="491.51" width="25.72" height="14.55" transform="translate(107.92 -175.26) rotate(10.52)"/>
    <rect id="Floor2-212K" class="cls-1" x="958.47" y="269.59" width="25.72" height="14.55" transform="translate(66.84 -172.61) rotate(10.52)"/>
    <rect id="Floor2-225" class="cls-1" x="941.98" y="400.87" width="47.09" height="38.08" transform="translate(88.2 -162.21) rotate(10.06)"/>
    <rect id="Floor2-222A" class="cls-1" x="1020.5" y="337.03" width="25.72" height="14.55" transform="translate(80.19 -182.8) rotate(10.52)"/>
    <rect id="Floor2-222D" class="cls-1" x="1045.68" y="341.71" width="25.72" height="14.55" transform="translate(81.46 -187.32) rotate(10.52)"/>
    <rect id="Floor2-222B" class="cls-1" x="1017.85" y="351.28" width="25.72" height="14.55" transform="translate(82.74 -182.08) rotate(10.52)"/>
    <rect id="Floor2-222E" class="cls-1" x="1043.04" y="355.96" width="25.72" height="14.55" transform="translate(84.02 -186.59) rotate(10.52)"/>
    <rect id="Floor2-222C" class="cls-9" x="1015.14" y="365.9" width="25.72" height="14.55" transform="translate(85.36 -181.34) rotate(10.52)"/>
    <rect id="Floor2-222F" class="cls-1" x="1040.32" y="370.57" width="25.72" height="14.55" transform="translate(86.64 -185.85) rotate(10.52)"/>
    <rect id="Floor2-222G" class="cls-1" x="998.22" y="463.11" width="25.72" height="14.55" transform="translate(102.82 -176.62) rotate(10.52)"/>
    <rect id="Floor2-222J" class="cls-1" x="1023.41" y="467.79" width="25.72" height="14.55" transform="translate(104.1 -181.13) rotate(10.52)"/>
    <rect id="Floor2-222H" class="cls-1" x="995.58" y="477.36" width="25.72" height="14.55" transform="translate(105.38 -175.9) rotate(10.52)"/>
    <rect id="Floor2-212H" class="cls-1" x="936" y="250.3" width="25.72" height="14.55" transform="translate(62.94 -168.84) rotate(10.52)"/>
    <rect id="Floor2-212J" class="cls-1" x="961.18" y="254.98" width="25.72" height="14.55" transform="translate(64.22 -173.35) rotate(10.52)"/>
    <rect id="Floor2-212I" class="cls-1" x="933.29" y="264.91" width="25.72" height="14.55" transform="translate(65.56 -168.1) rotate(10.52)"/>
    <rect id="Floor2-235L" class="cls-1" x="890.51" y="532.2" width="25.72" height="14.55" transform="translate(113.62 -155.8) rotate(10.52)"/>
    <rect id="Floor2-235O" class="cls-1" x="915.69" y="536.87" width="25.72" height="14.55" transform="translate(114.9 -160.32) rotate(10.52)"/>
    <rect id="Floor2-235M" class="cls-1" x="887.87" y="546.45" width="25.72" height="14.55" transform="translate(116.18 -155.08) rotate(10.52)"/>
    <rect id="Floor2-235P" class="cls-1" x="913.05" y="551.12" width="25.72" height="14.55" transform="translate(117.45 -159.6) rotate(10.52)"/>
    <rect id="Floor2-235N" class="cls-1" x="885.15" y="561.06" width="25.72" height="14.55" transform="translate(118.8 -154.34) rotate(10.52)"/>
    <rect id="Floor2-212A" class="cls-1" x="876.96" y="224.73" width="25.72" height="14.55" transform="translate(57.28 -158.49) rotate(10.52)"/>
    <rect id="Floor2-212D" class="cls-1" x="902.14" y="229.41" width="25.72" height="14.55" transform="translate(58.56 -163.01) rotate(10.52)"/>
    <rect id="Floor2-212B" class="cls-1" x="874.31" y="238.98" width="25.72" height="14.55" transform="translate(59.84 -157.77) rotate(10.52)"/>
    <rect id="Floor2-212E" class="cls-1" x="899.49" y="243.66" width="25.72" height="14.55" transform="translate(61.11 -162.29) rotate(10.52)"/>
    <rect id="Floor2-212C" class="cls-1" x="871.6" y="253.6" width="25.72" height="14.55" transform="translate(62.46 -157.03) rotate(10.52)"/>
    <rect id="Floor2-212F" class="cls-1" x="896.78" y="258.27" width="25.72" height="14.55" transform="translate(63.74 -161.55) rotate(10.52)"/>
    <rect id="Floor2-212G" class="cls-1" x="938.64" y="236.05" width="25.72" height="14.55" transform="translate(60.38 -169.56) rotate(10.52)"/>
    <rect id="Floor2-235A" class="cls-1" x="761.01" y="507.96" width="25.72" height="14.55" transform="translate(107.02 -132.57) rotate(10.52)"/>
    <rect id="Floor2-235D" class="cls-1" x="786.19" y="512.64" width="25.72" height="14.55" transform="translate(108.3 -137.09) rotate(10.52)"/>
    <rect id="Floor2-235B" class="cls-4" x="758.36" y="522.21" width="25.72" height="14.55" transform="translate(109.58 -131.85) rotate(10.52)"/>
    <rect id="Floor2-235E" class="cls-1" x="783.54" y="526.88" width="25.72" height="14.55" transform="translate(110.85 -136.37) rotate(10.52)"/>
    <rect id="Floor2-235C" class="cls-1" x="755.65" y="536.82" width="25.72" height="14.55" transform="translate(112.2 -131.11) rotate(10.52)"/>
    <rect id="Floor2-235F" class="cls-1" x="825.96" y="520.58" width="25.72" height="14.55" transform="translate(110.42 -144.21) rotate(10.52)"/>
    <rect id="Floor2-235I" class="cls-1" x="851.14" y="525.25" width="25.72" height="14.55" transform="translate(111.69 -148.73) rotate(10.52)"/>
    <rect id="Floor2-235G" class="cls-1" x="823.31" y="534.83" width="25.72" height="14.55" transform="translate(112.97 -143.49) rotate(10.52)"/>
    <rect id="Floor2-268B" class="cls-1" x="289.97" y="211.73" width="25.72" height="14.55"/>
    <line class="cls-3" x1="283.63" y1="239.91" x2="283.74" y2="164.68"/>
    <line class="cls-3" x1="418.87" y1="237.69" x2="418.87" y2="164.68"/>
    <polyline class="cls-3" points="373.1 308.53 244.51 308.53 244.42 261.44 275.06 261.34"/>
    <polyline class="cls-3" points="394.89 308.53 532.2 308.53 531.66 394.95 394.89 394.62 394.89 441.48 419.1 441.31"/>
    <line class="cls-3" x1="185.12" y1="224.07" x2="270.27" y2="224.58"/>
    <polyline class="cls-3" points="536.56 224.62 632.23 224.02 737.12 243.27 734.89 257.17"/>
    <polyline class="cls-3" points="591.74 292.96 591.55 421.29 569.86 420.54 569.86 478.77"/>
    <polyline class="cls-3" points="275.57 441.68 244.51 441.48 244.51 392.44 373.1 392.44 373.1 441.48"/>
    <line class="cls-3" x1="303.39" y1="261.63" x2="358.27" y2="261.63"/>
    <line class="cls-3" x1="438.48" y1="460.3" x2="438.48" y2="536.58"/>
    <line class="cls-3" x1="244.51" y1="462.18" x2="244.51" y2="536.78"/>
    <line class="cls-3" x1="206.37" y1="536.78" x2="206.37" y2="477.21"/>
    <polyline class="cls-3" points="108.49 268.12 158.37 268.67 158.19 240.67"/>
    <line class="cls-3" x1="308.8" y1="308.53" x2="308.8" y2="381.54"/>
    <polyline class="cls-3" points="696.6 478.22 693.94 492.38 681.21 490.33 672.46 536.8 661.74 535.31 660.38 546.44 1044.2 613.77 1045.95 604.11 1036.59 601.72 1044.07 555.78 1102.06 565.55 1151.95 277.07 1094.44 266.86 1095.97 259.03 1107.57 260.65 1109.41 249.16 725.36 181.84 722.91 192.74 732.72 194.65 725.36 240.42"/>
    <polyline class="cls-3" points="825.41 296.38 822.23 295.93 813.52 346.74 842.33 351.74 890.47 360.09 899.25 309.3 895.76 308.56"/>
    <line class="cls-3" x1="870.94" y1="207.37" x2="858.46" y2="273.63"/>
    <line class="cls-3" x1="1002.66" y1="229.92" x2="989.8" y2="303.76"/>
    <line class="cls-3" x1="1087.84" y1="356.36" x2="1136.91" y2="365.19"/>
    <line class="cls-3" x1="1080.46" y1="394.72" x2="1130.43" y2="403.48"/>
    <line class="cls-3" x1="1075" y1="432.94" x2="1122.77" y2="441.48"/>
    <line class="cls-3" x1="1068.24" y1="470.7" x2="1115.69" y2="480.71"/>
    <line class="cls-3" x1="1060.73" y1="509.59" x2="1108.77" y2="519.06"/>
    <line class="cls-3" x1="1003.59" y1="343.06" x2="995.01" y2="390.42"/>
    <line class="cls-3" x1="952.43" y1="358.48" x2="999.65" y2="366.62"/>
    <line class="cls-3" x1="946.5" y1="397.08" x2="992.91" y2="405.26"/>
    <line class="cls-3" x1="939.67" y1="435.16" x2="986.08" y2="443.57"/>
    <polyline class="cls-3" points="933.57 467.86 980.79 476 975.09 505.72 943.47 499.89"/>
    <polyline class="cls-3" points="718.6 459.99 762.43 467.73 765.69 449.81"/>
    <polyline class="cls-3" points="698.52 458.77 707.08 411.64 770.31 422.4 768.95 430.27"/>
    <polyline class="cls-3" points="773.65 403.85 785.33 337.65 750.15 330.32 735.71 416.41"/>
    <polyline class="cls-3" points="744.17 282.39 793.74 291.09 785.33 337.28"/>
    <line class="cls-3" x1="982.18" y1="462.15" x2="989.84" y2="419.63"/>
    <polyline class="cls-3" points="158.42 462 158.42 432.58 158.42 408.61"/>
    <line class="cls-3" x1="108.68" y1="432.56" x2="158.42" y2="432.58"/>
    <line class="cls-3" x1="289.19" y1="260.58" x2="289.19" y2="308.53"/>
    <polyline class="cls-3" points="418.87 260.58 394.89 260.58 394.62 332.83"/>
    <polyline class="cls-3" points="521.83 240.67 521.58 224.63 536.11 224.63 536.26 177.85 546.35 177.77 546.27 164.94 283.74 164.68 158.42 164.68 158.42 176.67 169.31 176.67 169.31 224.62 147.05 224.62"/>
    <line class="cls-3" x1="810.63" y1="197.61" x2="800.28" y2="253.77"/>
    <line class="cls-3" x1="751.4" y1="245.31" x2="843.93" y2="262.92"/>
    <polyline class="cls-3" points="1041.58 237.64 1030.8 295.27 1071.3 302.93"/>
    <polyline class="cls-3" points="446.91 441.13 473.9 441.2 503.84 441.31"/>
    <line class="cls-3" x1="471.02" y1="395.14" x2="470.93" y2="440.65"/>
    <line class="cls-3" x1="458.1" y1="164.68" x2="458.1" y2="225.69"/>
    <line class="cls-3" x1="438.48" y1="225.69" x2="507.14" y2="225.69"/>
    <line class="cls-3" x1="950.83" y1="524.13" x2="938.72" y2="594.66"/>
    <line class="cls-3" x1="976.64" y1="601.75" x2="986.71" y2="543.69"/>
    <line class="cls-3" x1="843.36" y1="462.23" x2="847.92" y2="435.63"/>
    <line class="cls-3" x1="897.71" y1="471.35" x2="902.71" y2="445.21"/>
    <line class="cls-3" x1="820.79" y1="478.18" x2="913.34" y2="493.78"/>
    <line class="cls-3" x1="1055.3" y1="539.62" x2="1065.17" y2="484.83"/>
    <line class="cls-3" x1="1070.28" y1="456.58" x2="1078.79" y2="408.94"/>
    <polyline class="cls-3" points="1094.42 267.4 1087.41 305.19 1108.05 308.89"/>
    <line class="cls-3" x1="1117.92" y1="310.58" x2="1145.04" y2="315.28"/>
    <line class="cls-3" x1="1005.96" y1="290.85" x2="1031.31" y2="295.45"/>
    <line class="cls-3" x1="963.08" y1="539.66" x2="1030.07" y2="551.34"/>
    <line class="cls-3" x1="159.12" y1="293.71" x2="158.42" y2="264.94"/>
    <line class="cls-3" x1="244.42" y1="376.22" x2="244.79" y2="330.42"/>
    <rect class="cls-3" x="270.38" y="332.83" width="11.87" height="40.8"/>
    <line class="cls-3" x1="289.66" y1="441.5" x2="289.66" y2="391.8"/>
    <line class="cls-3" x1="331.02" y1="392.73" x2="331.2" y2="441.5"/>
    <line class="cls-3" x1="303.57" y1="441.87" x2="358.27" y2="441.5"/>
    <rect class="cls-3" x="354.57" y="308.73" width="18.17" height="83.08"/>
    <polyline class="cls-3" points="331.2 309.1 331.2 283.88 331.2 261.63"/>
    <polyline class="cls-3" points="372.74 261.88 372.55 285.36 331.76 284.99"/>
    <polyline class="cls-3" points="148.55 379.19 147.99 310.95 110.9 310.77 111.46 392.17 158.75 391.8"/>
    <line class="cls-3" x1="115.35" y1="391.06" x2="115.35" y2="310.21"/>
    <polyline class="cls-3" points="107.57 302.05 110.9 302.05 110.9 308.54 149.7 308.53 150.4 379.93"/>
    <line class="cls-3" x1="446.36" y1="261.44" x2="509.4" y2="261.07"/>
    <line class="cls-3" x1="470.83" y1="308.54" x2="470.83" y2="261.07"/>
    <polyline class="cls-3" points="394.81 312.99 525.72 312.99 525.35 389.39 394.43 389.39 394.43 368.62"/>
    <polyline class="cls-3" points="526.46 308.54 526.84 261.07 520.16 261.07"/>
    <polyline class="cls-3" points="663.49 257.98 627.9 251.61 556.69 251.24 556.69 309.1 575.23 309.1 575.23 394.77 556.69 395.14 555.95 450.77 611.95 451.14 652.75 459.3 686.87 262.37 680.63 261.41"/>
    <polyline class="cls-3" points="517.69 395.16 517.83 441.18 526.14 441.18 526.57 395.01"/>
    <line class="cls-3" x1="432.08" y1="441.5" x2="432.45" y2="394.4"/>
    <polyline class="cls-3" points="407.32 371.13 422.07 370.79 422.06 355.46 457.3 355.68"/>
    <line class="cls-3" x1="525.72" y1="353.23" x2="456.93" y2="353.6"/>
    <polyline class="cls-3" points="407.15 333.12 421.55 333.3 421.69 347.67 457.3 347.3 457.3 350.63 525.91 349.89"/>
    <line class="cls-3" x1="477.83" y1="537.05" x2="477.68" y2="477.41"/>
    <polyline class="cls-3" points="523.31 462.64 523.31 477.47 535.18 477.84 536.31 526.24 545.96 526.04 546.17 536.92 157.08 536.81 156.71 526.06 167.46 525.69 167.46 478.96 108.31 478.4 107.75 225.47 126.75 225.47"/>
    <line class="cls-3" x1="557.43" y1="534.96" x2="649.78" y2="544.6"/>
    <polyline class="cls-3" points="535.18 477.84 609.72 478.58 680.39 490.74"/>
    <line class="cls-3" x1="746.95" y1="561.66" x2="759.93" y2="488.97"/>
    <line class="cls-3" x1="706.89" y1="494.72" x2="757.33" y2="503.43"/>
    <polyline class="cls-3" points="715.35 342.76 709.47 341.76 713.32 322.63 720.73 324.33 729.45 278.01"/>
    <polyline class="cls-3" points="708.65 379.15 702.98 377.94 706.98 355.89 712.75 357"/>
    <polyline class="cls-3" points="704.65 423.22 695.39 421.32 700.56 391.16 706.05 392.28"/>
    <rect class="cls-3" x="809.46" y="369.93" width="11.6" height="32.9" transform="translate(1546.98 914.13) rotate(-169.56)"/>
    <line class="cls-3" x1="835.96" y1="298.71" x2="885.47" y2="307.24"/>
    <line class="cls-3" x1="853.37" y1="348.57" x2="860.9" y2="303.16"/>
    <polyline class="cls-3" points="931.81 450.46 954.22 319.65 959.68 320.7"/>
    <polyline class="cls-3" points="790.34 472.65 805.54 475.06 813.15 429.26"/>
    <polyline class="cls-3" points="790.97 472.16 800.28 421.86 838.21 428.55"/>
    <line class="cls-3" x1="925.4" y1="365.03" x2="946.17" y2="369.11"/>
    <polyline class="cls-3" points="850.79 353.23 837.43 430.97 932.08 448.74"/>
    <line class="cls-3" x1="890.34" y1="399.13" x2="864.71" y2="394.67"/>
    <line class="cls-3" x1="898.63" y1="361.39" x2="890.47" y2="360.09"/>
    <line class="cls-3" x1="911.24" y1="362.5" x2="898.1" y2="440"/>
    <polyline class="cls-3" points="932.01 446.69 858.21 432.97 864.84 393.96 871.19 356.57"/>
    <g>
      <g>
        <line class="cls-3" x1="1047" y1="339.76" x2="1039.64" y2="382.98"/>
        <line class="cls-3" x1="1014.45" y1="378.43" x2="1064.92" y2="387.02"/>
        <line class="cls-3" x1="1016.88" y1="364.16" x2="1067.35" y2="372.75"/>
        <line class="cls-3" x1="1019.31" y1="349.89" x2="1069.78" y2="358.48"/>
        <line class="cls-3" x1="1021.74" y1="335.62" x2="1072.21" y2="344.21"/>
      </g>
      <g>
        <line class="cls-3" x1="1025.6" y1="464.98" x2="1018.11" y2="508.18"/>
        <line class="cls-3" x1="992.93" y1="503.55" x2="1043.38" y2="512.3"/>
        <line class="cls-3" x1="995.41" y1="489.29" x2="1045.85" y2="498.04"/>
        <line class="cls-3" x1="997.88" y1="475.03" x2="1048.32" y2="483.77"/>
        <line class="cls-3" x1="1000.35" y1="460.76" x2="1050.79" y2="469.51"/>
      </g>
      <rect class="cls-3" x="1007.28" y="415.75" width="50.62" height="16.46" transform="translate(82.17 -161.42) rotate(9.31)"/>
    </g>
    <line class="cls-3" x1="814.34" y1="341.77" x2="891.69" y2="355.05"/>
    <line class="cls-3" x1="710.75" y1="367.63" x2="738.16" y2="372.82"/>
    <line class="cls-3" x1="711.19" y1="365.74" x2="738.71" y2="370.92"/>
    <polygon class="cls-3" points="745.14 334.29 732.17 409.87 704.11 405.24 717.68 328.8 745.14 334.29"/>
    <line class="cls-3" x1="720.73" y1="324.33" x2="750.15" y2="330.32"/>
    <line class="cls-3" x1="452.4" y1="477.11" x2="509.62" y2="477.41"/>
    <line class="cls-3" x1="1081.46" y1="391.79" x2="1080.37" y2="397.79"/>
    <line class="cls-3" x1="1068.29" y1="467.82" x2="1067.2" y2="474.09"/>
    <line class="cls-3" x1="1083.55" y1="380.63" x2="1094.72" y2="321.7"/>
    <polyline class="cls-3" points="937.2 451.58 931.64 450.58 799.61 426.29"/>
    <line class="cls-3" x1="991.85" y1="407.75" x2="992.81" y2="402.68"/>
    <line class="cls-3" x1="908.82" y1="361.98" x2="913.99" y2="362.84"/>
    <polyline class="cls-3" points="924.85 496.49 928.63 496.93 959.68 320.8 1006.37 329.12 1005.93 331.33"/>
    <line class="cls-3" x1="946.36" y1="366.56" x2="951.59" y2="367.29"/>
    <polyline class="cls-3" points="736.49 410.89 771.18 416.96 770.39 421.94"/>
    <line class="cls-3" x1="660.09" y1="375.7" x2="652.82" y2="419.65"/>
    <g>
      <line class="cls-3" x1="658.62" y1="278.25" x2="678.92" y2="281.89"/>
      <line class="cls-3" x1="658.13" y1="280.94" x2="678.44" y2="284.59"/>
      <line class="cls-3" x1="657.65" y1="283.64" x2="677.95" y2="287.28"/>
      <line class="cls-3" x1="657.16" y1="286.34" x2="677.47" y2="289.98"/>
      <line class="cls-3" x1="656.68" y1="289.03" x2="676.98" y2="292.68"/>
      <line class="cls-3" x1="656.2" y1="291.73" x2="676.5" y2="295.37"/>
      <line class="cls-3" x1="655.71" y1="294.43" x2="676.01" y2="298.07"/>
      <line class="cls-3" x1="655.23" y1="297.13" x2="675.53" y2="300.77"/>
      <line class="cls-3" x1="654.74" y1="299.82" x2="675.04" y2="303.47"/>
      <line class="cls-3" x1="654.26" y1="302.52" x2="674.56" y2="306.16"/>
      <line class="cls-3" x1="653.77" y1="305.22" x2="674.08" y2="308.86"/>
      <line class="cls-3" x1="653.29" y1="307.91" x2="673.59" y2="311.56"/>
      <line class="cls-3" x1="652.8" y1="310.61" x2="673.11" y2="314.25"/>
      <line class="cls-3" x1="652.32" y1="313.31" x2="672.62" y2="316.95"/>
      <line class="cls-3" x1="651.84" y1="316" x2="672.14" y2="319.65"/>
      <line class="cls-3" x1="648.42" y1="334.99" x2="668.73" y2="338.64"/>
      <line class="cls-3" x1="647.94" y1="337.69" x2="668.24" y2="341.33"/>
      <line class="cls-3" x1="647.45" y1="340.39" x2="667.76" y2="344.03"/>
      <line class="cls-3" x1="646.97" y1="343.08" x2="667.27" y2="346.73"/>
      <line class="cls-3" x1="646.49" y1="345.78" x2="666.79" y2="349.42"/>
      <line class="cls-3" x1="646" y1="348.48" x2="666.3" y2="352.12"/>
      <line class="cls-3" x1="645.52" y1="351.17" x2="665.82" y2="354.82"/>
      <line class="cls-3" x1="645.03" y1="353.87" x2="665.34" y2="357.51"/>
      <line class="cls-3" x1="644.55" y1="356.57" x2="664.85" y2="360.21"/>
      <line class="cls-3" x1="644.06" y1="359.27" x2="664.37" y2="362.91"/>
      <line class="cls-3" x1="643.58" y1="361.96" x2="663.88" y2="365.61"/>
      <line class="cls-3" x1="643.09" y1="364.66" x2="663.4" y2="368.3"/>
      <line class="cls-3" x1="642.61" y1="367.36" x2="662.91" y2="371"/>
      <line class="cls-3" x1="642.13" y1="370.05" x2="662.43" y2="373.7"/>
      <line class="cls-3" x1="641.64" y1="372.75" x2="661.94" y2="376.39"/>
    </g>
    <rect class="cls-3" x="649.81" y="276.5" width="21.21" height="98.81" transform="translate(64.87 -107.33) rotate(9.77)"/>
    <line class="cls-3" x1="663.09" y1="258.27" x2="642.88" y2="376.29"/>
    <line class="cls-3" x1="680.72" y1="261.23" x2="660.71" y2="376.49"/>
    <g>
      <line class="cls-3" x1="201.45" y1="267.9" x2="201.55" y2="311.75"/>
      <line class="cls-3" x1="175.95" y1="311.54" x2="227.15" y2="311.43"/>
      <line class="cls-3" x1="175.92" y1="297.07" x2="227.12" y2="296.95"/>
      <line class="cls-3" x1="175.89" y1="282.59" x2="227.08" y2="282.48"/>
      <line class="cls-3" x1="175.86" y1="268.12" x2="227.05" y2="268"/>
    </g>
    <g>
      <line class="cls-3" x1="201.66" y1="394.94" x2="201.62" y2="438.78"/>
      <line class="cls-3" x1="176.03" y1="438.5" x2="227.22" y2="438.54"/>
      <line class="cls-3" x1="176.04" y1="424.03" x2="227.23" y2="424.07"/>
      <line class="cls-3" x1="176.05" y1="409.55" x2="227.24" y2="409.59"/>
      <line class="cls-3" x1="176.06" y1="395.08" x2="227.26" y2="395.11"/>
    </g>
    <rect class="cls-3" x="176.26" y="345.11" width="50.62" height="16.46" transform="translate(-2.98 1.72) rotate(-.48)"/>
    <line class="cls-3" x1="177.73" y1="477.11" x2="230.69" y2="477.11"/>
    <line class="cls-3" x1="431.55" y1="308.07" x2="431.55" y2="261.15"/>
    <line class="cls-3" x1="457.36" y1="353.14" x2="457.36" y2="376.13"/>
    <line class="cls-3" x1="457.3" y1="347.3" x2="457.3" y2="326.45"/>
    <line class="cls-3" x1="244.77" y1="224.39" x2="244.77" y2="164.89"/>
    <text class="cls-22" transform="translate(878.22 382.89) rotate(8.18)"><tspan x="0" y="0">IDF</tspan></text>
    <text class="cls-22" transform="translate(869.66 418.99) rotate(8.18)"><tspan x="0" y="0">ELEC</tspan></text>
    <rect class="cls-14" x="107.69" y="186.81" width="60.77" height="37.91"/>
    <text class="cls-22" transform="translate(178.61 278.09) rotate(-.5)"><tspan x="0" y="0">258 A</tspan></text>
    <text class="cls-22" transform="translate(178.55 292.31) rotate(-.5)"><tspan x="0" y="0">258 B</tspan></text>
    <text class="cls-22" transform="translate(178.62 306.59) rotate(-.5)"><tspan x="0" y="0">258 C</tspan></text>
    <text class="cls-22" transform="translate(204.64 278.08) rotate(-.5)"><tspan x="0" y="0">258 D</tspan></text>
    <text class="cls-22" transform="translate(204.8 292.3) rotate(-.5)"><tspan x="0" y="0">258 E</tspan></text>
    <text class="cls-22" transform="translate(204.8 306.59) rotate(-.5)"><tspan x="0" y="0">258 F</tspan></text>
    <text class="cls-22" transform="translate(178.09 406.06) rotate(-.5)"><tspan x="0" y="0">258 G</tspan></text>
    <text class="cls-22" transform="translate(178.03 420.28) rotate(-.5)"><tspan x="0" y="0">258 H</tspan></text>
    <text class="cls-22" transform="translate(178.1 434.57) rotate(-.5)"><tspan x="0" y="0">258 I</tspan></text>
    <text class="cls-22" transform="translate(204.12 406.06) rotate(-.5)"><tspan x="0" y="0">258 J</tspan></text>
    <text class="cls-22" transform="translate(204.28 420.28) rotate(-.5)"><tspan x="0" y="0">258 K</tspan></text>
    <text class="cls-22" transform="translate(204.28 434.56) rotate(-.5)"><tspan x="0" y="0">258 L</tspan></text>
    <text class="cls-22" transform="translate(291.84 206.02) rotate(-.5)"><tspan x="0" y="0">268 A</tspan></text>
    <text class="cls-22" transform="translate(291.84 221.54) rotate(-.5)"><tspan x="0" y="0">268 B</tspan></text>
    <text class="cls-22" transform="translate(317.7 191.86) rotate(-.5)"><tspan x="0" y="0">268 C</tspan></text>
    <text class="cls-22" transform="translate(317.7 206.67) rotate(-.5)"><tspan x="0" y="0">268 D</tspan></text>
    <text class="cls-22" transform="translate(317.7 221.54) rotate(-.5)"><tspan x="0" y="0">268 E</tspan></text>
    <text class="cls-22" transform="translate(361.29 191.73) rotate(-.5)"><tspan x="0" y="0">268 F</tspan></text>
    <text class="cls-22" transform="translate(361.23 207.26) rotate(-.5)"><tspan x="0" y="0">268 G</tspan></text>
    <text class="cls-22" transform="translate(361.29 221.44) rotate(-.5)"><tspan x="0" y="0">268 H</tspan></text>
    <text class="cls-22" transform="translate(386.99 206.84) rotate(-.5)"><tspan x="0" y="0">268 I</tspan></text>
    <text class="cls-22" transform="translate(386.99 221.43) rotate(-.5)"><tspan x="0" y="0">268 J</tspan></text>
    <text class="cls-22" transform="translate(252.34 487.3) rotate(-.5)"><tspan x="0" y="0">249 A</tspan></text>
    <text class="cls-22" transform="translate(252.28 502.82) rotate(-.5)"><tspan x="0" y="0">249 B</tspan></text>
    <text class="cls-22" transform="translate(252.35 517) rotate(-.5)"><tspan x="0" y="0">249 C</tspan></text>
    <text class="cls-22" transform="translate(278.18 486.65) rotate(-.5)"><tspan x="0" y="0">249 D</tspan></text>
    <text class="cls-22" transform="translate(279.91 502.54) rotate(-.5)"><tspan x="0" y="0">249E</tspan></text>
    <text class="cls-22" transform="translate(318.37 488.28) rotate(-.5)"><tspan x="0" y="0">249 F</tspan></text>
    <text class="cls-22" transform="translate(318.31 502.8) rotate(-.5)"><tspan x="0" y="0">249 G</tspan></text>
    <text class="cls-22" transform="translate(318.38 516.98) rotate(-.5)"><tspan x="0" y="0">249 H</tspan></text>
    <text class="cls-22" transform="translate(343.73 487.63) rotate(-.5)"><tspan x="0" y="0">249 I</tspan></text>
    <text class="cls-22" transform="translate(344.42 502.54) rotate(-.5)"><tspan x="0" y="0">249 J</tspan></text>
    <text class="cls-22" transform="translate(383.37 488.11) rotate(-.5)"><tspan x="0" y="0">249 K</tspan></text>
    <text class="cls-22" transform="translate(383.37 502.63) rotate(-.5)"><tspan x="0" y="0">249 L</tspan></text>
    <text class="cls-22" transform="translate(383.37 516.81) rotate(-.5)"><tspan x="0" y="0">249 M</tspan></text>
    <text class="cls-22" transform="translate(409.78 487.46) rotate(-.5)"><tspan x="0" y="0">249 N</tspan></text>
    <text class="cls-22" transform="translate(409.78 501.97) rotate(-.5)"><tspan x="0" y="0">249 O</tspan></text>
    <text class="cls-22" transform="translate(878.9 233.87) rotate(10.37)"><tspan x="0" y="0">212 A</tspan></text>
    <text class="cls-22" transform="translate(876.16 247.83) rotate(10.37)"><tspan x="0" y="0">212 B</tspan></text>
    <text class="cls-22" transform="translate(873.54 261.87) rotate(10.37)"><tspan x="0" y="0">212 C</tspan></text>
    <text class="cls-22" transform="translate(904.46 238.77) rotate(10.37)"><tspan x="0" y="0">212 D</tspan></text>
    <text class="cls-22" transform="translate(901.94 252.77) rotate(10.37)"><tspan x="0" y="0">212 E</tspan></text>
    <text class="cls-22" transform="translate(899.25 266.8) rotate(10.37)"><tspan x="0" y="0">212 F</tspan></text>
    <text class="cls-22" transform="translate(940.85 245.32) rotate(10.37)"><tspan x="0" y="0">212 G</tspan></text>
    <text class="cls-22" transform="translate(938.11 259.28) rotate(10.37)"><tspan x="0" y="0">212 H</tspan></text>
    <text class="cls-22" transform="translate(935.49 273.32) rotate(10.37)"><tspan x="0" y="0">212 I</tspan></text>
    <text class="cls-22" transform="translate(965.19 264.01) rotate(8.26)"><tspan x="0" y="0">212 J</tspan></text>
    <text class="cls-22" transform="translate(961.2 278.25) rotate(10.37)"><tspan x="0" y="0">212 K</tspan></text>
    <text class="cls-22" transform="translate(1022.01 345.97) rotate(9.33)"><tspan x="0" y="0">222 A</tspan></text>
    <text class="cls-22" transform="translate(1019.53 359.98) rotate(9.33)"><tspan x="0" y="0">222 B</tspan></text>
    <text class="cls-22" transform="translate(1017.16 374.06) rotate(9.33)"><tspan x="0" y="0">222 C</tspan></text>
    <text class="cls-22" transform="translate(1047.66 350.41) rotate(9.33)"><tspan x="0" y="0">222 D</tspan></text>
    <text class="cls-22" transform="translate(1045.39 364.45) rotate(9.33)"><tspan x="0" y="0">222 E</tspan></text>
    <text class="cls-22" transform="translate(1042.95 378.53) rotate(9.33)"><tspan x="0" y="0">222 F</tspan></text>
    <text class="cls-22" transform="translate(999.65 471.69) rotate(9.33)"><tspan x="0" y="0">222 G</tspan></text>
    <text class="cls-22" transform="translate(997.16 485.7) rotate(9.33)"><tspan x="0" y="0">222 H</tspan></text>
    <text class="cls-22" transform="translate(994.79 499.78) rotate(9.33)"><tspan x="0" y="0">222 I</tspan></text>
    <text class="cls-22" transform="translate(1025.29 476.13) rotate(9.33)"><tspan x="0" y="0">222 J</tspan></text>
    <text class="cls-22" transform="translate(1023.02 490.17) rotate(9.33)"><tspan x="0" y="0">222 K</tspan></text>
    <text class="cls-22" transform="translate(1020.58 504.25) rotate(9.33)"><tspan x="0" y="0">222 L</tspan></text>
    <text class="cls-22" transform="translate(827.09 528.24) rotate(10.37)"><tspan x="0" y="0">235 F</tspan></text>
    <text class="cls-22" transform="translate(824.35 542.19) rotate(10.37)"><tspan x="0" y="0">235 G</tspan></text>
    <text class="cls-22" transform="translate(821.73 556.24) rotate(10.37)"><tspan x="0" y="0">235 H</tspan></text>
    <text class="cls-22" transform="translate(852.65 533.14) rotate(10.37)"><tspan x="0" y="0">235 I</tspan></text>
    <text class="cls-22" transform="translate(850.13 547.14) rotate(10.37)"><tspan x="0" y="0">235 J</tspan></text>
    <text class="cls-22" transform="translate(847.43 561.16) rotate(10.37)"><tspan x="0" y="0">235 K</tspan></text>
    <text class="cls-22" transform="translate(762.26 516.56) rotate(10.37)"><tspan x="0" y="0">235 A</tspan></text>
    <text class="cls-22" transform="translate(759.52 530.51) rotate(10.37)"><tspan x="0" y="0">235 B</tspan></text>
    <text class="cls-22" transform="translate(756.9 544.56) rotate(10.37)"><tspan x="0" y="0">235 C</tspan></text>
    <text class="cls-22" transform="translate(787.82 521.46) rotate(10.37)"><tspan x="0" y="0">235 D</tspan></text>
    <text class="cls-22" transform="translate(785.3 535.46) rotate(10.37)"><tspan x="0" y="0">235 E</tspan></text>
    <text class="cls-22" transform="translate(891.93 541.02) rotate(10.37)"><tspan x="0" y="0">235 L</tspan></text>
    <text class="cls-22" transform="translate(889.2 554.97) rotate(10.37)"><tspan x="0" y="0">235 M</tspan></text>
    <text class="cls-22" transform="translate(886.57 569.01) rotate(10.37)"><tspan x="0" y="0">235 N</tspan></text>
    <text class="cls-22" transform="translate(917.49 545.92) rotate(10.37)"><tspan x="0" y="0">235 O</tspan></text>
    <text class="cls-22" transform="translate(914.97 559.91) rotate(10.37)"><tspan x="0" y="0">235 P</tspan></text>
    <text class="cls-22" transform="translate(125.04 364.21)"><tspan x="0" y="0">EXIT</tspan></text>
    <text class="cls-22" transform="translate(912.65 414.23) rotate(9.76)"><tspan x="0" y="0">EXIT</tspan></text>
    <text class="cls-22" transform="translate(718.91 350.99) rotate(9.21)"><tspan x="0" y="0">ELEV</tspan></text>
    <text class="cls-22" transform="translate(713.17 386.91) rotate(9.21)"><tspan x="0" y="0">ELEV</tspan></text>
    <g>
      <line class="cls-3" x1="964.64" y1="239.12" x2="957.13" y2="282.32"/>
      <line class="cls-3" x1="931.96" y1="277.67" x2="982.4" y2="286.44"/>
      <line class="cls-3" x1="934.44" y1="263.41" x2="984.88" y2="272.18"/>
      <line class="cls-3" x1="936.92" y1="249.15" x2="962.04" y2="253.52"/>
    </g>
    <g>
      <line class="cls-3" x1="903.59" y1="228" x2="895.97" y2="271.18"/>
      <line class="cls-3" x1="870.81" y1="266.47" x2="921.23" y2="275.36"/>
      <line class="cls-3" x1="873.32" y1="252.22" x2="923.74" y2="261.11"/>
      <line class="cls-3" x1="875.84" y1="237.96" x2="926.25" y2="246.85"/>
    </g>
    <line class="cls-3" x1="852.6" y1="522.55" x2="844.61" y2="565.66"/>
    <polyline class="cls-3" points="822.13 546.5 847.45 551.2 872.47 555.83"/>
    <line class="cls-3" x1="824.77" y1="532.27" x2="875.11" y2="541.6"/>
    <line class="cls-3" x1="827.41" y1="518.04" x2="877.74" y2="527.37"/>
    <line class="cls-3" x1="787.66" y1="510.51" x2="779.67" y2="553.62"/>
    <line class="cls-3" x1="757.19" y1="534.47" x2="782.1" y2="539.09"/>
    <line class="cls-3" x1="759.83" y1="520.24" x2="810.17" y2="529.57"/>
    <line class="cls-3" x1="762.47" y1="506" x2="812.8" y2="515.33"/>
    <line class="cls-3" x1="917.54" y1="534.58" x2="909.56" y2="577.69"/>
    <line class="cls-3" x1="887.07" y1="558.54" x2="911.84" y2="563.13"/>
    <line class="cls-3" x1="889.71" y1="544.31" x2="940.05" y2="553.64"/>
    <line class="cls-3" x1="892.35" y1="530.07" x2="942.68" y2="539.4"/>
    <line class="cls-3" x1="342.18" y1="477.44" x2="342.18" y2="521.28"/>
    <line class="cls-3" x1="316.59" y1="506.55" x2="342.01" y2="506.55"/>
    <line class="cls-3" x1="316.59" y1="492.07" x2="367.78" y2="492.07"/>
    <line class="cls-3" x1="316.59" y1="477.59" x2="367.78" y2="477.59"/>
    <line class="cls-3" x1="276.14" y1="477.44" x2="276.14" y2="521.28"/>
    <line class="cls-3" x1="250.54" y1="506.55" x2="276.61" y2="506.55"/>
    <line class="cls-3" x1="250.54" y1="492.07" x2="301.74" y2="492.07"/>
    <line class="cls-3" x1="250.54" y1="477.59" x2="301.74" y2="477.59"/>
    <line class="cls-3" x1="408.23" y1="477.44" x2="408.23" y2="521.28"/>
    <line class="cls-3" x1="382.63" y1="506.55" x2="408.01" y2="506.55"/>
    <line class="cls-3" x1="382.63" y1="492.07" x2="433.83" y2="492.07"/>
    <line class="cls-3" x1="382.63" y1="477.59" x2="433.83" y2="477.59"/>
    <line class="cls-3" x1="385.21" y1="181.91" x2="385.21" y2="225.75"/>
    <line class="cls-3" x1="359.61" y1="225.49" x2="410.8" y2="225.49"/>
    <polyline class="cls-3" points="359.61 211.02 385.2 211.02 410.8 211.02"/>
    <line class="cls-3" x1="359.61" y1="196.54" x2="384.92" y2="196.54"/>
    <line class="cls-3" x1="315.47" y1="181.91" x2="315.47" y2="225.75"/>
    <line class="cls-3" x1="289.88" y1="225.49" x2="341.07" y2="225.49"/>
    <polyline class="cls-3" points="289.88 211.02 315.18 211.02 341.07 211.02"/>
    <line class="cls-3" x1="315.18" y1="196.54" x2="341.07" y2="196.54"/>
    <polygon class="cls-14" points="1145.59 315.02 1087.91 305.43 1094.33 266.75 1152.01 276.33 1145.59 315.02"/>
    <polyline class="cls-3" points="169 187.18 107.94 186.31 107.94 224.6"/>
    <g>
      <path class="cls-10" d="M923.72,384.6c1.09,0,1.97-.88,1.97-1.97s-.88-1.97-1.97-1.97-1.97.88-1.97,1.97.88,1.97,1.97,1.97ZM923.72,381.25c.76,0,1.38.62,1.38,1.38s-.62,1.38-1.38,1.38-1.38-.62-1.38-1.38.62-1.38,1.38-1.38Z"/>
      <path class="cls-10" d="M923.16,389.13c.22.37.62.6,1.05.6.13,0,.27-.02.39-.06l2.3-.78c.61-.21.98-.84.84-1.45-.08-.34-.3-.63-.6-.79-.3-.17-.66-.2-.99-.09l-1.4.47-.85-1.43c-.22-.37-.59-.63-1.03-.72-.25-.05-.54-.22-.77-.43-.3-.28-.67-.43-1.07-.43h-2.11c-.39,0-.75.18-.98.49l-1.62,2.17c-.4.54-.32,1.31.18,1.72.22.18.49.27.77.27.39,0,.75-.18.98-.49l1.27-1.71h.89l-3.02,6.4-2.7.3c-.63.06-1.12.56-1.15,1.18-.01.34.11.66.34.9.23.24.55.37.88.37.04,0,.08,0,.12,0l3.47-.37c.47-.04.86-.34,1.02-.76l.81-1.82,1.67,1.36.59,2.71c.12.56.62.97,1.2.97.21,0,.42-.06.61-.16.46-.26.7-.82.58-1.36l-.7-3.21c-.08-.35-.31-.66-.63-.83l-1.54-1.35.94-2.01.23.38ZM922.63,387.99l-1.27,2.72c-.06.12-.03.26.07.35l1.73,1.52s.04.03.07.05c.18.08.31.25.35.44l.7,3.21c.06.29-.06.59-.3.72-.1.06-.2.08-.31.08-.3,0-.55-.21-.62-.5l-.61-2.81c-.01-.07-.05-.12-.1-.17l-2.05-1.67c-.05-.04-.12-.07-.19-.07-.02,0-.05,0-.07,0-.09.02-.16.08-.2.17l-.98,2.18c-.09.22-.29.38-.54.4l-3.47.37c-.19.02-.38-.05-.51-.19-.12-.12-.18-.29-.18-.47.01-.31.28-.58.61-.61l2.87-.31c.1-.01.19-.07.24-.17l3.3-6.97c.04-.09.04-.2-.02-.28-.05-.09-.15-.14-.25-.14h-1.51c-.09,0-.18.04-.24.12l-1.36,1.83c-.12.16-.31.25-.51.25-.15,0-.28-.05-.4-.14-.26-.21-.3-.62-.08-.9l1.62-2.17c.12-.16.31-.25.51-.25h2.11c.24,0,.47.1.66.27.31.29.7.51,1.05.58.28.06.51.22.65.45l.97,1.64c.07.12.22.17.35.13l1.62-.55c.17-.06.35-.04.51.05.16.09.27.23.31.41h0c.07.31-.13.64-.45.75l-2.3.78c-.28.09-.6-.03-.75-.28l-.51-.86c-.06-.09-.16-.15-.27-.14-.11,0-.21.07-.25.17Z"/>
      <path class="cls-10" d="M933.14,377.35h-11.61c-.16,0-.3.13-.3.3v2.78c0,.16.13.3.3.3s.3-.13.3-.3v-2.49h11.02v19.14h-5.57c-.16,0-.3.13-.3.3s.13.3.3.3h5.86c.16,0,.3-.13.3-.3v-19.73c0-.16-.13-.3-.3-.3Z"/>
    </g>
    <g>
      <path class="cls-10" d="M133.47,332.12c1.09,0,1.97-.88,1.97-1.97s-.88-1.97-1.97-1.97-1.97.88-1.97,1.97.88,1.97,1.97,1.97ZM133.47,328.77c.76,0,1.38.62,1.38,1.38s-.62,1.38-1.38,1.38-1.38-.62-1.38-1.38.62-1.38,1.38-1.38Z"/>
      <path class="cls-10" d="M132.91,336.64c.22.37.62.6,1.05.6.13,0,.27-.02.39-.06l2.3-.78c.61-.21.98-.84.84-1.45-.08-.34-.3-.63-.6-.79-.3-.17-.66-.2-.99-.09l-1.4.47-.85-1.43c-.22-.37-.59-.63-1.03-.72-.25-.05-.54-.22-.77-.43-.3-.28-.67-.43-1.07-.43h-2.11c-.39,0-.75.18-.98.49l-1.62,2.17c-.4.54-.32,1.31.18,1.72.22.18.49.27.77.27.39,0,.75-.18.98-.49l1.27-1.71h.89l-3.02,6.4-2.7.3c-.63.06-1.12.56-1.15,1.18-.01.34.11.66.34.9.23.24.55.37.88.37.04,0,.08,0,.12,0l3.47-.37c.47-.04.86-.34,1.02-.76l.81-1.82,1.67,1.36.59,2.71c.12.56.62.97,1.2.97.21,0,.42-.06.61-.16.46-.26.7-.82.58-1.36l-.7-3.21c-.08-.35-.31-.66-.63-.83l-1.54-1.35.94-2.01.23.38ZM132.38,335.5l-1.27,2.72c-.06.12-.03.26.07.35l1.73,1.52s.04.03.07.05c.18.08.31.25.35.44l.7,3.21c.06.29-.06.59-.3.72-.1.06-.2.08-.31.08-.3,0-.55-.21-.62-.5l-.61-2.81c-.01-.07-.05-.12-.1-.17l-2.05-1.67c-.05-.04-.12-.07-.19-.07-.02,0-.05,0-.07,0-.09.02-.16.08-.2.17l-.98,2.18c-.09.22-.29.38-.54.4l-3.47.37c-.19.02-.38-.05-.51-.19-.12-.12-.18-.29-.18-.47.01-.31.28-.58.61-.61l2.87-.31c.1-.01.19-.07.24-.17l3.3-6.97c.04-.09.04-.2-.02-.28-.05-.09-.15-.14-.25-.14h-1.51c-.09,0-.18.04-.24.12l-1.36,1.83c-.12.16-.31.25-.51.25-.15,0-.28-.05-.4-.14-.26-.21-.3-.62-.08-.9l1.62-2.17c.12-.16.31-.25.51-.25h2.11c.24,0,.47.1.66.27.31.29.7.51,1.05.58.28.06.51.22.65.45l.97,1.64c.07.12.22.17.35.13l1.62-.55c.17-.06.35-.04.51.05.16.09.27.23.31.41h0c.07.31-.13.64-.45.75l-2.3.78c-.28.09-.6-.03-.75-.28l-.51-.86c-.06-.09-.16-.15-.27-.14-.11,0-.21.07-.25.17Z"/>
      <path class="cls-10" d="M142.88,324.86h-11.61c-.16,0-.3.13-.3.3v2.78c0,.16.13.3.3.3s.3-.13.3-.3v-2.49h11.02v19.14h-5.57c-.16,0-.3.13-.3.3s.13.3.3.3h5.86c.16,0,.3-.13.3-.3v-19.73c0-.16-.13-.3-.3-.3Z"/>
    </g>
    <g>
      <polygon class="cls-6" points="43.75 674.9 45.62 678.7 49.82 679.31 46.78 682.27 47.5 686.45 43.75 684.48 40 686.45 40.71 682.27 37.68 679.31 41.87 678.7 43.75 674.9"/>
      <text class="cls-22" transform="translate(62.04 682.98) rotate(.05)"><tspan x="0" y="0">CONFERENCE/HUDDLE</tspan></text>
    </g>
    <g>
      <text class="cls-22" transform="translate(62.04 726.02) rotate(.05)"><tspan x="0" y="0">RESTROOMS</tspan></text>
      <g>
        <path d="M42.3,717.18c0,.51-.41.92-.92.92s-.92-.41-.92-.92.41-.92.92-.92.92.41.92.92h0Z"/>
        <path d="M41.38,718.11c-.51,0-.93-.42-.93-.93s.42-.93.93-.93.93.42.93.93-.42.93-.93.93ZM41.38,716.27c-.5,0-.91.41-.91.91s.41.91.91.91.91-.41.91-.91-.41-.91-.91-.91Z"/>
        <path d="M50.38,717.18c0,.51-.41.92-.92.92s-.92-.41-.92-.92.41-.92.92-.92.92.41.92.92h0Z"/>
        <path d="M49.46,718.11c-.51,0-.93-.42-.93-.93s.42-.93.93-.93.93.42.93.93-.42.93-.93.93ZM49.46,716.27c-.5,0-.91.41-.91.91s.41.91.91.91.91-.41.91-.91-.41-.91-.91-.91Z"/>
        <path d="M52.06,722.47l-.07.02c-.18.06-.38-.04-.44-.22l-.92-2.77-.19.06,1.17,3.83c.06.18-.08.37-.27.37h-.72v3.7c0,.27-.22.48-.48.48s-.48-.22-.48-.48v-3.7h-.38v3.7c0,.27-.22.48-.48.48s-.48-.22-.48-.48v-3.7h-.72c-.19,0-.33-.18-.27-.37l1.17-3.83-.19-.06-.92,2.77c-.06.18-.26.28-.45.22l-.07-.02c-.18-.06-.28-.26-.22-.44l.92-2.77.1-.31c.14-.41.52-.67.93-.67h1.74c.41,0,.79.26.93.67l.1.31.92,2.77c.06.18-.04.38-.22.44h0Z"/>
        <path d="M43.38,719.24v3.25c0,.19-.16.35-.35.35h-.07c-.19,0-.35-.16-.35-.35v-2.92h-.2v7.89c0,.27-.22.48-.48.48s-.48-.22-.48-.48v-4.62h-.38v4.62c0,.27-.22.48-.48.48s-.48-.22-.48-.48v-7.89h-.2v2.92c0,.19-.16.35-.35.35h-.07c-.19,0-.35-.16-.35-.35v-3.25c0-.27.11-.52.29-.69.18-.18.42-.29.69-.29h2.31c.27,0,.52.11.69.29.18.18.29.42.29.69h0Z"/>
        <path d="M45.33,728.97h0c.13,0,.23-.1.23-.23v-13.29c0-.13-.1-.23-.23-.23h0c-.13,0-.23.1-.23.23v13.29c0,.13.1.23.23.23h0Z"/>
      </g>
    </g>
    <g>
      <text class="cls-22" transform="translate(62.04 704.62) rotate(.05)"><tspan x="0" y="0">EXIT/STAIRS</tspan></text>
      <g>
        <path class="cls-10" d="M43.36,700.61c.63,0,1.14-.51,1.14-1.14s-.51-1.14-1.14-1.14-1.14.51-1.14,1.14.51,1.14,1.14,1.14ZM43.36,698.66c.44,0,.8.36.8.8s-.36.8-.8.8-.8-.36-.8-.8.36-.8.8-.8Z"/>
        <path class="cls-10" d="M43.03,703.23c.13.21.36.35.61.35.08,0,.15-.01.23-.04l1.33-.45c.36-.12.57-.49.49-.84-.05-.2-.17-.36-.35-.46-.17-.1-.38-.12-.57-.05l-.81.27-.49-.83c-.13-.22-.34-.36-.6-.42-.14-.03-.32-.13-.45-.25-.17-.16-.39-.25-.62-.25h-1.23c-.22,0-.44.11-.57.29l-.94,1.26c-.23.31-.18.76.11,1,.13.1.29.16.45.16.22,0,.44-.11.57-.29l.74-.99h.52l-1.76,3.71-1.57.17c-.37.03-.65.33-.66.68,0,.2.06.38.2.52.13.14.32.22.51.22.02,0,.04,0,.07,0l2.02-.21c.27-.03.5-.2.59-.44l.47-1.06.97.79.34,1.57c.07.32.36.56.69.56.12,0,.24-.03.35-.09.27-.15.41-.48.34-.79l-.4-1.87c-.04-.21-.18-.38-.37-.48l-.89-.78.55-1.17.13.22ZM42.73,702.57l-.74,1.58c-.03.07-.02.15.04.2l1.01.88s.03.02.04.03c.1.05.18.14.2.25l.4,1.87c.04.17-.03.34-.17.42-.06.03-.12.05-.18.05-.17,0-.32-.12-.36-.29l-.35-1.63s-.03-.07-.06-.1l-1.19-.97s-.07-.04-.11-.04c-.01,0-.03,0-.04,0-.05.01-.1.05-.12.1l-.57,1.27c-.05.13-.17.22-.31.23l-2.02.21c-.11.01-.22-.03-.3-.11-.07-.07-.11-.17-.1-.27,0-.18.16-.33.36-.35l1.67-.18c.06,0,.11-.04.14-.1l1.91-4.05c.03-.05.02-.12-.01-.17-.03-.05-.09-.08-.15-.08h-.88c-.05,0-.11.03-.14.07l-.79,1.06c-.07.09-.18.15-.3.15-.09,0-.17-.03-.23-.08-.15-.12-.17-.36-.05-.52l.94-1.26c.07-.09.18-.15.29-.15h1.23c.14,0,.28.06.38.16.18.17.41.29.61.34.16.04.3.13.38.26l.56.95c.04.07.13.1.2.08l.94-.32c.1-.03.2-.02.3.03.09.05.16.14.18.24h0c.04.18-.07.37-.26.44l-1.33.45c-.16.05-.35-.02-.43-.16l-.3-.5c-.03-.05-.09-.09-.16-.08-.06,0-.12.04-.15.1Z"/>
        <path class="cls-10" d="M48.82,696.4h-6.74c-.09,0-.17.08-.17.17v1.61c0,.09.08.17.17.17s.17-.08.17-.17v-1.44h6.4v11.11h-3.23c-.09,0-.17.08-.17.17s.08.17.17.17h3.4c.09,0,.17-.08.17-.17v-11.45c0-.09-.08-.17-.17-.17Z"/>
      </g>
    </g>
    <text class="cls-22" transform="translate(187.96 198.43)"><tspan x="0" y="0">OFFICE</tspan><tspan x="0" y="9.6">265</tspan></text>
    <text class="cls-22" transform="translate(116.74 250.89)"><tspan x="0" y="0">LOUNGE</tspan></text>
    <text class="cls-22" transform="translate(118.91 286.95)"><tspan x="0" y="0">OFFICE</tspan><tspan x="0" y="9.6">263</tspan></text>
    <text class="cls-22" transform="translate(120.98 406.41)"><tspan x="0" y="0">OFFICE</tspan><tspan x="0" y="9.6">256</tspan></text>
    <text class="cls-22" transform="translate(120.98 455.84)"><tspan x="0" y="0">OFFICE</tspan><tspan x="0" y="9.6">255</tspan></text>
    <text class="cls-22" transform="translate(250.85 198.21)"><tspan x="0" y="0">OFFICE</tspan><tspan x="0" y="9.6">266</tspan></text>
    <text class="cls-22" transform="translate(423.82 196.01)"><tspan x="0" y="0">OFFICE</tspan><tspan x="0" y="9.6">274</tspan></text>
    <text class="cls-22" transform="translate(486.36 195.57)"><tspan x="0" y="0">OFFICE</tspan><tspan x="0" y="9.6">276</tspan></text>
    <text class="cls-22" transform="translate(254.24 287.63)"><tspan x="0" y="0">OFFICE</tspan><tspan x="0" y="9.6">262</tspan></text>
    <text class="cls-22" transform="translate(295.64 286.74)"><tspan x="0" y="0">OFFICE</tspan><tspan x="0" y="9.6">267</tspan></text>
    <text class="cls-22" transform="translate(343.01 299.27)"><tspan x="0" y="0">WELLNESS</tspan></text>
    <text class="cls-22" transform="translate(398.71 285.7)"><tspan x="0" y="0">OFFICE</tspan><tspan x="0" y="9.6">273</tspan></text>
    <text class="cls-22" transform="translate(437.54 286.33) rotate(-1.29)"><tspan x="0" y="0">OFFICE</tspan><tspan x="0" y="9.6">275</tspan></text>
    <text class="cls-22" transform="translate(399.15 417.56)"><tspan x="0" y="0">OFFICE</tspan><tspan x="0" y="9.6">247</tspan></text>
    <text class="cls-22" transform="translate(438.79 417.56)"><tspan x="0" y="0">OFFICE</tspan><tspan x="0" y="9.6">246</tspan></text>
    <text class="cls-22" transform="translate(480.2 417.12)"><tspan x="0" y="0">OFFICE</tspan><tspan x="0" y="9.6">244</tspan></text>
    <text class="cls-22" transform="translate(444.35 507.32)"><tspan x="0" y="0">OFFICE</tspan><tspan x="0" y="9.6">245</tspan></text>
    <text class="cls-22" transform="translate(491.25 507.32)"><tspan x="0" y="0">OFFICE</tspan><tspan x="0" y="9.6">243</tspan></text>
    <text class="cls-22" transform="translate(175.77 499.04)"><tspan x="0" y="0">OFFICE</tspan><tspan x="0" y="9.6">254</tspan></text>
    <text class="cls-22" transform="translate(211.6 503.09)"><tspan x="0" y="0">OFFICE</tspan><tspan x="0" y="9.6">253</tspan></text>
    <text class="cls-22" transform="translate(315.21 347.69)"><tspan x="0" y="0">STORAGE</tspan></text>
    <text class="cls-22" transform="translate(479.72 338.67)"><tspan x="0" y="0">MEN</tspan></text>
    <text class="cls-22" transform="translate(474.18 369.88)"><tspan x="0" y="0">WOMEN</tspan></text>
    <text class="cls-22" transform="translate(253.84 411.14)"><tspan x="0" y="0">OFFICE</tspan><tspan x="0" y="9.6">252</tspan></text>
    <text class="cls-22" transform="translate(296.08 411.14)"><tspan x="0" y="0">OFFICE</tspan><tspan x="0" y="9.6">251</tspan></text>
    <text class="cls-22" transform="translate(338.32 411.14)"><tspan x="0" y="0">OFFICE</tspan><tspan x="0" y="9.6">250</tspan></text>
    <text class="cls-22" transform="translate(481.58 277.82) rotate(-.41)"><tspan x="0" y="0">DALLAS</tspan><tspan x="0" y="9.6">277</tspan></text>
    <text class="cls-22" transform="translate(756.39 397.3) rotate(-80.69)"><tspan x="0" y="0">STORAGE</tspan></text>
    <text class="cls-22" transform="translate(798.95 402.67) rotate(-79.85)"><tspan x="0" y="0">COPY/PRINT</tspan></text>
    <text class="cls-22" transform="translate(752.69 218.05) rotate(9.84)"><tspan x="0" y="0">OFFICE</tspan><tspan x="0" y="9.6">209</tspan></text>
    <text class="cls-22" transform="translate(819.63 231.6) rotate(9.84)"><tspan x="0" y="0">OFFICE</tspan><tspan x="0" y="9.6">210</tspan></text>
    <text class="cls-22" transform="translate(1002.72 265.34) rotate(9.79)"><tspan x="0" y="0">OFFICE</tspan><tspan x="0" y="9.6">215</tspan></text>
    <text class="cls-22" transform="translate(1048.7 272.68) rotate(9.79)"><tspan x="0" y="0">OFFICE</tspan><tspan x="0" y="9.6">216</tspan></text>
    <text class="cls-22" transform="translate(964.96 343.31) rotate(9.79)"><tspan x="0" y="0">OFFICE</tspan><tspan x="0" y="9.6">218</tspan></text>
    <text class="cls-22" transform="translate(957.57 382.71) rotate(9.79)"><tspan x="0" y="0">OFFICE</tspan><tspan x="0" y="9.6">220</tspan></text>
    <text class="cls-22" transform="translate(953.46 418.44) rotate(9.79)"><tspan x="0" y="0">OFFICE</tspan><tspan x="0" y="9.6">225</tspan></text>
    <text class="cls-22" transform="translate(945.74 449.81) rotate(9.79)"><tspan x="0" y="0">STARR</tspan><tspan x="0" y="9.6">227</tspan></text>
    <text class="cls-22" transform="translate(996.56 577.28) rotate(9.79)"><tspan x="0" y="0">OFFICE</tspan><tspan x="0" y="9.6">231</tspan></text>
    <text class="cls-22" transform="translate(950.18 567.83) rotate(9.79)"><tspan x="0" y="0">OFFICE</tspan><tspan x="0" y="9.6">232</tspan></text>
    <text class="cls-22" transform="translate(701.84 523.09) rotate(9.79)"><tspan x="0" y="0">OFFICE</tspan><tspan x="0" y="9.6">240</tspan></text>
    <text class="cls-22" transform="translate(718.67 437.06) rotate(10.61)"><tspan x="0" y="0">COFFEE</tspan><tspan x="0" y="9.6">BAR</tspan></text>
    <text class="cls-22" transform="translate(856.76 462.16) rotate(10.61) scale(.95 1)"><tspan x="0" y="0">IT LAB</tspan><tspan x="0" y="9.6">236</tspan></text>
    <text class="cls-22" transform="translate(814.13 448.79) rotate(-5.27)"><tspan x="0" y="0">IT</tspan><tspan x="0" y="9.6">OFFICE</tspan><tspan x="0" y="19.2">238</tspan></text>
    <text class="cls-22" transform="translate(903.77 461.65) rotate(-5.27)"><tspan x="0" y="0">IT</tspan><tspan x="0" y="9.6">OFFICE</tspan><tspan x="0" y="19.2">235</tspan></text>
    <text class="cls-22" transform="translate(1067.16 533.35) rotate(9.79)"><tspan x="0" y="0">OFFICE</tspan><tspan x="0" y="9.6">230</tspan></text>
    <text class="cls-22" transform="translate(1074.96 495.59) rotate(9.79)"><tspan x="0" y="0">OFFICE</tspan><tspan x="0" y="9.6">228</tspan></text>
    <text class="cls-22" transform="translate(1082.35 455.78) rotate(9.79)"><tspan x="0" y="0">OFFICE</tspan><tspan x="0" y="9.6">226</tspan></text>
    <text class="cls-22" transform="translate(1092 416.54) rotate(9.79)"><tspan x="0" y="0">OFFICE</tspan><tspan x="0" y="9.6">224</tspan></text>
    <text class="cls-22" transform="translate(1095.49 379.02) rotate(9.79)"><tspan x="0" y="0">OFFICE</tspan><tspan x="0" y="9.6">219</tspan></text>
    <text class="cls-22" transform="translate(1099.18 338.38) rotate(9.79)"><tspan x="0" y="0">LOUNGE</tspan></text>
    <text class="cls-22" transform="translate(863.49 328.44) rotate(8.32)"><tspan x="0" y="0">OFFICE</tspan><tspan x="0" y="9.6">214</tspan></text>
    <text class="cls-22" transform="translate(825.31 322.34) rotate(8.32)"><tspan x="0" y="0">OFFICE</tspan><tspan x="0" y="9.6">211</tspan></text>
    <text class="cls-22" transform="translate(742.46 296.99) rotate(11.55)"><tspan x="0" y="0">MIDLAND</tspan><tspan x="0" y="9.6">208</tspan></text>
    <text class="cls-22" transform="translate(260.38 376.84) rotate(-90)"><tspan x="0" y="0">COPY/PRINT</tspan></text>
    <g>
      <path d="M402.3,346.91c0,.51-.41.92-.92.92s-.92-.41-.92-.92.41-.92.92-.92.92.41.92.92h0Z"/>
      <path d="M401.38,347.85c-.51,0-.93-.42-.93-.93s.42-.93.93-.93.93.42.93.93-.42.93-.93.93ZM401.38,346c-.5,0-.91.41-.91.91s.41.91.91.91.91-.41.91-.91-.41-.91-.91-.91Z"/>
      <path d="M410.39,346.91c0,.51-.41.92-.92.92s-.92-.41-.92-.92.41-.92.92-.92.92.41.92.92h0Z"/>
      <path d="M409.47,347.85c-.51,0-.93-.42-.93-.93s.42-.93.93-.93.93.42.93.93-.42.93-.93.93ZM409.47,346c-.5,0-.91.41-.91.91s.41.91.91.91.91-.41.91-.91-.41-.91-.91-.91Z"/>
      <path d="M412.07,352.21l-.07.02c-.18.06-.38-.04-.44-.22l-.92-2.77-.19.06,1.17,3.83c.06.18-.08.37-.27.37h-.72v3.7c0,.27-.22.48-.48.48s-.48-.22-.48-.48v-3.7h-.38v3.7c0,.27-.22.48-.48.48s-.48-.22-.48-.48v-3.7h-.72c-.19,0-.33-.18-.27-.37l1.17-3.83-.19-.06-.92,2.77c-.06.18-.26.28-.45.22l-.07-.02c-.18-.06-.28-.26-.22-.44l.92-2.77.1-.31c.14-.41.52-.67.93-.67h1.74c.41,0,.79.26.93.67l.1.31.92,2.77c.06.18-.04.38-.22.44h0Z"/>
      <path d="M403.39,348.97v3.25c0,.19-.16.35-.35.35h-.07c-.19,0-.35-.16-.35-.35v-2.92h-.2v7.89c0,.27-.22.48-.48.48s-.48-.22-.48-.48v-4.62h-.38v4.62c0,.27-.22.48-.48.48s-.48-.22-.48-.48v-7.89h-.2v2.92c0,.19-.16.35-.35.35h-.07c-.19,0-.35-.16-.35-.35v-3.25c0-.27.11-.52.29-.69.18-.18.42-.29.69-.29h2.31c.27,0,.52.11.69.29.18.18.29.42.29.69h0Z"/>
      <path d="M405.34,358.71h0c.13,0,.23-.1.23-.23v-13.29c0-.13-.1-.23-.23-.23h0c-.13,0-.23.1-.23.23v13.29c0,.13.1.23.23.23h0Z"/>
    </g>
    <text class="cls-22" transform="translate(64.23 751.19) rotate(.05)"><tspan x="0" y="0">SPACE SAVED / REMOTE WORKER</tspan></text>
    <rect class="cls-12" x="40.37" y="743.86" width="10.09" height="10.09"/>
    <g>
      <path class="cls-7" d="M952.82,488.78l.28-.39c.18-.24.47-.34.76-.26l1.63.46c.32.09.53.39.51.73-.02.27,0,.55-.18.77-.59.73-1.21,1.22-2.54.92-2.79-1.17-4.71-3.09-5.88-5.88-.31-1.33.19-1.95.92-2.54.22-.18.5-.16.77-.18.34-.02.63.18.73.51l.46,1.63c.08.29-.02.58-.26.76l-.39.28c-.07.05-.09.15-.05.23.64,1.08,1.94,2.38,3.02,3.02.08.05.18.03.23-.05h0Z"/>
      <path d="M957.06,486.21c0,.13.12.24.26.23.13,0,.24-.12.23-.26-.09-1.38-.73-2.67-1.69-3.63s-2.25-1.6-3.63-1.69c-.13,0-.25.09-.26.23,0,.13.09.25.23.26,1.26.08,2.43.67,3.32,1.55.88.88,1.47,2.06,1.55,3.32h0Z"/>
      <path d="M955.57,486.12c0,.13.12.24.26.23.13,0,.24-.12.23-.26-.06-.97-.51-1.87-1.19-2.54-.67-.67-1.58-1.12-2.54-1.19-.13,0-.25.09-.26.23,0,.13.09.25.23.26.85.06,1.64.45,2.23,1.05.59.59.99,1.39,1.05,2.23h0Z"/>
      <path d="M954.07,486.02c0,.13.12.24.26.23.13,0,.24-.12.23-.26-.04-.56-.29-1.07-.68-1.46s-.9-.64-1.46-.68c-.13,0-.25.09-.26.23,0,.13.09.25.23.26.43.03.84.23,1.15.54s.51.71.54,1.15h0Z"/>
    </g>
    <g>
      <path class="cls-7" d="M352.65,274.99l.28-.39c.18-.24.47-.34.76-.26l1.63.46c.32.09.53.39.51.73-.02.27,0,.55-.18.77-.59.73-1.21,1.22-2.54.92-2.79-1.17-4.71-3.09-5.88-5.88-.31-1.33.19-1.95.92-2.54.22-.18.5-.16.77-.18.34-.02.63.18.73.51l.46,1.63c.08.29-.02.58-.26.76l-.39.28c-.07.05-.09.15-.05.23.64,1.08,1.94,2.38,3.02,3.02.08.05.18.03.23-.05h0Z"/>
      <path d="M356.88,272.42c0,.13.12.24.26.23.13,0,.24-.12.23-.26-.09-1.38-.73-2.67-1.69-3.63s-2.25-1.6-3.63-1.69c-.13,0-.25.09-.26.23,0,.13.09.25.23.26,1.26.08,2.43.67,3.32,1.55.88.88,1.47,2.06,1.55,3.32h0Z"/>
      <path d="M355.39,272.32c0,.13.12.24.26.23.13,0,.24-.12.23-.26-.06-.97-.51-1.87-1.19-2.54-.67-.67-1.58-1.12-2.54-1.19-.13,0-.25.09-.26.23,0,.13.09.25.23.26.85.06,1.64.45,2.23,1.05.59.59.99,1.39,1.05,2.23h0Z"/>
      <path d="M353.9,272.22c0,.13.12.24.26.23.13,0,.24-.12.23-.26-.04-.56-.29-1.07-.68-1.46s-.9-.64-1.46-.68c-.13,0-.25.09-.26.23,0,.13.09.25.23.26.43.03.84.23,1.15.54s.51.71.54,1.15h0Z"/>
    </g>
    <polygon class="cls-6" points="968.6 455.33 969.66 459.43 973.63 460.89 970.06 463.16 969.9 467.4 966.63 464.69 962.56 465.85 964.12 461.91 961.76 458.39 965.99 458.66 968.6 455.33"/>
    <polygon class="cls-6" points="743.62 311.52 744.68 315.62 748.65 317.08 745.08 319.35 744.92 323.58 741.65 320.88 737.58 322.04 739.14 318.1 736.78 314.58 741.01 314.85 743.62 311.52"/>
    <polygon class="cls-6" points="489.17 290.69 491.03 294.5 495.23 295.12 492.18 298.07 492.89 302.24 489.15 300.26 485.39 302.23 486.12 298.05 483.09 295.09 487.28 294.49 489.17 290.69"/>
    <text class="cls-8" transform="translate(27.34 44.44)"><tspan class="cls-13"><tspan class="cls-21" x="0" y="0">K</tspan><tspan class="cls-19" x="17.72" y="0">E</tspan><tspan class="cls-20" x="34.42" y="0">A</tspan><tspan class="cls-23" x="50.5" y="0">H</tspan><tspan class="cls-11" x="70.57" y="0">Q</tspan></tspan><tspan class="cls-5"><tspan class="cls-16" x="0" y="30">S</tspan><tspan x="13.45" y="30">e</tspan><tspan class="cls-18" x="23.6" y="30">c</tspan><tspan x="33.32" y="30">o</tspan><tspan class="cls-17" x="44.92" y="30">n</tspan><tspan x="58.97" y="30">d Le</tspan><tspan class="cls-15" x="102.95" y="30">v</tspan><tspan x="113.25" y="30">el</tspan></tspan></text>
  </g>
</svg>