<?xml version="1.0" encoding="UTF-8"?>
<svg xmlns="http://www.w3.org/2000/svg" xmlns:xlink="http://www.w3.org/1999/xlink" version="1.1" viewBox="0 0 1224 792">
  <!-- Generator: Adobe Illustrator 30.2.1, SVG Export Plug-In . SVG Version: 2.1.1 Build 1)  -->
  <defs>
    <style>
      .st0, .st1, .st2, .st3 {
        fill: none;
      }

      .st1 {
        stroke: #323a4d;
      }

      .st4 {
        fill: #f90;
      }

      .st5 {
        fill: #fff;
      }

      .st6 {
        fill: #ee3224;
      }

      .st2 {
        stroke: #000;
        stroke-miterlimit: 10;
      }

      .st7 {
        fill: url(#diagonal_lines_blue_grey);
      }

      .st7, .st3 {
        opacity: .3;
      }

      .st8 {
        fill: url(#diagonal_lines);
      }

      .st9 {
        font-family: OpenSans, 'Open Sans';
        font-size: 8px;
      }
    </style>
    <pattern id="diagonal_lines" data-name="diagonal lines" x="0" y="0" width="115.14" height="115.14" patternTransform="translate(-810.24 -415.75)" patternUnits="userSpaceOnUse" viewBox="0 0 115.14 115.14">
      <g>
        <rect class="st0" y="0" width="115.14" height="115.14"/>
        <g>
          <line class="st1" x1="3.83" y1="111.46" x2="119.31" y2="226.94"/>
          <line class="st1" x1="6.45" y1="108.83" x2="121.93" y2="224.32"/>
          <line class="st1" x1="1.2" y1="114.08" x2="116.69" y2="229.57"/>
          <line class="st1" x1="35.32" y1="79.97" x2="150.8" y2="195.45"/>
          <line class="st1" x1="37.94" y1="77.34" x2="153.42" y2="192.83"/>
          <line class="st1" x1="30.07" y1="85.22" x2="145.55" y2="200.7"/>
          <line class="st1" x1="32.69" y1="82.59" x2="148.18" y2="198.08"/>
          <line class="st1" x1="24.82" y1="90.47" x2="140.3" y2="205.95"/>
          <line class="st1" x1="27.44" y1="87.84" x2="142.93" y2="203.32"/>
          <line class="st1" x1="19.57" y1="95.71" x2="135.06" y2="211.2"/>
          <line class="st1" x1="22.2" y1="93.09" x2="137.68" y2="208.57"/>
          <line class="st1" x1="14.32" y1="100.96" x2="129.81" y2="216.45"/>
          <line class="st1" x1="16.95" y1="98.34" x2="132.43" y2="213.82"/>
          <line class="st1" x1="9.08" y1="106.21" x2="124.56" y2="221.69"/>
          <line class="st1" x1="11.7" y1="103.59" x2="127.18" y2="219.07"/>
          <line class="st1" x1="56.31" y1="58.98" x2="171.79" y2="174.46"/>
          <line class="st1" x1="51.06" y1="64.22" x2="166.55" y2="179.71"/>
          <line class="st1" x1="53.69" y1="61.6" x2="169.17" y2="177.08"/>
          <line class="st1" x1="45.81" y1="69.47" x2="161.3" y2="184.95"/>
          <line class="st1" x1="48.44" y1="66.85" x2="163.92" y2="182.33"/>
          <line class="st1" x1="40.57" y1="74.72" x2="156.05" y2="190.2"/>
          <line class="st1" x1="43.19" y1="72.1" x2="158.67" y2="187.58"/>
        </g>
        <g>
          <line class="st1" x1="-111.32" y1="111.46" x2="4.17" y2="226.94"/>
          <line class="st1" x1="-108.69" y1="108.83" x2="6.79" y2="224.32"/>
          <line class="st1" x1="-113.94" y1="114.08" x2="1.54" y2="229.57"/>
          <line class="st1" x1="-79.83" y1="79.97" x2="35.66" y2="195.45"/>
          <line class="st1" x1="-77.2" y1="77.34" x2="38.28" y2="192.83"/>
          <line class="st1" x1="-85.07" y1="85.22" x2="30.41" y2="200.7"/>
          <line class="st1" x1="-82.45" y1="82.59" x2="33.03" y2="198.08"/>
          <line class="st1" x1="-90.32" y1="90.47" x2="25.16" y2="205.95"/>
          <line class="st1" x1="-87.7" y1="87.84" x2="27.78" y2="203.32"/>
          <line class="st1" x1="-95.57" y1="95.71" x2="19.91" y2="211.2"/>
          <line class="st1" x1="-92.95" y1="93.09" x2="22.54" y2="208.57"/>
          <line class="st1" x1="-100.82" y1="100.96" x2="14.66" y2="216.45"/>
          <line class="st1" x1="-98.2" y1="98.34" x2="17.29" y2="213.82"/>
          <line class="st1" x1="-106.07" y1="106.21" x2="9.42" y2="221.69"/>
          <line class="st1" x1="-103.44" y1="103.59" x2="12.04" y2="219.07"/>
          <line class="st1" x1="-58.83" y1="58.98" x2="56.65" y2="174.46"/>
          <line class="st1" x1="-64.08" y1="64.22" x2="51.4" y2="179.71"/>
          <line class="st1" x1="-61.46" y1="61.6" x2="54.03" y2="177.08"/>
          <line class="st1" x1="-69.33" y1="69.47" x2="46.15" y2="184.95"/>
          <line class="st1" x1="-66.7" y1="66.85" x2="48.78" y2="182.33"/>
          <line class="st1" x1="-74.58" y1="74.72" x2="40.91" y2="190.2"/>
          <line class="st1" x1="-71.95" y1="72.1" x2="43.53" y2="187.58"/>
        </g>
        <g>
          <line class="st1" x1="113.72" y1="1.56" x2="229.2" y2="117.05"/>
          <line class="st1" x1="108.47" y1="6.81" x2="223.96" y2="122.3"/>
          <line class="st1" x1="111.1" y1="4.19" x2="226.58" y2="119.67"/>
          <line class="st1" x1="103.22" y1="12.06" x2="218.71" y2="127.54"/>
          <line class="st1" x1="105.85" y1="9.44" x2="221.33" y2="124.92"/>
          <line class="st1" x1="97.98" y1="17.31" x2="213.46" y2="132.79"/>
          <line class="st1" x1="100.6" y1="14.68" x2="216.08" y2="130.17"/>
          <line class="st1" x1="92.73" y1="22.56" x2="208.21" y2="138.04"/>
          <line class="st1" x1="95.35" y1="19.93" x2="210.84" y2="135.42"/>
          <line class="st1" x1="87.48" y1="27.81" x2="202.96" y2="143.29"/>
          <line class="st1" x1="90.1" y1="25.18" x2="205.59" y2="140.66"/>
          <line class="st1" x1="82.23" y1="33.05" x2="197.71" y2="148.54"/>
          <line class="st1" x1="84.86" y1="30.43" x2="200.34" y2="145.91"/>
          <line class="st1" x1="76.98" y1="38.3" x2="192.47" y2="153.79"/>
          <line class="st1" x1="79.61" y1="35.68" x2="195.09" y2="151.16"/>
          <line class="st1" x1="71.73" y1="43.55" x2="187.22" y2="159.03"/>
          <line class="st1" x1="74.36" y1="40.93" x2="189.84" y2="156.41"/>
          <line class="st1" x1="66.49" y1="48.8" x2="181.97" y2="164.28"/>
          <line class="st1" x1="69.11" y1="46.17" x2="184.59" y2="161.66"/>
          <line class="st1" x1="61.24" y1="54.05" x2="176.72" y2="169.53"/>
          <line class="st1" x1="63.86" y1="51.42" x2="179.35" y2="166.91"/>
          <line class="st1" x1="58.61" y1="56.67" x2="174.1" y2="172.15"/>
        </g>
        <g>
          <line class="st1" x1="3.83" y1="-3.68" x2="119.31" y2="111.8"/>
          <line class="st1" x1="6.45" y1="-6.31" x2="121.93" y2="109.17"/>
          <line class="st1" x1="-1.42" y1="1.56" x2="114.06" y2="117.05"/>
          <line class="st1" x1="1.2" y1="-1.06" x2="116.69" y2="114.42"/>
          <line class="st1" x1="-6.67" y1="6.81" x2="108.81" y2="122.3"/>
          <line class="st1" x1="-4.05" y1="4.19" x2="111.44" y2="119.67"/>
          <line class="st1" x1="-11.92" y1="12.06" x2="103.57" y2="127.54"/>
          <line class="st1" x1="-9.29" y1="9.44" x2="106.19" y2="124.92"/>
          <line class="st1" x1="-17.17" y1="17.31" x2="98.32" y2="132.79"/>
          <line class="st1" x1="-14.54" y1="14.68" x2="100.94" y2="130.17"/>
          <line class="st1" x1="-22.41" y1="22.56" x2="93.07" y2="138.04"/>
          <line class="st1" x1="-19.79" y1="19.93" x2="95.69" y2="135.42"/>
          <line class="st1" x1="-27.66" y1="27.81" x2="87.82" y2="143.29"/>
          <line class="st1" x1="-25.04" y1="25.18" x2="90.44" y2="140.66"/>
          <line class="st1" x1="-32.91" y1="33.05" x2="82.57" y2="148.54"/>
          <line class="st1" x1="-30.29" y1="30.43" x2="85.2" y2="145.91"/>
          <line class="st1" x1="-38.16" y1="38.3" x2="77.32" y2="153.79"/>
          <line class="st1" x1="-35.54" y1="35.68" x2="79.95" y2="151.16"/>
          <line class="st1" x1="-43.41" y1="43.55" x2="72.08" y2="159.03"/>
          <line class="st1" x1="-40.78" y1="40.93" x2="74.7" y2="156.41"/>
          <line class="st1" x1="-48.66" y1="48.8" x2="66.83" y2="164.28"/>
          <line class="st1" x1="-46.03" y1="46.17" x2="69.45" y2="161.66"/>
          <line class="st1" x1="-53.9" y1="54.05" x2="61.58" y2="169.53"/>
          <line class="st1" x1="-51.28" y1="51.42" x2="64.2" y2="166.91"/>
          <line class="st1" x1="35.32" y1="-35.17" x2="150.8" y2="80.31"/>
          <line class="st1" x1="37.94" y1="-37.8" x2="153.42" y2="77.68"/>
          <line class="st1" x1="30.07" y1="-29.93" x2="145.55" y2="85.56"/>
          <line class="st1" x1="32.69" y1="-32.55" x2="148.18" y2="82.93"/>
          <line class="st1" x1="24.82" y1="-24.68" x2="140.3" y2="90.81"/>
          <line class="st1" x1="27.44" y1="-27.3" x2="142.93" y2="88.18"/>
          <line class="st1" x1="19.57" y1="-19.43" x2="135.06" y2="96.05"/>
          <line class="st1" x1="22.2" y1="-22.05" x2="137.68" y2="93.43"/>
          <line class="st1" x1="14.32" y1="-14.18" x2="129.81" y2="101.3"/>
          <line class="st1" x1="16.95" y1="-16.81" x2="132.43" y2="98.68"/>
          <line class="st1" x1="9.08" y1="-8.93" x2="124.56" y2="106.55"/>
          <line class="st1" x1="11.7" y1="-11.56" x2="127.18" y2="103.93"/>
          <line class="st1" x1="56.31" y1="-56.17" x2="171.79" y2="59.32"/>
          <line class="st1" x1="51.06" y1="-50.92" x2="166.55" y2="64.56"/>
          <line class="st1" x1="53.69" y1="-53.54" x2="169.17" y2="61.94"/>
          <line class="st1" x1="45.81" y1="-45.67" x2="161.3" y2="69.81"/>
          <line class="st1" x1="48.44" y1="-48.3" x2="163.92" y2="67.19"/>
          <line class="st1" x1="40.57" y1="-40.42" x2="156.05" y2="75.06"/>
          <line class="st1" x1="43.19" y1="-43.05" x2="158.67" y2="72.44"/>
          <line class="st1" x1="-56.53" y1="56.67" x2="58.95" y2="172.15"/>
        </g>
        <g>
          <line class="st1" x1="-111.32" y1="-3.68" x2="4.17" y2="111.8"/>
          <line class="st1" x1="-108.69" y1="-6.31" x2="6.79" y2="109.17"/>
          <line class="st1" x1="-113.94" y1="-1.06" x2="1.54" y2="114.42"/>
          <line class="st1" x1="-79.83" y1="-35.17" x2="35.66" y2="80.31"/>
          <line class="st1" x1="-77.2" y1="-37.8" x2="38.28" y2="77.68"/>
          <line class="st1" x1="-85.07" y1="-29.93" x2="30.41" y2="85.56"/>
          <line class="st1" x1="-82.45" y1="-32.55" x2="33.03" y2="82.93"/>
          <line class="st1" x1="-90.32" y1="-24.68" x2="25.16" y2="90.81"/>
          <line class="st1" x1="-87.7" y1="-27.3" x2="27.78" y2="88.18"/>
          <line class="st1" x1="-95.57" y1="-19.43" x2="19.91" y2="96.05"/>
          <line class="st1" x1="-92.95" y1="-22.05" x2="22.54" y2="93.43"/>
          <line class="st1" x1="-100.82" y1="-14.18" x2="14.66" y2="101.3"/>
          <line class="st1" x1="-98.2" y1="-16.81" x2="17.29" y2="98.68"/>
          <line class="st1" x1="-106.07" y1="-8.93" x2="9.42" y2="106.55"/>
          <line class="st1" x1="-103.44" y1="-11.56" x2="12.04" y2="103.93"/>
          <line class="st1" x1="-58.83" y1="-56.17" x2="56.65" y2="59.32"/>
          <line class="st1" x1="-64.08" y1="-50.92" x2="51.4" y2="64.56"/>
          <line class="st1" x1="-61.46" y1="-53.54" x2="54.03" y2="61.94"/>
          <line class="st1" x1="-69.33" y1="-45.67" x2="46.15" y2="69.81"/>
          <line class="st1" x1="-66.7" y1="-48.3" x2="48.78" y2="67.19"/>
          <line class="st1" x1="-74.58" y1="-40.42" x2="40.91" y2="75.06"/>
          <line class="st1" x1="-71.95" y1="-43.05" x2="43.53" y2="72.44"/>
        </g>
        <g>
          <line class="st1" x1="113.72" y1="-113.58" x2="229.2" y2="1.9"/>
          <line class="st1" x1="108.47" y1="-108.33" x2="223.96" y2="7.15"/>
          <line class="st1" x1="111.1" y1="-110.95" x2="226.58" y2="4.53"/>
          <line class="st1" x1="103.22" y1="-103.08" x2="218.71" y2="12.4"/>
          <line class="st1" x1="105.85" y1="-105.71" x2="221.33" y2="9.78"/>
          <line class="st1" x1="97.98" y1="-97.83" x2="213.46" y2="17.65"/>
          <line class="st1" x1="100.6" y1="-100.46" x2="216.08" y2="15.03"/>
          <line class="st1" x1="92.73" y1="-92.59" x2="208.21" y2="22.9"/>
          <line class="st1" x1="95.35" y1="-95.21" x2="210.84" y2="20.27"/>
          <line class="st1" x1="87.48" y1="-87.34" x2="202.96" y2="28.15"/>
          <line class="st1" x1="90.1" y1="-89.96" x2="205.59" y2="25.52"/>
          <line class="st1" x1="82.23" y1="-82.09" x2="197.71" y2="33.39"/>
          <line class="st1" x1="84.86" y1="-84.71" x2="200.34" y2="30.77"/>
          <line class="st1" x1="76.98" y1="-76.84" x2="192.47" y2="38.64"/>
          <line class="st1" x1="79.61" y1="-79.46" x2="195.09" y2="36.02"/>
          <line class="st1" x1="71.73" y1="-71.59" x2="187.22" y2="43.89"/>
          <line class="st1" x1="74.36" y1="-74.22" x2="189.84" y2="41.27"/>
          <line class="st1" x1="66.49" y1="-66.34" x2="181.97" y2="49.14"/>
          <line class="st1" x1="69.11" y1="-68.97" x2="184.59" y2="46.52"/>
          <line class="st1" x1="61.24" y1="-61.1" x2="176.72" y2="54.39"/>
          <line class="st1" x1="63.86" y1="-63.72" x2="179.35" y2="51.76"/>
          <line class="st1" x1="58.61" y1="-58.47" x2="174.1" y2="57.01"/>
        </g>
        <g>
          <line class="st1" x1="-1.42" y1="-113.58" x2="114.06" y2="1.9"/>
          <line class="st1" x1="-6.67" y1="-108.33" x2="108.81" y2="7.15"/>
          <line class="st1" x1="-4.05" y1="-110.95" x2="111.44" y2="4.53"/>
          <line class="st1" x1="-11.92" y1="-103.08" x2="103.57" y2="12.4"/>
          <line class="st1" x1="-9.29" y1="-105.71" x2="106.19" y2="9.78"/>
          <line class="st1" x1="-17.17" y1="-97.83" x2="98.32" y2="17.65"/>
          <line class="st1" x1="-14.54" y1="-100.46" x2="100.94" y2="15.03"/>
          <line class="st1" x1="-22.41" y1="-92.59" x2="93.07" y2="22.9"/>
          <line class="st1" x1="-19.79" y1="-95.21" x2="95.69" y2="20.27"/>
          <line class="st1" x1="-27.66" y1="-87.34" x2="87.82" y2="28.15"/>
          <line class="st1" x1="-25.04" y1="-89.96" x2="90.44" y2="25.52"/>
          <line class="st1" x1="-32.91" y1="-82.09" x2="82.57" y2="33.39"/>
          <line class="st1" x1="-30.29" y1="-84.71" x2="85.2" y2="30.77"/>
          <line class="st1" x1="-38.16" y1="-76.84" x2="77.32" y2="38.64"/>
          <line class="st1" x1="-35.54" y1="-79.46" x2="79.95" y2="36.02"/>
          <line class="st1" x1="-43.41" y1="-71.59" x2="72.08" y2="43.89"/>
          <line class="st1" x1="-40.78" y1="-74.22" x2="74.7" y2="41.27"/>
          <line class="st1" x1="-48.66" y1="-66.34" x2="66.83" y2="49.14"/>
          <line class="st1" x1="-46.03" y1="-68.97" x2="69.45" y2="46.52"/>
          <line class="st1" x1="-53.9" y1="-61.1" x2="61.58" y2="54.39"/>
          <line class="st1" x1="-51.28" y1="-63.72" x2="64.2" y2="51.76"/>
          <line class="st1" x1="-56.53" y1="-58.47" x2="58.95" y2="57.01"/>
        </g>
      </g>
    </pattern>
    <pattern id="diagonal_lines_blue_grey" data-name="diagonal lines blue grey" x="0" y="0" width="115.14" height="115.14" patternTransform="translate(-844.39 -409.53)" patternUnits="userSpaceOnUse" viewBox="0 0 115.14 115.14">
      <g>
        <rect class="st0" y="0" width="115.14" height="115.14"/>
        <g>
          <line class="st1" x1="3.83" y1="111.46" x2="119.31" y2="226.94"/>
          <line class="st1" x1="6.45" y1="108.83" x2="121.93" y2="224.32"/>
          <line class="st1" x1="1.2" y1="114.08" x2="116.69" y2="229.57"/>
          <line class="st1" x1="35.32" y1="79.97" x2="150.8" y2="195.45"/>
          <line class="st1" x1="37.94" y1="77.34" x2="153.42" y2="192.83"/>
          <line class="st1" x1="30.07" y1="85.22" x2="145.55" y2="200.7"/>
          <line class="st1" x1="32.69" y1="82.59" x2="148.18" y2="198.08"/>
          <line class="st1" x1="24.82" y1="90.47" x2="140.3" y2="205.95"/>
          <line class="st1" x1="27.44" y1="87.84" x2="142.93" y2="203.32"/>
          <line class="st1" x1="19.57" y1="95.71" x2="135.06" y2="211.2"/>
          <line class="st1" x1="22.2" y1="93.09" x2="137.68" y2="208.57"/>
          <line class="st1" x1="14.32" y1="100.96" x2="129.81" y2="216.45"/>
          <line class="st1" x1="16.95" y1="98.34" x2="132.43" y2="213.82"/>
          <line class="st1" x1="9.08" y1="106.21" x2="124.56" y2="221.69"/>
          <line class="st1" x1="11.7" y1="103.59" x2="127.18" y2="219.07"/>
          <line class="st1" x1="56.31" y1="58.98" x2="171.79" y2="174.46"/>
          <line class="st1" x1="51.06" y1="64.22" x2="166.55" y2="179.71"/>
          <line class="st1" x1="53.69" y1="61.6" x2="169.17" y2="177.08"/>
          <line class="st1" x1="45.81" y1="69.47" x2="161.3" y2="184.95"/>
          <line class="st1" x1="48.44" y1="66.85" x2="163.92" y2="182.33"/>
          <line class="st1" x1="40.57" y1="74.72" x2="156.05" y2="190.2"/>
          <line class="st1" x1="43.19" y1="72.1" x2="158.67" y2="187.58"/>
        </g>
        <g>
          <line class="st1" x1="-111.32" y1="111.46" x2="4.17" y2="226.94"/>
          <line class="st1" x1="-108.69" y1="108.83" x2="6.79" y2="224.32"/>
          <line class="st1" x1="-113.94" y1="114.08" x2="1.54" y2="229.57"/>
          <line class="st1" x1="-79.83" y1="79.97" x2="35.66" y2="195.45"/>
          <line class="st1" x1="-77.2" y1="77.34" x2="38.28" y2="192.83"/>
          <line class="st1" x1="-85.07" y1="85.22" x2="30.41" y2="200.7"/>
          <line class="st1" x1="-82.45" y1="82.59" x2="33.03" y2="198.08"/>
          <line class="st1" x1="-90.32" y1="90.47" x2="25.16" y2="205.95"/>
          <line class="st1" x1="-87.7" y1="87.84" x2="27.78" y2="203.32"/>
          <line class="st1" x1="-95.57" y1="95.71" x2="19.91" y2="211.2"/>
          <line class="st1" x1="-92.95" y1="93.09" x2="22.54" y2="208.57"/>
          <line class="st1" x1="-100.82" y1="100.96" x2="14.66" y2="216.45"/>
          <line class="st1" x1="-98.2" y1="98.34" x2="17.29" y2="213.82"/>
          <line class="st1" x1="-106.07" y1="106.21" x2="9.42" y2="221.69"/>
          <line class="st1" x1="-103.44" y1="103.59" x2="12.04" y2="219.07"/>
          <line class="st1" x1="-58.83" y1="58.98" x2="56.65" y2="174.46"/>
          <line class="st1" x1="-64.08" y1="64.22" x2="51.4" y2="179.71"/>
          <line class="st1" x1="-61.46" y1="61.6" x2="54.03" y2="177.08"/>
          <line class="st1" x1="-69.33" y1="69.47" x2="46.15" y2="184.95"/>
          <line class="st1" x1="-66.7" y1="66.85" x2="48.78" y2="182.33"/>
          <line class="st1" x1="-74.58" y1="74.72" x2="40.91" y2="190.2"/>
          <line class="st1" x1="-71.95" y1="72.1" x2="43.53" y2="187.58"/>
        </g>
        <g>
          <line class="st1" x1="113.72" y1="1.56" x2="229.2" y2="117.05"/>
          <line class="st1" x1="108.47" y1="6.81" x2="223.96" y2="122.3"/>
          <line class="st1" x1="111.1" y1="4.19" x2="226.58" y2="119.67"/>
          <line class="st1" x1="103.22" y1="12.06" x2="218.71" y2="127.54"/>
          <line class="st1" x1="105.85" y1="9.44" x2="221.33" y2="124.92"/>
          <line class="st1" x1="97.98" y1="17.31" x2="213.46" y2="132.79"/>
          <line class="st1" x1="100.6" y1="14.68" x2="216.08" y2="130.17"/>
          <line class="st1" x1="92.73" y1="22.56" x2="208.21" y2="138.04"/>
          <line class="st1" x1="95.35" y1="19.93" x2="210.84" y2="135.42"/>
          <line class="st1" x1="87.48" y1="27.81" x2="202.96" y2="143.29"/>
          <line class="st1" x1="90.1" y1="25.18" x2="205.59" y2="140.66"/>
          <line class="st1" x1="82.23" y1="33.05" x2="197.71" y2="148.54"/>
          <line class="st1" x1="84.86" y1="30.43" x2="200.34" y2="145.91"/>
          <line class="st1" x1="76.98" y1="38.3" x2="192.47" y2="153.79"/>
          <line class="st1" x1="79.61" y1="35.68" x2="195.09" y2="151.16"/>
          <line class="st1" x1="71.73" y1="43.55" x2="187.22" y2="159.03"/>
          <line class="st1" x1="74.36" y1="40.93" x2="189.84" y2="156.41"/>
          <line class="st1" x1="66.49" y1="48.8" x2="181.97" y2="164.28"/>
          <line class="st1" x1="69.11" y1="46.17" x2="184.59" y2="161.66"/>
          <line class="st1" x1="61.24" y1="54.05" x2="176.72" y2="169.53"/>
          <line class="st1" x1="63.86" y1="51.42" x2="179.35" y2="166.91"/>
          <line class="st1" x1="58.61" y1="56.67" x2="174.1" y2="172.15"/>
        </g>
        <g>
          <line class="st1" x1="3.83" y1="-3.68" x2="119.31" y2="111.8"/>
          <line class="st1" x1="6.45" y1="-6.31" x2="121.93" y2="109.17"/>
          <line class="st1" x1="-1.42" y1="1.56" x2="114.06" y2="117.05"/>
          <line class="st1" x1="1.2" y1="-1.06" x2="116.69" y2="114.42"/>
          <line class="st1" x1="-6.67" y1="6.81" x2="108.81" y2="122.3"/>
          <line class="st1" x1="-4.05" y1="4.19" x2="111.44" y2="119.67"/>
          <line class="st1" x1="-11.92" y1="12.06" x2="103.57" y2="127.54"/>
          <line class="st1" x1="-9.29" y1="9.44" x2="106.19" y2="124.92"/>
          <line class="st1" x1="-17.17" y1="17.31" x2="98.32" y2="132.79"/>
          <line class="st1" x1="-14.54" y1="14.68" x2="100.94" y2="130.17"/>
          <line class="st1" x1="-22.41" y1="22.56" x2="93.07" y2="138.04"/>
          <line class="st1" x1="-19.79" y1="19.93" x2="95.69" y2="135.42"/>
          <line class="st1" x1="-27.66" y1="27.81" x2="87.82" y2="143.29"/>
          <line class="st1" x1="-25.04" y1="25.18" x2="90.44" y2="140.66"/>
          <line class="st1" x1="-32.91" y1="33.05" x2="82.57" y2="148.54"/>
          <line class="st1" x1="-30.29" y1="30.43" x2="85.2" y2="145.91"/>
          <line class="st1" x1="-38.16" y1="38.3" x2="77.32" y2="153.79"/>
          <line class="st1" x1="-35.54" y1="35.68" x2="79.95" y2="151.16"/>
          <line class="st1" x1="-43.41" y1="43.55" x2="72.08" y2="159.03"/>
          <line class="st1" x1="-40.78" y1="40.93" x2="74.7" y2="156.41"/>
          <line class="st1" x1="-48.66" y1="48.8" x2="66.83" y2="164.28"/>
          <line class="st1" x1="-46.03" y1="46.17" x2="69.45" y2="161.66"/>
          <line class="st1" x1="-53.9" y1="54.05" x2="61.58" y2="169.53"/>
          <line class="st1" x1="-51.28" y1="51.42" x2="64.2" y2="166.91"/>
          <line class="st1" x1="35.32" y1="-35.17" x2="150.8" y2="80.31"/>
          <line class="st1" x1="37.94" y1="-37.8" x2="153.42" y2="77.68"/>
          <line class="st1" x1="30.07" y1="-29.93" x2="145.55" y2="85.56"/>
          <line class="st1" x1="32.69" y1="-32.55" x2="148.18" y2="82.93"/>
          <line class="st1" x1="24.82" y1="-24.68" x2="140.3" y2="90.81"/>
          <line class="st1" x1="27.44" y1="-27.3" x2="142.93" y2="88.18"/>
          <line class="st1" x1="19.57" y1="-19.43" x2="135.06" y2="96.05"/>
          <line class="st1" x1="22.2" y1="-22.05" x2="137.68" y2="93.43"/>
          <line class="st1" x1="14.32" y1="-14.18" x2="129.81" y2="101.3"/>
          <line class="st1" x1="16.95" y1="-16.81" x2="132.43" y2="98.68"/>
          <line class="st1" x1="9.08" y1="-8.93" x2="124.56" y2="106.55"/>
          <line class="st1" x1="11.7" y1="-11.56" x2="127.18" y2="103.93"/>
          <line class="st1" x1="56.31" y1="-56.17" x2="171.79" y2="59.32"/>
          <line class="st1" x1="51.06" y1="-50.92" x2="166.55" y2="64.56"/>
          <line class="st1" x1="53.69" y1="-53.54" x2="169.17" y2="61.94"/>
          <line class="st1" x1="45.81" y1="-45.67" x2="161.3" y2="69.81"/>
          <line class="st1" x1="48.44" y1="-48.3" x2="163.92" y2="67.19"/>
          <line class="st1" x1="40.57" y1="-40.42" x2="156.05" y2="75.06"/>
          <line class="st1" x1="43.19" y1="-43.05" x2="158.67" y2="72.44"/>
          <line class="st1" x1="-56.53" y1="56.67" x2="58.95" y2="172.15"/>
        </g>
        <g>
          <line class="st1" x1="-111.32" y1="-3.68" x2="4.17" y2="111.8"/>
          <line class="st1" x1="-108.69" y1="-6.31" x2="6.79" y2="109.17"/>
          <line class="st1" x1="-113.94" y1="-1.06" x2="1.54" y2="114.42"/>
          <line class="st1" x1="-79.83" y1="-35.17" x2="35.66" y2="80.31"/>
          <line class="st1" x1="-77.2" y1="-37.8" x2="38.28" y2="77.68"/>
          <line class="st1" x1="-85.07" y1="-29.93" x2="30.41" y2="85.56"/>
          <line class="st1" x1="-82.45" y1="-32.55" x2="33.03" y2="82.93"/>
          <line class="st1" x1="-90.32" y1="-24.68" x2="25.16" y2="90.81"/>
          <line class="st1" x1="-87.7" y1="-27.3" x2="27.78" y2="88.18"/>
          <line class="st1" x1="-95.57" y1="-19.43" x2="19.91" y2="96.05"/>
          <line class="st1" x1="-92.95" y1="-22.05" x2="22.54" y2="93.43"/>
          <line class="st1" x1="-100.82" y1="-14.18" x2="14.66" y2="101.3"/>
          <line class="st1" x1="-98.2" y1="-16.81" x2="17.29" y2="98.68"/>
          <line class="st1" x1="-106.07" y1="-8.93" x2="9.42" y2="106.55"/>
          <line class="st1" x1="-103.44" y1="-11.56" x2="12.04" y2="103.93"/>
          <line class="st1" x1="-58.83" y1="-56.17" x2="56.65" y2="59.32"/>
          <line class="st1" x1="-64.08" y1="-50.92" x2="51.4" y2="64.56"/>
          <line class="st1" x1="-61.46" y1="-53.54" x2="54.03" y2="61.94"/>
          <line class="st1" x1="-69.33" y1="-45.67" x2="46.15" y2="69.81"/>
          <line class="st1" x1="-66.7" y1="-48.3" x2="48.78" y2="67.19"/>
          <line class="st1" x1="-74.58" y1="-40.42" x2="40.91" y2="75.06"/>
          <line class="st1" x1="-71.95" y1="-43.05" x2="43.53" y2="72.44"/>
        </g>
        <g>
          <line class="st1" x1="113.72" y1="-113.58" x2="229.2" y2="1.9"/>
          <line class="st1" x1="108.47" y1="-108.33" x2="223.96" y2="7.15"/>
          <line class="st1" x1="111.1" y1="-110.95" x2="226.58" y2="4.53"/>
          <line class="st1" x1="103.22" y1="-103.08" x2="218.71" y2="12.4"/>
          <line class="st1" x1="105.85" y1="-105.71" x2="221.33" y2="9.78"/>
          <line class="st1" x1="97.98" y1="-97.83" x2="213.46" y2="17.65"/>
          <line class="st1" x1="100.6" y1="-100.46" x2="216.08" y2="15.03"/>
          <line class="st1" x1="92.73" y1="-92.59" x2="208.21" y2="22.9"/>
          <line class="st1" x1="95.35" y1="-95.21" x2="210.84" y2="20.27"/>
          <line class="st1" x1="87.48" y1="-87.34" x2="202.96" y2="28.15"/>
          <line class="st1" x1="90.1" y1="-89.96" x2="205.59" y2="25.52"/>
          <line class="st1" x1="82.23" y1="-82.09" x2="197.71" y2="33.39"/>
          <line class="st1" x1="84.86" y1="-84.71" x2="200.34" y2="30.77"/>
          <line class="st1" x1="76.98" y1="-76.84" x2="192.47" y2="38.64"/>
          <line class="st1" x1="79.61" y1="-79.46" x2="195.09" y2="36.02"/>
          <line class="st1" x1="71.73" y1="-71.59" x2="187.22" y2="43.89"/>
          <line class="st1" x1="74.36" y1="-74.22" x2="189.84" y2="41.27"/>
          <line class="st1" x1="66.49" y1="-66.34" x2="181.97" y2="49.14"/>
          <line class="st1" x1="69.11" y1="-68.97" x2="184.59" y2="46.52"/>
          <line class="st1" x1="61.24" y1="-61.1" x2="176.72" y2="54.39"/>
          <line class="st1" x1="63.86" y1="-63.72" x2="179.35" y2="51.76"/>
          <line class="st1" x1="58.61" y1="-58.47" x2="174.1" y2="57.01"/>
        </g>
        <g>
          <line class="st1" x1="-1.42" y1="-113.58" x2="114.06" y2="1.9"/>
          <line class="st1" x1="-6.67" y1="-108.33" x2="108.81" y2="7.15"/>
          <line class="st1" x1="-4.05" y1="-110.95" x2="111.44" y2="4.53"/>
          <line class="st1" x1="-11.92" y1="-103.08" x2="103.57" y2="12.4"/>
          <line class="st1" x1="-9.29" y1="-105.71" x2="106.19" y2="9.78"/>
          <line class="st1" x1="-17.17" y1="-97.83" x2="98.32" y2="17.65"/>
          <line class="st1" x1="-14.54" y1="-100.46" x2="100.94" y2="15.03"/>
          <line class="st1" x1="-22.41" y1="-92.59" x2="93.07" y2="22.9"/>
          <line class="st1" x1="-19.79" y1="-95.21" x2="95.69" y2="20.27"/>
          <line class="st1" x1="-27.66" y1="-87.34" x2="87.82" y2="28.15"/>
          <line class="st1" x1="-25.04" y1="-89.96" x2="90.44" y2="25.52"/>
          <line class="st1" x1="-32.91" y1="-82.09" x2="82.57" y2="33.39"/>
          <line class="st1" x1="-30.29" y1="-84.71" x2="85.2" y2="30.77"/>
          <line class="st1" x1="-38.16" y1="-76.84" x2="77.32" y2="38.64"/>
          <line class="st1" x1="-35.54" y1="-79.46" x2="79.95" y2="36.02"/>
          <line class="st1" x1="-43.41" y1="-71.59" x2="72.08" y2="43.89"/>
          <line class="st1" x1="-40.78" y1="-74.22" x2="74.7" y2="41.27"/>
          <line class="st1" x1="-48.66" y1="-66.34" x2="66.83" y2="49.14"/>
          <line class="st1" x1="-46.03" y1="-68.97" x2="69.45" y2="46.52"/>
          <line class="st1" x1="-53.9" y1="-61.1" x2="61.58" y2="54.39"/>
          <line class="st1" x1="-51.28" y1="-63.72" x2="64.2" y2="51.76"/>
          <line class="st1" x1="-56.53" y1="-58.47" x2="58.95" y2="57.01"/>
        </g>
      </g>
    </pattern>
  </defs>
  <g id="First_Floor">
    <rect class="st5" y="0" width="1224" height="792"/>
  </g>
  <g id="Third_Floor">
    <g id="Third_Floor_Offices_x2F_Desks">
      <rect id="Floor3-338" class="st0" x="633.41" y="521.76" width="58.78" height="57.57" transform="translate(116.97 -116.14) rotate(10.98)"/>
      <rect id="Floor3-335" class="st0" x="759.06" y="457.39" width="38.93" height="46.76" transform="translate(101.55 -134.82) rotate(10.58)"/>
      <rect id="Floor3-319" class="st0" x="1037.6" y="338.11" width="57.9" height="76.38" transform="translate(81.54 -179.48) rotate(10)"/>
      <rect id="Floor3-362H" class="st0" x="163.62" y="329.91" width="25.23" height="13.91"/>
      <rect id="Floor3-358" class="st0" x="129.29" y="502.75" width="34.99" height="58.56"/>
      <polygon id="Floor3-310" class="st0" points="775.5 300.61 691.87 285.55 694.72 270.59 682.92 267.79 693.2 212.7 788.25 229.82 775.5 300.61"/>
      <rect id="Floor3-318" class="st0" x="914.67" y="263.76" width="134.95" height="71.93" transform="translate(68.68 -169.34) rotate(10.21)"/>
      <rect id="Floor3-357" class="st0" x="165.59" y="503.81" width="38.32" height="56.77"/>
      <rect id="Floor3-349" class="st0" x="396.19" y="504.89" width="41.22" height="56.77"/>
      <rect id="Floor3-347" class="st0" x="437.78" y="504.62" width="57.99" height="56.77"/>
      <rect id="Floor3-359" class="st0" x="70.48" y="464.59" width="46.75" height="35.61"/>
      <rect id="Floor3-360" class="st0" x="70.65" y="421.17" width="46.75" height="42.55"/>
      <rect id="Floor3-367" class="st0" x="70.58" y="291.97" width="49.03" height="43.22"/>
      <rect id="Floor3-369" class="st0" x="126.19" y="193.39" width="59.48" height="59.48"/>
      <rect id="Floor3-370" class="st0" x="185.14" y="194.32" width="38.4" height="58.43"/>
      <rect id="Floor3-377" class="st0" x="301.01" y="193.26" width="38.99" height="58.99"/>
      <rect id="Floor3-378" class="st0" x="339.91" y="193.75" width="38.99" height="58.78"/>
      <rect id="Floor3-380" class="st0" x="377.31" y="193.69" width="38.99" height="59.11"/>
      <rect id="Floor3-382" class="st0" x="416.8" y="193.14" width="76.93" height="58.83"/>
      <rect id="Floor3-311" class="st0" x="781.19" y="232.54" width="39.15" height="71.93" transform="translate(60.27 -137.69) rotate(10.21)"/>
      <rect id="Floor3-316" class="st0" x="858.58" y="246.99" width="58.27" height="71.93" transform="translate(64.21 -152.87) rotate(10.21)"/>
      <rect id="Floor3-351P" class="st0" x="365.68" y="518.48" width="25.42" height="29.19"/>
      <rect id="Floor3-339" class="st0" x="660.01" y="440.39" width="40.4" height="47.24" transform="translate(84.19 -104.1) rotate(9.33)"/>
      <rect id="Floor3-336" class="st0" x="691" y="530.33" width="38.93" height="57.57" transform="translate(96.97 -104.95) rotate(9.07)"/>
      <rect id="Floor3-334" class="st0" x="729.89" y="536.49" width="38.93" height="57.57" transform="translate(110.24 -122.19) rotate(10.06)"/>
      <rect id="Floor3-332A" class="st0" x="777.29" y="544.52" width="26.4" height="14.24" transform="translate(108.49 -129.58) rotate(10.06)"/>
      <rect id="Floor3-332D" class="st0" x="802.23" y="549.01" width="26.4" height="14.24" transform="translate(109.66 -133.87) rotate(10.06)"/>
      <rect id="Floor3-332B" class="st0" x="774.51" y="558.25" width="26.4" height="14.24" transform="translate(110.85 -128.88) rotate(10.06)"/>
      <rect id="Floor3-332E" class="st0" x="799.52" y="563.14" width="26.4" height="14.24" transform="translate(112.08 -133.17) rotate(10.06)"/>
      <rect id="Floor3-332C" class="st0" x="772.07" y="573.47" width="26.4" height="14.24" transform="translate(113.47 -128.22) rotate(10.06)"/>
      <rect id="Floor3-332F" class="st0" x="796.53" y="578.09" width="26.4" height="14.24" transform="translate(114.65 -132.42) rotate(10.06)"/>
      <rect id="Floor3-332G" class="st0" x="842.19" y="556.62" width="26.4" height="14.24" transform="translate(111.6 -140.73) rotate(10.06)"/>
      <rect id="Floor3-332H" class="st0" x="839.47" y="570.48" width="26.4" height="14.24" transform="translate(113.98 -140.04) rotate(10.06)"/>
      <rect id="Floor3-332I" class="st0" x="837.02" y="584.89" width="26.4" height="14.24" transform="translate(116.46 -139.39) rotate(10.06)"/>
      <rect id="Floor3-328" class="st0" x="864.18" y="562.1" width="57.15" height="57.57" transform="translate(116.92 -146.84) rotate(10.06)"/>
      <rect id="Floor3-327" class="st0" x="920.92" y="573.94" width="75.53" height="57.57" transform="translate(120 -158.17) rotate(10.06)"/>
      <rect id="Floor3-337" class="st0" x="700.24" y="446.95" width="38.95" height="47.24" transform="translate(85.78 -110.42) rotate(9.33)"/>
      <rect id="Floor3-333" class="st0" x="797.25" y="463.8" width="38.93" height="46.76" transform="translate(103.38 -141.72) rotate(10.58)"/>
      <rect id="Floor3-331" class="st0" x="835.56" y="470.16" width="37.43" height="46.76" transform="translate(93.12 -134.17) rotate(9.5)"/>
      <rect id="Floor3-329" class="st0" x="873.4" y="477.79" width="49.73" height="46.76" transform="translate(100.67 -148.36) rotate(10)"/>
      <rect id="Floor3-325" class="st0" x="923.29" y="487.24" width="50.08" height="46.76" transform="translate(97.23 -149.45) rotate(9.5)"/>
      <rect id="Floor3-321" class="st0" x="1024.79" y="413.29" width="59.74" height="58.04" transform="translate(92.83 -176.41) rotate(10)"/>
      <rect id="Floor3-324" class="st0" x="1015.1" y="471.58" width="59.74" height="58.04" transform="translate(102.8 -173.85) rotate(10)"/>
      <rect id="Floor3-326" class="st0" x="1005.12" y="528.13" width="59.74" height="57.33" transform="translate(112.41 -171.26) rotate(10)"/>
      <rect id="Floor3-356" class="st0" x="207.27" y="420.77" width="40.89" height="46.67"/>
      <rect id="Floor3-355" class="st0" x="248.73" y="420.9" width="41.46" height="46.67"/>
      <rect id="Floor3-354" class="st0" x="289.6" y="421.77" width="41.46" height="46.67"/>
      <rect id="Floor3-366" class="st0" x="206.95" y="288.52" width="40.89" height="46.67"/>
      <rect id="Floor3-371" class="st0" x="249.02" y="288.85" width="40.89" height="46.67"/>
      <rect id="Floor3-352" class="st0" x="351.73" y="421.06" width="38.81" height="47.2"/>
      <rect id="Floor3-350" class="st3" x="391" y="421.67" width="38.81" height="46.67"/>
      <rect id="Floor3-348" class="st0" x="429.54" y="421.66" width="45.49" height="46.67"/>
      <rect id="Floor3-379" class="st0" x="352.05" y="288.68" width="38.81" height="47.2"/>
      <rect id="Floor3-381" class="st0" x="391.17" y="288.68" width="38.81" height="47.2"/>
      <rect id="Floor3-383" class="st0" x="429.88" y="288.68" width="51.87" height="47.2"/>
      <rect id="Floor3-309" class="st0" x="684.74" y="310.14" width="39.15" height="45.36" transform="translate(70.15 -119.57) rotate(10.21)"/>
      <rect id="Floor3-308" class="st0" x="723.17" y="318.38" width="39.15" height="45.36" transform="translate(72.22 -126.26) rotate(10.21)"/>
      <rect id="Floor3-315" class="st0" x="813.35" y="333.13" width="39.15" height="45.36" transform="translate(76.26 -142.01) rotate(10.21)"/>
      <rect id="Floor3-346" class="st0" x="525.76" y="421.03" width="44.94" height="45.89"/>
      <rect id="Floor3-341" class="st0" x="573.29" y="425.92" width="46.82" height="45.89" transform="translate(84.58 -94.52) rotate(9.74)"/>
      <rect id="Floor3-362A" class="st0" x="137.8" y="329.57" width="25.23" height="13.91"/>
      <rect id="Floor3-372A" class="st0" x="224.18" y="207.76" width="25.23" height="13.91"/>
      <rect id="Floor3-372B" class="st0" x="224.18" y="222.22" width="25.23" height="13.91"/>
      <rect id="Floor3-372C" class="st0" x="224.18" y="236.85" width="25.23" height="13.91"/>
      <rect id="Floor3-372D" class="st0" x="275.4" y="207.76" width="25.23" height="13.91"/>
      <rect id="Floor3-372E" class="st0" x="275.4" y="222.22" width="25.23" height="13.91"/>
      <rect id="Floor3-372F" class="st0" x="275.4" y="236.85" width="25.23" height="13.91"/>
      <rect id="Floor3-351J" class="st0" x="301.54" y="518.18" width="25.42" height="14.7"/>
      <rect id="Floor3-351K" class="st0" x="301.54" y="533.67" width="25.42" height="14.7"/>
      <rect id="Floor3-362B" class="st0" x="137.78" y="344.3" width="25.23" height="13.91"/>
      <rect id="Floor3-362I" class="st0" x="163.68" y="344.3" width="25.23" height="13.91"/>
      <rect id="Floor3-362C" class="st0" x="137.78" y="358.76" width="25.23" height="13.91"/>
      <rect id="Floor3-362J" class="st0" x="163.68" y="358.76" width="25.23" height="13.91"/>
      <rect id="Floor3-362D" class="st0" x="137.78" y="373.39" width="25.23" height="13.91"/>
      <rect id="Floor3-362K" class="st0" x="163.68" y="373.39" width="25.23" height="13.91"/>
      <rect id="Floor3-362E" class="st0" x="137.89" y="392.56" width="25.23" height="13.91"/>
      <rect id="Floor3-362L" class="st0" x="163.78" y="392.56" width="25.23" height="13.91"/>
      <rect id="Floor3-362F" class="st0" x="137.89" y="407.02" width="25.23" height="13.91"/>
      <rect id="Floor3-362M" class="st0" x="163.78" y="407.02" width="25.23" height="13.91"/>
      <rect id="Floor3-362G" class="st0" x="137.89" y="421.64" width="25.23" height="13.91"/>
      <rect id="Floor3-351E" class="st0" x="235.21" y="518.98" width="25.42" height="29.19"/>
      <rect id="Floor3-351D" class="st0" x="235.21" y="503.89" width="25.42" height="14.7"/>
      <rect id="Floor3-351C" class="st0" x="209.39" y="533.67" width="25.42" height="14.7"/>
      <rect id="Floor3-351L" class="st0" x="339.67" y="503.69" width="25.42" height="14.7"/>
      <rect id="Floor3-351M" class="st0" x="339.67" y="518.38" width="25.42" height="14.7"/>
      <rect id="Floor3-351N" class="st0" x="339.67" y="533.08" width="25.42" height="14.7"/>
      <rect id="Floor3-351A" class="st0" x="209.39" y="504.28" width="25.42" height="14.7"/>
      <rect id="Floor3-351B" class="st0" x="209.39" y="518.98" width="25.42" height="14.7"/>
      <rect id="Floor3-351O" class="st0" x="365.48" y="503.29" width="25.42" height="14.7"/>
      <rect id="Floor3-351F" class="st0" x="275.72" y="503.69" width="25.42" height="14.7"/>
      <rect id="Floor3-351I" class="st0" x="301.54" y="503.89" width="25.42" height="14.7"/>
      <rect id="Floor3-351G" class="st0" x="275.72" y="518.18" width="25.42" height="14.7"/>
      <rect id="Floor3-351H" class="st0" x="275.72" y="533.67" width="25.42" height="14.7"/>
      <rect id="Floor3-362N" class="st0" x="163.78" y="421.64" width="25.23" height="13.91"/>
    </g>
    <polygon class="st8" points="1102.45 343.93 1044.82 334.02 1051.77 293.67 1109.4 303.59 1102.45 343.93"/>
    <rect class="st8" x="69.71" y="212.17" width="57.38" height="40.53"/>
    <line class="st2" x1="409.88" y1="288.31" x2="463.99" y2="288.31"/>
    <text class="st9" transform="translate(80.35 395.77)"><tspan x="0" y="0">EXIT</tspan></text>
    <g>
      <path d="M365.33,372.99c0,.51-.41.92-.92.92s-.92-.41-.92-.92.41-.92.92-.92.92.41.92.92h0Z"/>
      <path d="M364.41,373.93c-.51,0-.93-.42-.93-.93s.42-.93.93-.93.93.42.93.93-.42.93-.93.93ZM364.41,372.08c-.5,0-.91.41-.91.91s.41.91.91.91.91-.41.91-.91-.41-.91-.91-.91Z"/>
      <path d="M373.41,372.99c0,.51-.41.92-.92.92s-.92-.41-.92-.92.41-.92.92-.92.92.41.92.92h0Z"/>
      <path d="M372.49,373.93c-.51,0-.93-.42-.93-.93s.42-.93.93-.93.93.42.93.93-.42.93-.93.93ZM372.49,372.08c-.5,0-.91.41-.91.91s.41.91.91.91.91-.41.91-.91-.41-.91-.91-.91Z"/>
      <path d="M375.09,378.29l-.07.02c-.18.06-.38-.04-.44-.22l-.92-2.77-.19.06,1.17,3.83c.06.18-.08.37-.27.37h-.72v3.7c0,.27-.22.48-.48.48s-.48-.22-.48-.48v-3.7h-.38v3.7c0,.27-.22.48-.48.48s-.48-.22-.48-.48v-3.7h-.72c-.19,0-.33-.18-.27-.37l1.17-3.83-.19-.06-.92,2.77c-.06.18-.26.28-.45.22l-.07-.02c-.18-.06-.28-.26-.22-.44l.92-2.77.1-.31c.14-.41.52-.67.93-.67h1.74c.41,0,.79.26.93.67l.1.31.92,2.77c.06.18-.04.38-.22.44h0Z"/>
      <path d="M366.42,375.05v3.25c0,.19-.16.35-.35.35h-.07c-.19,0-.35-.16-.35-.35v-2.92h-.2v7.89c0,.27-.22.48-.48.48s-.48-.22-.48-.48v-4.62h-.38v4.62c0,.27-.22.48-.48.48s-.48-.22-.48-.48v-7.89h-.2v2.92c0,.19-.16.35-.35.35h-.07c-.19,0-.35-.16-.35-.35v-3.25c0-.27.11-.52.29-.69.18-.18.42-.29.69-.29h2.31c.27,0,.52.11.69.29.18.18.29.42.29.69h0Z"/>
      <path d="M368.36,384.79h0c.13,0,.23-.1.23-.23v-13.29c0-.13-.1-.23-.23-.23h0c-.13,0-.23.1-.23.23v13.29c0,.13.1.23.23.23h0Z"/>
    </g>
    <polygon class="st4" points="589.42 379.5 591.29 383.3 595.49 383.91 592.45 386.87 593.17 391.05 589.42 389.07 585.67 391.05 586.38 386.87 583.35 383.91 587.54 383.3 589.42 379.5"/>
    <polygon class="st4" points="538.16 351.64 540.03 355.44 544.23 356.05 541.19 359.01 541.91 363.18 538.16 361.21 534.41 363.18 535.12 359.01 532.09 356.05 536.28 355.44 538.16 351.64"/>
    <polygon class="st4" points="928.88 445.02 930.09 449.08 934.12 450.39 930.63 452.79 930.64 457.03 927.27 454.46 923.25 455.77 924.65 451.78 922.16 448.35 926.39 448.45 928.88 445.02"/>
    <polygon class="st4" points="538.16 396.2 540.03 400 544.23 400.61 541.19 403.57 541.91 407.74 538.16 405.77 534.41 407.74 535.12 403.57 532.09 400.61 536.28 400 538.16 396.2"/>
    <polygon class="st4" points="793.18 349.39 794.39 353.45 798.42 354.76 794.93 357.16 794.94 361.4 791.57 358.83 787.54 360.14 788.95 356.15 786.45 352.72 790.69 352.82 793.18 349.39"/>
    <line class="st2" x1="248.19" y1="420.99" x2="248.19" y2="469.01"/>
    <polyline class="st2" points="313.86 421.19 331.5 421.34 331.51 469.42"/>
    <line class="st2" x1="70.06" y1="335.73" x2="70.06" y2="252.91"/>
    <line class="st2" x1="301.13" y1="504" x2="301.13" y2="547.85"/>
    <polyline class="st2" points="275.53 533.11 300.82 533.11 326.73 533.11"/>
    <polyline class="st2" points="275.53 518.64 300.82 518.64 326.73 518.64"/>
    <line class="st2" x1="275.53" y1="504.16" x2="326.73" y2="504.16"/>
    <line class="st2" x1="235.08" y1="504" x2="235.08" y2="547.85"/>
    <line class="st2" x1="209.48" y1="533.11" x2="234.64" y2="533.11"/>
    <polyline class="st2" points="209.48 518.64 234.64 518.64 260.68 518.64"/>
    <line class="st2" x1="209.48" y1="504.16" x2="260.68" y2="504.16"/>
    <line class="st2" x1="364.99" y1="504" x2="364.99" y2="547.85"/>
    <line class="st2" x1="339.4" y1="533.11" x2="365.31" y2="533.11"/>
    <polyline class="st2" points="339.4 518.64 365.31 518.64 390.59 518.64"/>
    <polyline class="st2" points="339.4 504.16 365.31 504.16 390.59 504.16"/>
    <line class="st2" x1="869.11" y1="562.47" x2="861.27" y2="605.61"/>
    <g>
      <line class="st2" x1="838.72" y1="582.53" x2="863.71" y2="587.07"/>
      <line class="st2" x1="841.31" y1="568.29" x2="866.1" y2="572.79"/>
      <line class="st2" x1="843.89" y1="554.05" x2="868.53" y2="558.52"/>
    </g>
    <g>
      <line class="st2" x1="804.12" y1="546.66" x2="796.29" y2="589.8"/>
      <line class="st2" x1="773.74" y1="570.73" x2="824.11" y2="579.88"/>
      <line class="st2" x1="776.32" y1="556.49" x2="826.69" y2="565.64"/>
      <line class="st2" x1="778.91" y1="542.24" x2="829.28" y2="551.39"/>
    </g>
    <g>
      <line class="st2" x1="249.65" y1="221.94" x2="223.81" y2="221.92"/>
      <line class="st2" x1="249.64" y1="236.42" x2="223.53" y2="236.4"/>
      <line class="st2" x1="249.63" y1="250.9" x2="224.09" y2="250.87"/>
    </g>
    <line class="st2" x1="301.36" y1="221.94" x2="275.52" y2="221.92"/>
    <line class="st2" x1="301.49" y1="236.42" x2="275.38" y2="236.4"/>
    <line class="st2" x1="301.21" y1="250.9" x2="275.67" y2="250.87"/>
    <g>
      <path class="st6" d="M882.42,415.44c1.09,0,1.97-.88,1.97-1.97s-.88-1.97-1.97-1.97-1.97.88-1.97,1.97.88,1.97,1.97,1.97ZM882.42,412.09c.76,0,1.38.62,1.38,1.38s-.62,1.38-1.38,1.38-1.38-.62-1.38-1.38.62-1.38,1.38-1.38Z"/>
      <path class="st6" d="M881.86,419.96c.22.37.62.6,1.05.6.13,0,.27-.02.39-.06l2.3-.78c.61-.21.98-.84.84-1.45-.08-.34-.3-.63-.6-.79-.3-.17-.66-.2-.99-.09l-1.4.47-.85-1.43c-.22-.37-.59-.63-1.03-.72-.25-.05-.54-.22-.77-.43-.3-.28-.67-.43-1.07-.43h-2.11c-.39,0-.75.18-.98.49l-1.62,2.17c-.4.54-.32,1.31.18,1.72.22.18.49.27.77.27.39,0,.75-.18.98-.49l1.27-1.71h.89l-3.02,6.4-2.7.3c-.63.06-1.12.56-1.15,1.18-.01.34.11.66.34.9.23.24.55.37.88.37.04,0,.08,0,.12,0l3.47-.37c.47-.04.86-.34,1.02-.76l.81-1.82,1.67,1.36.59,2.71c.12.56.62.97,1.2.97.21,0,.42-.06.61-.16.46-.26.7-.82.58-1.36l-.7-3.21c-.08-.35-.31-.66-.63-.83l-1.54-1.35.94-2.01.23.38ZM881.33,418.82l-1.27,2.72c-.06.12-.03.26.07.35l1.73,1.52s.04.03.07.05c.18.08.31.25.35.44l.7,3.21c.06.29-.06.59-.3.72-.1.06-.2.08-.31.08-.3,0-.55-.21-.62-.5l-.61-2.81c-.01-.07-.05-.12-.1-.17l-2.05-1.67c-.05-.04-.12-.07-.19-.07-.02,0-.05,0-.07,0-.09.02-.16.08-.2.17l-.98,2.18c-.09.22-.29.38-.54.4l-3.47.37c-.19.02-.38-.05-.51-.19-.12-.12-.18-.29-.18-.47.01-.31.28-.58.61-.61l2.87-.31c.1-.01.19-.07.24-.17l3.3-6.97c.04-.09.04-.2-.02-.28-.05-.09-.15-.14-.25-.14h-1.51c-.09,0-.18.04-.24.12l-1.36,1.83c-.12.16-.31.25-.51.25-.15,0-.28-.05-.4-.14-.26-.21-.3-.62-.08-.9l1.62-2.17c.12-.16.31-.25.51-.25h2.11c.24,0,.47.1.66.27.31.29.7.51,1.05.58.28.06.51.22.65.45l.97,1.64c.07.12.22.17.35.13l1.62-.55c.17-.06.35-.04.51.05.16.09.27.23.31.41h0c.07.31-.13.64-.45.75l-2.3.78c-.28.09-.6-.03-.75-.28l-.51-.86c-.06-.09-.16-.15-.27-.14-.11,0-.21.07-.25.17Z"/>
      <path class="st6" d="M891.84,408.18h-11.61c-.16,0-.3.13-.3.3v2.78c0,.16.13.3.3.3s.3-.13.3-.3v-2.49h11.02v19.14h-5.57c-.16,0-.3.13-.3.3s.13.3.3.3h5.86c.16,0,.3-.13.3-.3v-19.73c0-.16-.13-.3-.3-.3Z"/>
    </g>
    <g>
      <path class="st6" d="M88.44,365.2c1.09,0,1.97-.88,1.97-1.97s-.88-1.97-1.97-1.97-1.97.88-1.97,1.97.88,1.97,1.97,1.97ZM88.44,361.85c.76,0,1.38.62,1.38,1.38s-.62,1.38-1.38,1.38-1.38-.62-1.38-1.38.62-1.38,1.38-1.38Z"/>
      <path class="st6" d="M87.89,369.73c.22.37.62.6,1.05.6.13,0,.27-.02.39-.06l2.3-.78c.61-.21.98-.84.84-1.45-.08-.34-.3-.63-.6-.79-.3-.17-.66-.2-.99-.09l-1.4.47-.85-1.43c-.22-.37-.59-.63-1.03-.72-.25-.05-.54-.22-.77-.43-.3-.28-.67-.43-1.07-.43h-2.11c-.39,0-.75.18-.98.49l-1.62,2.17c-.4.54-.32,1.31.18,1.72.22.18.49.27.77.27.39,0,.75-.18.98-.49l1.27-1.71h.89l-3.02,6.4-2.7.3c-.63.06-1.12.56-1.15,1.18-.01.34.11.66.34.9.23.24.55.37.88.37.04,0,.08,0,.12,0l3.47-.37c.47-.04.86-.34,1.02-.76l.81-1.82,1.67,1.36.59,2.71c.12.56.62.97,1.2.97.21,0,.42-.06.61-.16.46-.26.7-.82.58-1.36l-.7-3.21c-.08-.35-.31-.66-.63-.83l-1.54-1.35.94-2.01.23.38ZM87.36,368.58l-1.27,2.72c-.06.12-.03.26.07.35l1.73,1.52s.04.03.07.05c.18.08.31.25.35.44l.7,3.21c.06.29-.06.59-.3.72-.1.06-.2.08-.31.08-.3,0-.55-.21-.62-.5l-.61-2.81c-.01-.07-.05-.12-.1-.17l-2.05-1.67c-.05-.04-.12-.07-.19-.07-.02,0-.05,0-.07,0-.09.02-.16.08-.2.17l-.98,2.18c-.09.22-.29.38-.54.4l-3.47.37c-.19.02-.38-.05-.51-.19-.12-.12-.18-.29-.18-.47.01-.31.28-.58.61-.61l2.87-.31c.1-.01.19-.07.24-.17l3.3-6.97c.04-.09.04-.2-.02-.28-.05-.09-.15-.14-.25-.14h-1.51c-.09,0-.18.04-.24.12l-1.36,1.83c-.12.16-.31.25-.51.25-.15,0-.28-.05-.4-.14-.26-.21-.3-.62-.08-.9l1.62-2.17c.12-.16.31-.25.51-.25h2.11c.24,0,.47.1.66.27.31.29.7.51,1.05.58.28.06.51.22.65.45l.97,1.64c.07.12.22.17.35.13l1.62-.55c.17-.06.35-.04.51.05.16.09.27.23.31.41h0c.07.31-.13.64-.45.75l-2.3.78c-.28.09-.6-.03-.75-.28l-.51-.86c-.06-.09-.16-.15-.27-.14-.11,0-.21.07-.25.17Z"/>
      <path class="st6" d="M97.86,357.95h-11.61c-.16,0-.3.13-.3.3v2.78c0,.16.13.3.3.3s.3-.13.3-.3v-2.49h11.02v19.14h-5.57c-.16,0-.3.13-.3.3s.13.3.3.3h5.86c.16,0,.3-.13.3-.3v-19.73c0-.16-.13-.3-.3-.3Z"/>
    </g>
    <g>
      <text class="st9" transform="translate(67.86 753.95) rotate(.05)"><tspan x="0" y="0">SPACE SAVED / REMOTE WORKER</tspan></text>
      <rect class="st7" x="44" y="746.61" width="10.09" height="10.09"/>
      <g>
        <polygon class="st4" points="47.38 677.66 49.25 681.46 53.45 682.07 50.41 685.02 51.13 689.2 47.38 687.23 43.63 689.2 44.34 685.02 41.31 682.07 45.5 681.46 47.38 677.66"/>
        <text class="st9" transform="translate(65.67 685.74) rotate(.05)"><tspan x="0" y="0">CONFERENCE/HUDDLE</tspan></text>
      </g>
      <g>
        <text class="st9" transform="translate(65.67 728.77) rotate(.05)"><tspan x="0" y="0">RESTROOMS</tspan></text>
        <g>
          <path d="M45.93,719.93c0,.51-.41.92-.92.92s-.92-.41-.92-.92.41-.92.92-.92.92.41.92.92h0Z"/>
          <path d="M45.01,720.86c-.51,0-.93-.42-.93-.93s.42-.93.93-.93.93.42.93.93-.42.93-.93.93ZM45.01,719.02c-.5,0-.91.41-.91.91s.41.91.91.91.91-.41.91-.91-.41-.91-.91-.91Z"/>
          <path d="M54.01,719.93c0,.51-.41.92-.92.92s-.92-.41-.92-.92.41-.92.92-.92.92.41.92.92h0Z"/>
          <path d="M53.09,720.86c-.51,0-.93-.42-.93-.93s.42-.93.93-.93.93.42.93.93-.42.93-.93.93ZM53.09,719.02c-.5,0-.91.41-.91.91s.41.91.91.91.91-.41.91-.91-.41-.91-.91-.91Z"/>
          <path d="M55.69,725.23l-.07.02c-.18.06-.38-.04-.44-.22l-.92-2.77-.19.06,1.17,3.83c.06.18-.08.37-.27.37h-.72v3.7c0,.27-.22.48-.48.48s-.48-.22-.48-.48v-3.7h-.38v3.7c0,.27-.22.48-.48.48s-.48-.22-.48-.48v-3.7h-.72c-.19,0-.33-.18-.27-.37l1.17-3.83-.19-.06-.92,2.77c-.06.18-.26.28-.45.22l-.07-.02c-.18-.06-.28-.26-.22-.44l.92-2.77.1-.31c.14-.41.52-.67.93-.67h1.74c.41,0,.79.26.93.67l.1.31.92,2.77c.06.18-.04.38-.22.44h0Z"/>
          <path d="M47.02,721.99v3.25c0,.19-.16.35-.35.35h-.07c-.19,0-.35-.16-.35-.35v-2.92h-.2v7.89c0,.27-.22.48-.48.48s-.48-.22-.48-.48v-4.62h-.38v4.62c0,.27-.22.48-.48.48s-.48-.22-.48-.48v-7.89h-.2v2.92c0,.19-.16.35-.35.35h-.07c-.19,0-.35-.16-.35-.35v-3.25c0-.27.11-.52.29-.69.18-.18.42-.29.69-.29h2.31c.27,0,.52.11.69.29.18.18.29.42.29.69h0Z"/>
          <path d="M48.96,731.73h0c.13,0,.23-.1.23-.23v-13.29c0-.13-.1-.23-.23-.23h0c-.13,0-.23.1-.23.23v13.29c0,.13.1.23.23.23h0Z"/>
        </g>
      </g>
      <g>
        <text class="st9" transform="translate(65.67 707.37) rotate(.05)"><tspan x="0" y="0">EXIT/STAIRS</tspan></text>
        <g>
          <path class="st6" d="M46.99,703.36c.63,0,1.14-.51,1.14-1.14s-.51-1.14-1.14-1.14-1.14.51-1.14,1.14.51,1.14,1.14,1.14ZM46.99,701.41c.44,0,.8.36.8.8s-.36.8-.8.8-.8-.36-.8-.8.36-.8.8-.8Z"/>
          <path class="st6" d="M46.66,705.99c.13.21.36.35.61.35.08,0,.15-.01.23-.04l1.33-.45c.36-.12.57-.49.49-.84-.05-.2-.17-.36-.35-.46-.17-.1-.38-.12-.57-.05l-.81.27-.49-.83c-.13-.22-.34-.36-.6-.42-.14-.03-.32-.13-.45-.25-.17-.16-.39-.25-.62-.25h-1.23c-.22,0-.44.11-.57.29l-.94,1.26c-.23.31-.18.76.11,1,.13.1.29.16.45.16.22,0,.44-.11.57-.29l.74-.99h.52l-1.76,3.71-1.57.17c-.37.03-.65.33-.66.68,0,.2.06.38.2.52.13.14.32.22.51.22.02,0,.04,0,.07,0l2.02-.21c.27-.03.5-.2.59-.44l.47-1.06.97.79.34,1.57c.07.32.36.56.69.56.12,0,.24-.03.35-.09.27-.15.41-.48.34-.79l-.4-1.87c-.04-.21-.18-.38-.37-.48l-.89-.78.55-1.17.13.22ZM46.36,705.32l-.74,1.58c-.03.07-.02.15.04.2l1.01.88s.03.02.04.03c.1.05.18.14.2.25l.4,1.87c.04.17-.03.34-.17.42-.06.03-.12.05-.18.05-.17,0-.32-.12-.36-.29l-.35-1.63s-.03-.07-.06-.1l-1.19-.97s-.07-.04-.11-.04c-.01,0-.03,0-.04,0-.05.01-.1.05-.12.1l-.57,1.27c-.05.13-.17.22-.31.23l-2.02.21c-.11.01-.22-.03-.3-.11-.07-.07-.11-.17-.1-.27,0-.18.16-.33.36-.35l1.67-.18c.06,0,.11-.04.14-.1l1.91-4.05c.03-.05.02-.12-.01-.17-.03-.05-.09-.08-.15-.08h-.88c-.05,0-.11.03-.14.07l-.79,1.06c-.07.09-.18.15-.3.15-.09,0-.17-.03-.23-.08-.15-.12-.17-.36-.05-.52l.94-1.26c.07-.09.18-.15.29-.15h1.23c.14,0,.28.06.38.16.18.17.41.29.61.34.16.04.3.13.38.26l.56.95c.04.07.13.1.2.08l.94-.32c.1-.03.2-.02.3.03.09.05.16.14.18.24h0c.04.18-.07.37-.26.44l-1.33.45c-.16.05-.35-.02-.43-.16l-.3-.5c-.03-.05-.09-.09-.16-.08-.06,0-.12.04-.15.1Z"/>
          <path class="st6" d="M52.45,699.15h-6.74c-.09,0-.17.08-.17.17v1.61c0,.09.08.17.17.17s.17-.08.17-.17v-1.44h6.4v11.11h-3.23c-.09,0-.17.08-.17.17s.08.17.17.17h3.4c.09,0,.17-.08.17-.17v-11.45c0-.09-.08-.17-.17-.17Z"/>
        </g>
      </g>
    </g>
    <polyline class="st2" points="376.66 467.78 351.22 467.59 351.22 416.09 491.79 416.09 491.79 335.73 351.22 335.73 351.83 288.82 376.87 288.61"/>
    <line class="st2" x1="223.71" y1="192.97" x2="223.71" y2="265.99"/>
    <line class="st2" x1="301.09" y1="192.97" x2="301.09" y2="260.54"/>
    <line class="st2" x1="340.32" y1="192.97" x2="340.32" y2="252.91"/>
    <line class="st2" x1="378.46" y1="192.97" x2="378.46" y2="252.91"/>
    <line class="st2" x1="416.6" y1="192.97" x2="416.6" y2="252.91"/>
    <polyline class="st2" points="977.1 492.07 968.95 537.97 932.05 531.89"/>
    <polyline class="st2" points="921.95 253.11 909.17 323.74 963.62 333.35"/>
    <line class="st2" x1="826.61" y1="236.21" x2="814.36" y2="306.31"/>
    <polyline class="st2" points="865.03 244.19 852.18 313.65 895.48 321.86"/>
    <polyline class="st2" points="788.96 229.48 776.04 300.11 705.64 288.2"/>
    <polyline class="st2" points="987.42 337.66 1042.42 346.9 1044.89 333.76 1064.38 337.25"/>
    <polyline class="st2" points="234.23 288.41 207.14 288.41 207.35 335.82 314.68 334.59 313.86 421.19 207.37 420.73 207.37 467.59 233.52 467.59"/>
    <line class="st2" x1="395.9" y1="491.56" x2="395.9" y2="561.31"/>
    <line class="st2" x1="203.65" y1="490.56" x2="203.65" y2="561.77"/>
    <line class="st2" x1="263.79" y1="468.19" x2="316.94" y2="468.39"/>
    <line class="st2" x1="290.73" y1="420.73" x2="290.73" y2="467.59"/>
    <path class="st2" d="M390.65,288.22c0,5.45.15,47.26.15,47.26"/>
    <line class="st2" x1="429.2" y1="335.2" x2="429.2" y2="288.82"/>
    <polyline class="st2" points="108.2 402.21 108.2 335.73 70.06 335.73 70.06 420.73 115.83 420.73"/>
    <polygon class="st2" points="126.2 212.37 70.06 212.59 70.06 252.91 126.6 252.59 126.2 212.37"/>
    <polyline class="st2" points="1076.29 338.9 1102.76 343.41 1058.84 590.1 1001.17 580.86 990.97 637.23 628.89 573.68 639.97 517.44 570.26 506.28 496.15 505.16 496.15 561.31 128.91 561.31 128.91 500.28 70.06 500.28 70.06 420.73 67.06 420.54 67.46 335.84 70.06 335.73"/>
    <path class="st2" d="M524.61,288.67c0,6.54-.31,29.1-.31,29.1l66.7.21,51.23,9.22,5.13-26.68"/>
    <line class="st2" x1="877.21" y1="474.35" x2="868.8" y2="519.91"/>
    <line class="st2" x1="840.51" y1="467.59" x2="832.27" y2="514.57"/>
    <line class="st2" x1="801.54" y1="460.98" x2="793.05" y2="506.87"/>
    <polyline class="st2" points="712.01 311.19 688.2 307.08 680.19 351.62 757.16 367.22 765.57 321.45 741.76 316.73"/>
    <line class="st2" x1="571.42" y1="318.17" x2="571.35" y2="420.73"/>
    <line class="st2" x1="139.93" y1="503.16" x2="192.37" y2="503.16"/>
    <line class="st2" x1="164.85" y1="502.67" x2="164.85" y2="561.31"/>
    <line class="st2" x1="462.65" y1="468.06" x2="404.63" y2="467.67"/>
    <line class="st2" x1="277.25" y1="335.48" x2="277.25" y2="408.49"/>
    <line class="st2" x1="207.37" y1="355.89" x2="207.37" y2="404.38"/>
    <line class="st2" x1="70.06" y1="292.14" x2="120.19" y2="292.14"/>
    <line class="st2" x1="120.19" y1="265.99" x2="120.19" y2="319.38"/>
    <polyline class="st2" points="782.58 339.89 777.47 369.68 848.28 383.43 856.28 336.23"/>
    <line class="st2" x1="696.67" y1="526.44" x2="686.76" y2="582.91"/>
    <line class="st2" x1="775.42" y1="526.68" x2="763.11" y2="597.48"/>
    <polyline class="st2" points="872.51 542.28 866.42 577.19 859.79 615.13"/>
    <polyline class="st2" points="882.55 560.34 926.26 567.73 916.92 624.12"/>
    <line class="st2" x1="940.22" y1="569.57" x2="1000.71" y2="580.92"/>
    <polyline class="st2" points="1018.41 481.94 1011.02 523.6 1003.02 565.88"/>
    <line class="st2" x1="1068.9" y1="534.89" x2="1011.05" y2="524.08"/>
    <line class="st2" x1="1020.59" y1="466.36" x2="1078.54" y2="476.81"/>
    <line class="st2" x1="1030.13" y1="408.7" x2="1088.81" y2="419.34"/>
    <line class="st2" x1="1038.11" y1="368.65" x2="1023.13" y2="452.8"/>
    <line class="st2" x1="889.32" y1="475.37" x2="907.79" y2="371.12"/>
    <line class="st2" x1="928.93" y1="383.22" x2="995.02" y2="394.72"/>
    <polyline class="st2" points="998.3 375.02 1000.56 362.29 876.6 339.92 874.55 350.18 881.73 351.41"/>
    <polyline class="st2" points="615.55 476.4 623.76 430.43 578.5 423.02 571.62 457.41"/>
    <line class="st2" x1="117.47" y1="485.65" x2="117.47" y2="439.6"/>
    <line class="st2" x1="869.42" y1="391" x2="855.03" y2="469.51"/>
    <line class="st2" x1="727.19" y1="313.86" x2="719.6" y2="359.42"/>
    <line class="st2" x1="725.14" y1="590.51" x2="734.38" y2="534.27"/>
    <line class="st2" x1="710.57" y1="530.37" x2="759.41" y2="538.58"/>
    <line class="st2" x1="626.47" y1="414.03" x2="638.7" y2="343.13"/>
    <polyline class="st2" points="539.5 467.25 571.35 467.59 571.35 420.73 525.58 420.73 525.37 467.99"/>
    <polyline class="st2" points="681.84 487.89 656.39 483.38 664.39 437.82 703.75 444.16 742.17 450.75 734.98 496.59 710.98 492.61"/>
    <polyline class="st2" points="525.18 333.01 525.14 370.06 524.8 405.62"/>
    <line class="st2" x1="571.05" y1="369.7" x2="525.14" y2="370.06"/>
    <line class="st2" x1="70.05" y1="464.08" x2="118.48" y2="464.5"/>
    <line class="st2" x1="248.23" y1="288.3" x2="248.45" y2="335.1"/>
    <polyline class="st2" points="261.73 288.41 331.1 289.23 331.1 297.85"/>
    <polyline class="st2" points="290.05 334.38 289.85 311.39 289.64 288.82"/>
    <line class="st2" x1="331.51" y1="311.8" x2="289.85" y2="311.6"/>
    <line class="st2" x1="330.69" y1="326.17" x2="331.51" y2="420.78"/>
    <line class="st2" x1="315.15" y1="337.26" x2="330.91" y2="337.46"/>
    <line class="st2" x1="640.38" y1="517.65" x2="682.25" y2="525.86"/>
    <polyline class="st2" points="481.53 267.48 481.33 252.7 493.97 252.91"/>
    <polyline class="st2" points="571.01 330.28 588.66 333.15 591 317.98"/>
    <polyline class="st2" points="571.62 404.29 576.35 404.57 571.35 420.73 578.5 423.02"/>
    <polyline class="st2" points="525.04 308.93 592.36 309.34 643.66 318.37"/>
    <polyline class="st2" points="682.5 268.17 694.5 270.52 691.63 285.61"/>
    <line class="st2" x1="695.85" y1="442.25" x2="710.16" y2="357.37"/>
    <polyline class="st2" points="680.19 351.62 670.75 349.98 667.06 368.86 673.22 370.09 671.16 383.64 664.6 382.81 660.9 403.75 667.47 404.98 665.01 418.93 658.44 417.7 653.83 448.52 662.37 449.66"/>
    <line class="st2" x1="730.68" y1="434.12" x2="743.41" y2="364.34"/>
    <polyline class="st2" points="784.45 327.4 785.27 322.89 843.15 333.97"/>
    <line class="st2" x1="844.38" y1="515.8" x2="905.13" y2="526.88"/>
    <line class="st2" x1="927.29" y1="482.56" x2="919.08" y2="530.17"/>
    <line class="st2" x1="770.88" y1="502.74" x2="820.73" y2="512.04"/>
    <polyline class="st2" points="817.7 329.04 809.69 377.48 795.53 459.16"/>
    <line class="st2" x1="776.04" y1="300.11" x2="801.28" y2="305.24"/>
    <line class="st2" x1="703.75" y1="444.16" x2="696.82" y2="489.94"/>
    <line class="st2" x1="653.31" y1="504.93" x2="650.64" y2="520.11"/>
    <line class="st2" x1="395.8" y1="505.46" x2="422.07" y2="505.46"/>
    <polyline class="st2" points="450.13 504.93 481.12 505.14 481.33 489.94"/>
    <line class="st2" x1="351.42" y1="395.13" x2="351.22" y2="416.09"/>
    <line class="st2" x1="351.21" y1="360.24" x2="351.22" y2="335.73"/>
    <polyline class="st2" points="484.41 415.65 483.59 340.13 351.83 340.13"/>
    <polyline class="st2" points="390.82 467.78 390.41 421.4 351.01 420.99"/>
    <line class="st2" x1="571.35" y1="467.59" x2="600.98" y2="473.53"/>
    <line class="st2" x1="848.89" y1="426.12" x2="825.91" y2="422.01"/>
    <line class="st2" x1="882.55" y1="391.43" x2="903.07" y2="395.13"/>
    <line class="st2" x1="906.77" y1="378.71" x2="916.82" y2="380.97"/>
    <line class="st2" x1="995.84" y1="385.28" x2="987.63" y2="430.84"/>
    <polyline class="st2" points="126.2 212.37 125.8 193.98 493.97 192.97"/>
    <polyline class="st2" points="998.71 371.32 910.26 355.52 911.9 346.49"/>
    <line class="st2" x1="902.46" y1="354.29" x2="910.26" y2="355.52"/>
    <polyline class="st2" points="1101.84 342.79 1109.08 303.7 1052.25 293.57"/>
    <polyline class="st2" points="673.22 370.09 675.42 356.44 704.02 361.88 691.76 437.89 662.8 432.36 664.97 418.82"/>
    <polyline class="st2" points="667.47 404.98 669.18 395.13 671.16 383.64"/>
    <line class="st2" x1="697.21" y1="400.84" x2="669.18" y2="395.13"/>
    <line class="st2" x1="669.85" y1="392.87" x2="698.03" y2="398.39"/>
    <rect class="st2" x="763.99" y="394.86" width="11.32" height="34.76" transform="translate(89.75 -135.52) rotate(10.68)"/>
    <line class="st2" x1="132.87" y1="252.79" x2="126.6" y2="252.59"/>
    <rect class="st2" x="237.95" y="360.37" width="11.32" height="39.54"/>
    <line class="st2" x1="244.83" y1="288.3" x2="251.63" y2="288.3"/>
    <line class="st2" x1="387.04" y1="288.24" x2="393.83" y2="288.24"/>
    <polyline class="st2" points="477.52 288.52 482.08 288.52 481.99 335.73"/>
    <line class="st2" x1="641.56" y1="331.09" x2="642.23" y2="327.2"/>
    <line class="st2" x1="623.76" y1="430.43" x2="624.36" y2="427.03"/>
    <line class="st2" x1="897.25" y1="476.15" x2="914.04" y2="381.02"/>
    <polyline class="st2" points="848.06 384.08 855.56 385.53 855.05 388.15 832.27 383.84 818.52 459.78"/>
    <text class="st9" transform="translate(141.8 221.68)"><tspan x="0" y="0">OFFICE</tspan><tspan x="0" y="9.6">369</tspan></text>
    <text class="st9" transform="translate(191.65 221.68)"><tspan x="0" y="0">OFFICE</tspan><tspan x="0" y="9.6">370</tspan></text>
    <text class="st9" transform="translate(306.53 221.68)"><tspan x="0" y="0">OFFICE</tspan><tspan x="0" y="9.6">377</tspan></text>
    <text class="st9" transform="translate(345.39 221.68)"><tspan x="0" y="0">OFFICE</tspan><tspan x="0" y="9.6">378</tspan></text>
    <text class="st9" transform="translate(384.68 221.68)"><tspan x="0" y="0">OFFICE</tspan><tspan x="0" y="9.6">380</tspan></text>
    <text class="st9" transform="translate(440.06 221.68)"><tspan x="0" y="0">OFFICE</tspan><tspan x="0" y="9.6">382</tspan></text>
    <text class="st9" transform="translate(75.31 271.95)"><tspan x="0" y="0">LOUNGE</tspan><tspan x="0" y="9.6">368</tspan></text>
    <text class="st9" transform="translate(78.46 312.92)"><tspan x="0" y="0">OFFICE</tspan><tspan x="0" y="9.6">367</tspan></text>
    <text class="st9" transform="translate(78.46 438.22)"><tspan x="0" y="0">OFFICE</tspan><tspan x="0" y="9.6">360</tspan></text>
    <text class="st9" transform="translate(78.46 478.5)"><tspan x="0" y="0">OFFICE</tspan><tspan x="0" y="9.6">359</tspan></text>
    <text class="st9" transform="translate(214.54 305.73)"><tspan x="0" y="0">OFFICE</tspan><tspan x="0" y="9.6">366</tspan></text>
    <text class="st9" transform="translate(253.58 305.54)"><tspan x="0" y="0">OFFICE</tspan><tspan x="0" y="9.6">371</tspan></text>
    <text class="st9" transform="translate(292.69 305.42)"><tspan x="0" y="0">WELLNESS</tspan></text>
    <text class="st9" transform="translate(299.93 324.17)"><tspan x="0" y="0">JAN.</tspan></text>
    <text class="st9" transform="translate(224.48 400.78) rotate(-90)"><tspan x="0" y="0">COPY/PRINT</tspan></text>
    <text class="st9" transform="translate(297.91 387.72) rotate(-90)"><tspan x="0" y="0">STORAGE</tspan></text>
    <text class="st9" transform="translate(438.67 362.26)"><tspan x="0" y="0">MEN</tspan></text>
    <text class="st9" transform="translate(433.87 398.67)"><tspan x="0" y="0">WOMEN</tspan></text>
    <polyline class="st2" points="365.52 397.69 380.28 397.35 380.27 382.02 415.53 382.09 415.59 402.81"/>
    <polyline class="st2" points="365.35 359.68 379.76 359.86 379.9 374.23 415.5 373.86 415.5 377.2 484.11 376.45"/>
    <line class="st2" x1="415.64" y1="353.33" x2="415.5" y2="373.86"/>
    <polyline class="st2" points="483.99 380.36 415.53 380.4 415.53 382.29"/>
    <text class="st9" transform="translate(571.93 290.22)"><tspan x="0" y="0">COFFEE</tspan><tspan x="0" y="9.6">BAR</tspan></text>
    <text class="st9" transform="translate(583.73 448.01)"><tspan x="0" y="0">OFFICE</tspan><tspan x="0" y="9.6">341</tspan></text>
    <text class="st9" transform="translate(532.8 446.14)"><tspan x="0" y="0">OFFICE</tspan><tspan x="0" y="9.6">346</tspan></text>
    <text class="st9" transform="translate(357.61 314.03)"><tspan x="0" y="0">OFFICE</tspan><tspan x="0" y="9.6">379</tspan></text>
    <text class="st9" transform="translate(396.75 314.03)"><tspan x="0" y="0">OFFICE</tspan><tspan x="0" y="9.6">381</tspan></text>
    <text class="st9" transform="translate(442.72 314.03)"><tspan x="0" y="0">OFFICE</tspan><tspan x="0" y="9.6">383</tspan></text>
    <text class="st9" transform="translate(212.87 440.69)"><tspan x="0" y="0">OFFICE</tspan><tspan x="0" y="9.6">356</tspan></text>
    <text class="st9" transform="translate(254.14 440.69)"><tspan x="0" y="0">OFFICE</tspan><tspan x="0" y="9.6">355</tspan></text>
    <text class="st9" transform="translate(298.95 440.69)"><tspan x="0" y="0">OFFICE</tspan><tspan x="0" y="9.6">354</tspan></text>
    <text class="st9" transform="translate(358.85 440.69)"><tspan x="0" y="0">OFFICE</tspan><tspan x="0" y="9.6">352</tspan></text>
    <text class="st9" transform="translate(396.75 440.69)"><tspan x="0" y="0">OFFICE</tspan><tspan x="0" y="9.6">350</tspan></text>
    <text class="st9" transform="translate(438.99 440.69)"><tspan x="0" y="0">OFFICE</tspan><tspan x="0" y="9.6">348</tspan></text>
    <text class="st9" transform="translate(401.72 531.12)"><tspan x="0" y="0">OFFICE</tspan><tspan x="0" y="9.6">349</tspan></text>
    <text class="st9" transform="translate(449.55 531.12)"><tspan x="0" y="0">OFFICE</tspan><tspan x="0" y="9.6">347</tspan></text>
    <text class="st9" transform="translate(133.35 531.12)"><tspan x="0" y="0">OFFICE</tspan><tspan x="0" y="9.6">358</tspan></text>
    <text class="st9" transform="translate(170.62 531.12)"><tspan x="0" y="0">OFFICE</tspan><tspan x="0" y="9.6">357</tspan></text>
    <text class="st9" transform="translate(689.4 331.56) rotate(9.41)"><tspan x="0" y="0">OFFICE</tspan><tspan x="0" y="9.6">309</tspan></text>
    <text class="st9" transform="translate(727.33 338.64) rotate(9.41)"><tspan x="0" y="0">OFFICE</tspan><tspan x="0" y="9.6">308</tspan></text>
    <text class="st9" transform="translate(728.95 251.89) rotate(9.33)"><tspan x="0" y="0">OFFICE</tspan><tspan x="0" y="9.6">310</tspan></text>
    <text class="st9" transform="translate(789.88 262.15) rotate(9.33)"><tspan x="0" y="0">OFFICE</tspan><tspan x="0" y="9.6">311</tspan></text>
    <text class="st9" transform="translate(825.2 267.5) rotate(9.33)"><tspan x="0" y="0">LIBRARY</tspan></text>
    <text class="st9" transform="translate(877.99 277) rotate(9.33)"><tspan x="0" y="0">OFFICE</tspan><tspan x="0" y="9.6">316</tspan></text>
    <text class="st9" transform="translate(969.33 292.4) rotate(9.33)"><tspan x="0" y="0">OFFICE</tspan><tspan x="0" y="9.6">318</tspan></text>
    <text class="st9" transform="translate(1050.98 372.19) rotate(9.41)"><tspan x="0" y="0">OFFICE</tspan><tspan x="0" y="9.6">319</tspan></text>
    <text class="st9" transform="translate(1038.56 441.25) rotate(9.41)"><tspan x="0" y="0">OFFICE</tspan><tspan x="0" y="9.6">321</tspan></text>
    <text class="st9" transform="translate(1031.72 498.3) rotate(9.41)"><tspan x="0" y="0">OFFICE</tspan><tspan x="0" y="9.6">324</tspan></text>
    <text class="st9" transform="translate(1023.65 557.31) rotate(9.41)"><tspan x="0" y="0">OFFICE</tspan><tspan x="0" y="9.6">326</tspan></text>
    <text class="st9" transform="translate(945.9 601.99) rotate(9.41)"><tspan x="0" y="0">OFFICE</tspan><tspan x="0" y="9.6">327</tspan></text>
    <text class="st9" transform="translate(878.9 592.1) rotate(9.41)"><tspan x="0" y="0">OFFICE</tspan><tspan x="0" y="9.6">328</tspan></text>
    <text class="st9" transform="translate(884.41 498.5) rotate(9.41)"><tspan x="0" y="0">OFFICE</tspan><tspan x="0" y="9.6">329</tspan></text>
    <text class="st9" transform="translate(931.14 505.41) rotate(9.41)"><tspan x="0" y="0">OFFICE</tspan><tspan x="0" y="9.6">325</tspan></text>
    <text class="st9" transform="translate(841.98 490.9) rotate(9.41)"><tspan x="0" y="0">OFFICE</tspan><tspan x="0" y="9.6">331</tspan></text>
    <text class="st9" transform="translate(802.41 484.07) rotate(9.41)"><tspan x="0" y="0">OFFICE</tspan><tspan x="0" y="9.6">333</tspan></text>
    <text class="st9" transform="translate(764.6 478.83) rotate(9.41)"><tspan x="0" y="0">OFFICE</tspan><tspan x="0" y="9.6">335</tspan></text>
    <text class="st9" transform="translate(648.83 546.41) rotate(7.9)"><tspan x="0" y="0">OFFICE</tspan><tspan x="0" y="9.6">338</tspan></text>
    <text class="st9" transform="translate(667.86 459.17) rotate(7.9)"><tspan x="0" y="0">OFFICE</tspan><tspan x="0" y="9.6">339</tspan></text>
    <text class="st9" transform="translate(708.02 464.45) rotate(7.9)"><tspan x="0" y="0">OFFICE</tspan><tspan x="0" y="9.6">337</tspan></text>
    <text class="st9" transform="translate(719.06 418.12) rotate(-80.77)"><tspan x="0" y="0">STORAGE</tspan></text>
    <text class="st9" transform="translate(750.7 428.32) rotate(-78.7)"><tspan x="0" y="0">COPY/PRINT</tspan></text>
    <text class="st9" transform="translate(789.41 345.07) rotate(7.18)"><tspan x="0" y="0">312</tspan></text>
    <text class="st9" transform="translate(820.49 352.12) rotate(9.41)"><tspan x="0" y="0">OFFICE</tspan><tspan x="0" y="9.6">315</tspan></text>
    <text class="st9" transform="translate(697.9 553.34) rotate(7.9)"><tspan x="0" y="0">OFFICE</tspan><tspan x="0" y="9.6">336</tspan></text>
    <text class="st9" transform="translate(736.57 559.08) rotate(7.9)"><tspan x="0" y="0">OFFICE</tspan><tspan x="0" y="9.6">334</tspan></text>
    <text class="st9" transform="translate(938.72 374.21) rotate(9.41)"><tspan x="0" y="0">SERVERY</tspan></text>
    <text class="st9" transform="translate(925.72 431.62) rotate(9.41)"><tspan x="0" y="0">MEDINA</tspan><tspan x="0" y="9.6">322</tspan></text>
    <text class="st9" transform="translate(838.98 409.49) rotate(8.18)"><tspan x="0" y="0">IDF</tspan></text>
    <text class="st9" transform="translate(830.43 445.59) rotate(8.18)"><tspan x="0" y="0">ELEC</tspan></text>
    <polyline class="st2" points="755.51 498.1 762.9 453.62 977.1 491.64 983.52 455.05"/>
    <line class="st2" x1="481.63" y1="505.16" x2="496.68" y2="505.16"/>
    <line class="st2" x1="437.92" y1="561.11" x2="437.92" y2="505.27"/>
    <text class="st9" transform="translate(583.39 365.22) rotate(-.33)"><tspan x="0" y="0">COLORADO</tspan><tspan x="0" y="9.6">322</tspan></text>
    <line class="st2" x1="185.66" y1="252.49" x2="185.66" y2="194.06"/>
    <line class="st2" x1="147.17" y1="252.49" x2="212.26" y2="252.49"/>
    <polyline class="st2" points="314.2 252.53 591.34 252.9 590.96 252.91 682.5 268.17 692.92 212.06 1055.35 276.51 1044.89 333.76"/>
    <line class="st2" x1="474.76" y1="468.78" x2="485.86" y2="468.78"/>
    <line class="st2" x1="474.51" y1="421.89" x2="474.51" y2="469.35"/>
    <line class="st2" x1="485.67" y1="468.63" x2="485.67" y2="421.82"/>
    <polyline class="st2" points="390.41 421.4 429.66 421.64 491.88 422.01 491.88 416.09"/>
    <line class="st2" x1="429.81" y1="468.34" x2="429.81" y2="421.64"/>
    <line class="st2" x1="163.36" y1="329.9" x2="163.36" y2="387.68"/>
    <line class="st2" x1="137.76" y1="387.47" x2="188.96" y2="387.36"/>
    <line class="st2" x1="137.73" y1="373" x2="188.92" y2="372.88"/>
    <line class="st2" x1="137.7" y1="358.52" x2="188.89" y2="358.41"/>
    <line class="st2" x1="137.67" y1="344.05" x2="188.86" y2="343.93"/>
    <g>
      <line class="st2" x1="163.47" y1="392.11" x2="163.43" y2="435.96"/>
      <line class="st2" x1="137.84" y1="435.68" x2="189.03" y2="435.72"/>
      <line class="st2" x1="137.85" y1="421.2" x2="189.04" y2="421.24"/>
      <line class="st2" x1="137.86" y1="406.73" x2="189.05" y2="406.77"/>
      <line class="st2" x1="137.87" y1="392.25" x2="189.06" y2="392.29"/>
    </g>
    <text class="st9" transform="translate(532.09 382.88)"><tspan x="0" y="0">FANNIN</tspan><tspan x="0" y="9.6">345</tspan></text>
    <text class="st9" transform="translate(532.35 337.73) rotate(1.06)"><tspan x="0" y="0">UVALDE</tspan><tspan x="0" y="9.6">344</tspan></text>
    <line class="st2" x1="137.73" y1="329.45" x2="188.92" y2="329.33"/>
    <text class="st9" transform="translate(677.08 379.84) rotate(9.21)"><tspan x="0" y="0">ELEV</tspan></text>
    <text class="st9" transform="translate(671.34 415.76) rotate(9.21)"><tspan x="0" y="0">ELEV</tspan></text>
    <text class="st9" transform="translate(211.22 514.25) rotate(-.5)"><tspan x="0" y="0">351 A</tspan></text>
    <text class="st9" transform="translate(211.16 529.12) rotate(-.5)"><tspan x="0" y="0">351 B</tspan></text>
    <text class="st9" transform="translate(211.22 543.13) rotate(-.5)"><tspan x="0" y="0">351 C</tspan></text>
    <text class="st9" transform="translate(237.47 514.25) rotate(-.5)"><tspan x="0" y="0">351 D</tspan></text>
    <text class="st9" transform="translate(237.08 529.11) rotate(-.5)"><tspan x="0" y="0">351 E</tspan></text>
    <text class="st9" transform="translate(277.97 514.02) rotate(-.5)"><tspan x="0" y="0">351 F</tspan></text>
    <text class="st9" transform="translate(277.12 528.89) rotate(-.5)"><tspan x="0" y="0">351 G</tspan></text>
    <text class="st9" transform="translate(277.08 542.9) rotate(-.5)"><tspan x="0" y="0">351 H</tspan></text>
    <text class="st9" transform="translate(303.96 514.02) rotate(-.5)"><tspan x="0" y="0">351 I</tspan></text>
    <text class="st9" transform="translate(303.96 528.89) rotate(-.5)"><tspan x="0" y="0">351 J</tspan></text>
    <text class="st9" transform="translate(303.96 542.46) rotate(-.5)"><tspan x="0" y="0">351 K</tspan></text>
    <text class="st9" transform="translate(341.48 514.01) rotate(-.5)"><tspan x="0" y="0">351 L</tspan></text>
    <text class="st9" transform="translate(340.63 528.88) rotate(-.5)"><tspan x="0" y="0">351 M</tspan></text>
    <text class="st9" transform="translate(340.59 542.89) rotate(-.5)"><tspan x="0" y="0">351 N</tspan></text>
    <text class="st9" transform="translate(367.47 514.01) rotate(-.5)"><tspan x="0" y="0">351 O</tspan></text>
    <text class="st9" transform="translate(367.47 528.88) rotate(-.5)"><tspan x="0" y="0">351 P</tspan></text>
    <text class="st9" transform="translate(139.45 340.07) rotate(-.5)"><tspan x="0" y="0">362 A</tspan></text>
    <text class="st9" transform="translate(139.39 354.3) rotate(-.5)"><tspan x="0" y="0">362 B</tspan></text>
    <text class="st9" transform="translate(139.45 368.58) rotate(-.5)"><tspan x="0" y="0">362 C</tspan></text>
    <text class="st9" transform="translate(139.06 382.7) rotate(-.5)"><tspan x="0" y="0">362 D</tspan></text>
    <text class="st9" transform="translate(165.47 340.07) rotate(-.5)"><tspan x="0" y="0">362 H</tspan></text>
    <text class="st9" transform="translate(165.63 354.29) rotate(-.5)"><tspan x="0" y="0">362 I</tspan></text>
    <text class="st9" transform="translate(165.63 368.58) rotate(-.5)"><tspan x="0" y="0">362 J</tspan></text>
    <text class="st9" transform="translate(165.63 382.69) rotate(-.5)"><tspan x="0" y="0">362 K</tspan></text>
    <text class="st9" transform="translate(140.14 402.69) rotate(-.5)"><tspan x="0" y="0">362 E</tspan></text>
    <text class="st9" transform="translate(140.08 416.91) rotate(-.5)"><tspan x="0" y="0">362 F</tspan></text>
    <text class="st9" transform="translate(140.15 431.2) rotate(-.5)"><tspan x="0" y="0">362 G</tspan></text>
    <text class="st9" transform="translate(166.16 402.69) rotate(-.5)"><tspan x="0" y="0">362 L</tspan></text>
    <text class="st9" transform="translate(166.32 416.91) rotate(-.5)"><tspan x="0" y="0">362 M</tspan></text>
    <text class="st9" transform="translate(166.32 431.19) rotate(-.5)"><tspan x="0" y="0">362 N</tspan></text>
    <text class="st9" transform="translate(226.57 218.51) rotate(-.5)"><tspan x="0" y="0">372 A</tspan></text>
    <text class="st9" transform="translate(226.51 232.74) rotate(-.5)"><tspan x="0" y="0">372 B</tspan></text>
    <text class="st9" transform="translate(226.58 247.02) rotate(-.5)"><tspan x="0" y="0">372 C</tspan></text>
    <text class="st9" transform="translate(276.83 218.51) rotate(-.5)"><tspan x="0" y="0">372 D</tspan></text>
    <text class="st9" transform="translate(276.77 232.74) rotate(-.5)"><tspan x="0" y="0">372 E</tspan></text>
    <text class="st9" transform="translate(276.84 247.02) rotate(-.5)"><tspan x="0" y="0">372 F</tspan></text>
    <text class="st9" transform="translate(779.46 552.96) rotate(10.63)"><tspan x="0" y="0">332 A</tspan></text>
    <text class="st9" transform="translate(776.66 566.9) rotate(10.63)"><tspan x="0" y="0">332 B</tspan></text>
    <text class="st9" transform="translate(773.97 580.93) rotate(10.63)"><tspan x="0" y="0">332 C</tspan></text>
    <text class="st9" transform="translate(805 557.97) rotate(10.63)"><tspan x="0" y="0">332 D</tspan></text>
    <text class="st9" transform="translate(802.41 571.96) rotate(10.63)"><tspan x="0" y="0">332 E</tspan></text>
    <text class="st9" transform="translate(799.65 585.98) rotate(10.63)"><tspan x="0" y="0">332 F</tspan></text>
    <text class="st9" transform="translate(844.24 565.18) rotate(10.63)"><tspan x="0" y="0">332 G</tspan></text>
    <text class="st9" transform="translate(841.71 578.96) rotate(10.63)"><tspan x="0" y="0">332 H</tspan></text>
    <text class="st9" transform="translate(839.38 592.93) rotate(10.63)"><tspan x="0" y="0">332 I</tspan></text>
    <line class="st2" x1="493.81" y1="192.84" x2="493.81" y2="253.01"/>
    <text class="st9" transform="translate(80.35 395.77)"><tspan x="0" y="0">EXIT</tspan></text>
    <text class="st9" transform="translate(868.76 447.81) rotate(7.48)"><tspan x="0" y="0">EXIT</tspan></text>
    <g>
      <path d="M29.82,28.19h7.57v.92c-1.8.22-2.07.35-2.07,2.45v4.2c.53-.15,1.12-.55,1.95-1.33,1.7-1.67,2.8-3.02,3.55-3.97.6-.78.45-1.15-.7-1.3l-.47-.05v-.92h6.55v.92c-1.72.22-2.65.35-4.22,2.05-.97,1.03-2.2,2.28-3.3,3.47,1.57,2.2,3.52,4.87,5.45,7.3.92,1.2,1.25,1.38,2.52,1.58v.92h-4.97c-1.05-1.42-3.25-4.45-5.02-6.97-.53-.75-.92-.9-1.33-.82v4.42c0,2.12.17,2.2,2.1,2.45v.92h-7.6v-.92c1.87-.2,2.12-.33,2.12-2.45v-9.5c0-2.1-.25-2.27-2.12-2.45v-.92Z"/>
      <path d="M61.26,40.19c-.12.67-.82,3.55-1.05,4.25h-12.97v-.9c2.27-.22,2.42-.35,2.42-2.45v-9.55c0-2.12-.3-2.27-2-2.42v-.92h8.12c2.62,0,3.5-.03,3.85-.05.02.45.15,2.5.25,4.05l-.97.12c-.23-.85-.65-1.88-1.08-2.32-.45-.5-.77-.65-2.05-.65h-1.62c-.95,0-1.05.05-1.05.9v5.22h2.45c1.4,0,1.65-.38,2.02-2.15h.97v5.57h-.97c-.4-1.85-.6-2.15-2.05-2.15h-2.42v4.3c0,1.72.05,2.25,1.6,2.27h1.77c1.4,0,1.77-.17,2.32-.85.62-.72,1.12-1.65,1.53-2.5l.92.23Z"/>
      <path d="M72.17,44.44v-.92c1.58-.23,1.58-.5,1.22-1.58-.25-.75-.65-1.87-1.02-2.87h-4.87c-.27.78-.62,1.72-.88,2.5-.52,1.58.08,1.78,2.05,1.95v.92h-6.17v-.92c1.58-.2,1.97-.42,2.83-2.52l5.2-12.92,1.2-.22c1.6,4.35,3.3,8.8,4.92,12.97.92,2.32,1.15,2.5,2.77,2.7v.92h-7.25ZM69.97,32.49c-.72,1.8-1.42,3.47-2.05,5.3h3.97l-1.92-5.3Z"/>
      <path d="M98.26,29.12c-1.95.2-2.12.35-2.12,2.42v9.57c0,2.07.2,2.22,2.12,2.4v.92h-7.72v-.92c1.97-.25,2.12-.33,2.12-2.4v-4.7h-6.75v4.7c0,2.07.22,2.2,2.1,2.4v.92h-7.7v-.92c1.85-.2,2.12-.33,2.12-2.4v-9.57c0-2.07-.22-2.27-2.12-2.42v-.92h7.7v.92c-1.9.17-2.1.35-2.1,2.42v3.57h6.75v-3.57c0-2.07-.25-2.22-2.12-2.42v-.92h7.72v.92Z"/>
      <path d="M109.19,27.84c4.62,0,8.4,3.37,8.4,8.3,0,5.32-3.8,8.67-8.52,8.67-5,0-8.62-3.65-8.62-8.47,0-4.27,3.05-8.5,8.75-8.5ZM108.82,28.94c-2.55,0-4.42,2.5-4.42,6.92s1.67,7.85,5.05,7.85c2.38,0,4.22-2.3,4.22-6.87,0-4.95-1.95-7.9-4.85-7.9ZM110.69,42.84c3.2,2.45,5.77,4.2,7.62,4.9l-.22.75c-1.12.1-3,.05-3.97-.22-2.17-.62-4.8-2.65-6.9-4.32l3.47-1.1Z"/>
      <path d="M31.59,74.44l.2-.65,2.08-.1c.32-.22.53-.48.62-.8l4.3-15.15h-3.75l-3.15,4-.53-.2c.65-1.77,1.12-3.3,1.42-4.6h14.62c-.35,1.12-.73,2.69-1.15,4.72l-.58.03-.7-3.95h-3.85l-4.28,15.12c-.02.07-.03.17-.03.3,0,.23.06.41.18.53l2.17.1-.2.65h-7.4Z"/>
      <path d="M44.82,74.44l5.47-17.15-2.3-.3.2-.58c1.82,0,3.35-.08,4.6-.22l-2.7,8.55-1.5,4.17.2.03c1.22-2.43,2.35-4.23,3.39-5.39,1.04-1.16,2.05-1.74,3.01-1.74.6,0,1.06.17,1.38.51.32.34.47.82.47,1.44,0,.5-.11,1.05-.33,1.65l-2.42,6.73c-.12.3-.17.55-.17.75,0,.25.12.38.38.38.23,0,.55-.24.94-.73s.95-1.32,1.66-2.5l.5.28c-1,1.67-1.81,2.83-2.44,3.47-.62.65-1.25.98-1.89.98-.43,0-.76-.13-.99-.39-.22-.26-.34-.63-.34-1.11,0-.43.1-.95.3-1.55l2.55-6.97c.12-.35.17-.62.17-.8,0-.25-.06-.45-.19-.59s-.3-.21-.54-.21c-.52,0-1.21.53-2.09,1.59-.88,1.06-1.79,2.46-2.74,4.2-.95,1.74-1.79,3.58-2.53,5.51h-2.07Z"/>
      <path d="M59.78,74.38c-.23-.26-.34-.62-.34-1.09,0-.4.11-.92.33-1.58l2.58-7.27c.12-.38.17-.63.17-.75,0-.25-.12-.38-.38-.38-.23,0-.54.24-.92.71-.38.48-.94,1.3-1.67,2.49l-.5-.28c1-1.67,1.81-2.82,2.44-3.46.62-.64,1.25-.96,1.89-.96.42,0,.74.12.98.38s.35.61.35,1.08-.11.99-.33,1.57l-2.55,7.3c-.12.3-.17.55-.17.75,0,.25.12.38.35.38s.54-.24.93-.71c.38-.47.95-1.31,1.7-2.51l.5.28c-1,1.67-1.82,2.83-2.45,3.47-.63.65-1.27.98-1.9.98-.43,0-.76-.13-.99-.39ZM63.51,59.58c-.22-.23-.34-.51-.34-.86,0-.48.16-.89.49-1.21s.72-.49,1.19-.49c.37,0,.66.11.89.34.22.23.34.51.34.86,0,.48-.16.89-.49,1.21s-.72.49-1.19.49c-.37,0-.66-.11-.89-.34Z"/>
      <path d="M69.84,64.44c.12-.38.17-.63.17-.75,0-.27-.12-.4-.35-.4s-.55.24-.94.73-.95,1.32-1.66,2.5l-.5-.28c.97-1.65,1.77-2.8,2.41-3.45.64-.65,1.28-.97,1.91-.97.37,0,.66.11.89.33.22.22.34.55.34,1s-.12,1.02-.38,1.75l-1.17,3.17.22.08c1.12-2.35,2.08-3.99,2.88-4.93.8-.93,1.57-1.4,2.3-1.4.15,0,.36.03.62.1l-.55,2.33c-.28-.15-.58-.22-.9-.22-.6,0-1.18.3-1.75.9-.57.6-1.22,1.64-1.96,3.11-.74,1.48-1.69,3.61-2.84,6.41h-2.08l3.33-10Z"/>
      <path d="M75.22,74.09c-.48-.45-.73-1.07-.73-1.88,0-1.25.43-2.7,1.29-4.36.86-1.66,1.91-3.08,3.16-4.26,1.25-1.18,2.42-1.77,3.5-1.77.8,0,1.51.22,2.12.65l1.67-5.17-2.3-.3.2-.58c1.72,0,3.25-.08,4.6-.22l-5.12,15.95c-.12.38-.17.63-.17.75,0,.25.12.38.38.38.23,0,.55-.25.94-.74.39-.49.95-1.32,1.69-2.49l.5.28c-.9,1.5-1.67,2.62-2.31,3.35s-1.32,1.1-2.04,1.1c-.38,0-.69-.11-.91-.33-.22-.22-.34-.56-.34-1.03,0-.43.12-1,.38-1.7l1.15-3.22-.2-.05c-.95,1.88-1.9,3.41-2.86,4.58-.96,1.17-1.87,1.75-2.74,1.75-.75,0-1.37-.23-1.85-.68ZM79.93,71.8c.79-1.03,1.58-2.27,2.35-3.72.77-1.46,1.39-2.78,1.84-3.96-.07-.5-.25-.89-.56-1.17s-.68-.42-1.11-.42c-.77,0-1.59.59-2.47,1.76-.88,1.18-1.64,2.54-2.26,4.1s-.94,2.82-.94,3.79c0,.4.1.7.31.89.21.19.49.29.84.29.55,0,1.22-.51,2.01-1.54Z"/>
      <path d="M92.87,74.44l.2-.65,1.78-.1c.28-.18.48-.44.6-.78l4.05-14.45c.03-.13.05-.22.05-.27,0-.22-.08-.38-.23-.5l-1.8-.1.2-.65h7.03l-.2.65-2.08.1c-.32.22-.53.48-.62.8l-4.28,15.12h6.3l3.35-4.22.53.17c-.67,1.75-1.19,3.38-1.58,4.88h-13.3Z"/>
      <path d="M116.62,66.82c-1.25.82-3.02,1.47-5.3,1.97-.25,1.05-.38,1.88-.38,2.5,0,.72.15,1.26.46,1.62.31.37.75.55,1.34.55,1.28,0,2.55-1.13,3.8-3.4l.52.27c-1.53,2.95-3.23,4.43-5.1,4.43-.97,0-1.77-.3-2.41-.9s-.96-1.42-.96-2.47c0-1.2.32-2.56.96-4.09s1.52-2.82,2.62-3.89c1.11-1.07,2.31-1.6,3.61-1.6.8,0,1.45.19,1.95.58.5.38.75.91.75,1.57,0,1.08-.62,2.03-1.88,2.85ZM113.29,64.19c-.73,1.12-1.33,2.42-1.78,3.92,1.13-.3,2.08-.72,2.83-1.25s1.3-1.09,1.66-1.67.54-1.13.54-1.65c0-.32-.09-.57-.28-.75-.18-.18-.42-.27-.72-.27-.77,0-1.52.56-2.25,1.67Z"/>
      <path d="M121.09,74.57l-.5-11.7-1.12-.15.17-.57h5.53l-.18.57-1.52.1c-.43.15-.65.47-.65.95l.17,7.65,5.15-7.62c.1-.15.15-.3.15-.45,0-.22-.09-.39-.28-.52l-1.47-.1.15-.57h4.15l-.15.57-1.02.1-8.03,11.75h-.55Z"/>
      <path d="M137.07,66.82c-1.25.82-3.02,1.47-5.3,1.97-.25,1.05-.38,1.88-.38,2.5,0,.72.15,1.26.46,1.62.31.37.75.55,1.34.55,1.28,0,2.55-1.13,3.8-3.4l.53.27c-1.53,2.95-3.23,4.43-5.1,4.43-.97,0-1.77-.3-2.41-.9s-.96-1.42-.96-2.47c0-1.2.32-2.56.96-4.09s1.52-2.82,2.62-3.89c1.11-1.07,2.31-1.6,3.61-1.6.8,0,1.45.19,1.95.58.5.38.75.91.75,1.57,0,1.08-.62,2.03-1.88,2.85ZM133.74,64.19c-.73,1.12-1.33,2.42-1.77,3.92,1.13-.3,2.07-.72,2.82-1.25s1.3-1.09,1.66-1.67.54-1.13.54-1.65c0-.32-.09-.57-.27-.75-.18-.18-.43-.27-.73-.27-.77,0-1.52.56-2.25,1.67Z"/>
      <path d="M139.33,74.38c-.21-.26-.31-.63-.31-1.11s.09-1,.28-1.55l4.65-14.42-2.27-.3.2-.58c1.75,0,3.28-.08,4.6-.22l-5.15,15.95c-.12.4-.17.65-.17.75,0,.25.12.38.38.38.23,0,.54-.24.92-.71.38-.47.94-1.31,1.68-2.51l.5.28c-.98,1.67-1.79,2.83-2.43,3.47-.63.65-1.27.98-1.92.98-.42,0-.73-.13-.94-.39Z"/>
    </g>
  </g>
</svg>